<svg xmlns="http://www.w3.org/2000/svg" fill="none" viewBox="-1 -1 400 400" id="We-Are-Hiring--Streamline-Bangalore" height="400" width="400"><desc>We Are Hiring Streamline Illustration: https://streamlinehq.com</desc><g id="Work-We-are-hiring-01"><g id="color 2"><path id="Vector" fill="#fecfc4" d="M243.07054 219.79948s-11.95194 -10.93107 -16.716 -20.79948c-3.55414 -7.29733 -8.20477 -15.953829999999998 -16.55879 -19.73483 -0.6984899999999999 -7.099922 -0.7741100000000001 -14.247405 -0.22686 -21.36066 0.41192999999999996 -7.42469 -1.4128999999999998 -18.308 -3.98 -19.9995 -1.68354 -0.99102 -3.48847 -1.7539859999999998 -5.373 -2.2685999999999997 1.32136 3.9272650000000002 2.35815 7.945075 3.10042 12.021590000000002l-21.293 0.5671499999999999c-0.678192 -4.0745249999999995 -1.702644 -8.083579 -3.06261 -11.983780000000001 -1.8904999999999998 0.45372 -3.44071 0.796 -4.8396799999999995 1.2099199999999999 0.037809999999999996 0.22686 8.053529999999999 29.828110000000002 0.34029000000000004 25.519759999999998 1.5124 6.69038 4.12129 17.65528 5.595879999999999 19.92388 -6.4277 41.62483 -14.36581 125.85754999999999 -15.87821 140.63927 8.583069 3.68349 18.152581 4.38994 27.1834 2.00393 0 0 11.189770000000001 -86.08541 12.935 -105.74462l28.01522 23.704880000000003c2.3800399999999997 2.03776 5.18196 3.5223 8.202779999999999 4.34815l40.90644 11.303199999999999c-7.43265 -2.189 -1.1741 -28.59431 7.410760000000001 -28.09084l-45.76204 -11.25942Z" stroke-width="2"></path><path id="Vector_2" fill="#fecfc4" d="M56.074220000000004 198.73533v8.885349999999999c0.00199 1.6536899999999999 0.659884 3.23773 1.829009 4.40785 1.169125 1.16813 2.7541599999999997 1.82682 4.407651 1.82881h8.955c0.021691 -1.99796 -0.356807 -3.98 -1.113405 -5.82871 -0.756797 -1.84871 -1.875973 -3.52827 -3.2920570000000002 -4.937189999999999 -1.415885 -1.40892 -3.099823 -2.52133 -4.952313999999999 -3.26957 -1.8526900000000002 -0.74824 -3.836322 -1.117584 -5.833884 -1.08654Z" stroke-width="2"></path></g><g id="color 1"><path id="Vector_3" fill="#0077b6" d="M116.216 109.39826c-2.03378 -2.639536 -4.836894 -4.582572 -8.022287 -5.560856 -3.185393 -0.978085 -6.595854999999999 -0.9430609999999999 -9.760353 0.100296 0.247954 -1.232208 0.236014 -2.5028230000000002 -0.035024 -3.730255s-0.795204 -2.384816 -1.539066 -3.397925c-1.392005 -1.716773 -3.400512 -2.820626 -5.595879999999999 -3.075545 -2.1953679999999998 -0.255118 -4.4032729999999995 0.358797 -6.151886 1.710604 -1.7484140000000001 1.351807 -2.898634 3.334245 -3.204696 5.523046 -0.305863 2.188801 0.25671 4.410437 1.5677219999999998 6.189895 0.780876 0.983657 1.761747 1.790204 2.877739 2.366707 1.1159919999999999 0.576304 2.341434 0.909032 3.595731 0.976493 -1.802144 2.79595 -2.693266 6.081639 -2.550782 9.404938999999999 0.142683 3.323101 1.311808 6.520434000000001 3.3467819999999997 9.151811 1.534688 1.7738859999999999 3.349767 3.284495 5.373 4.47153 2.34422 -4.378 2.91933 -9.307229999999999 2.5710800000000003 -9.71717 -2.43576 -2.8496799999999998 0.11343 -5.51827 1.73926 -2.26661 0.83182 1.66364 1.8526900000000002 -1.24773 2.34422 -3.36509 2.4755599999999998 1.106838 5.121663 1.7844330000000002 7.82468 2.00393 -0.26467 10.546999999999999 -3.13823 15.689160000000001 -7.48439 11.26539 -0.086366 1.34922 -0.048357 2.703415 0.11343 4.045669999999999 3.626377 -0.231636 7.118031 -1.463048 10.08731 -3.55812 3.3718559999999997 -2.6051089999999997 5.571801 -6.442426 6.116265 -10.668589 0.544265 -4.226163 -0.611328 -8.495509 -3.2128550000000002 -11.870151Z" stroke-width="2"></path><path id="Vector_4" fill="#0077b6" d="M103.06806999999999 131.43949999999998c-0.700082 -0.7494339999999999 -1.332703 -1.559165 -1.8904999999999998 -2.4198399999999998 -0.172931 1.153205 -0.082585 2.330489 0.26447099999999996 3.443695 0.347056 1.113206 0.9416680000000001 2.133479 1.7394589999999999 2.9840050000000002 -0.15760800000000003 -1.329917 -0.19561699999999999 -2.671177 -0.11343 -4.00786Z" stroke-width="2"></path><path id="Vector_5" fill="#0077b6" d="M81.48055 165.54213c-1.965921 0.959578 -3.98597 1.804731 -6.0496 2.53128l4.76605 -8.24059c0.262879 1.936469 0.692321 3.84667 1.28355 5.70931Z" stroke-width="2"></path><path id="Vector_6" fill="#0077b6" d="M184.38942 126.75106000000001c-0.11343 1.0964900000000002 -0.11343 2.5710800000000003 -0.15123999999999999 4.00786 -2.2685999999999997 0.22686 -5.63369 0.34029000000000004 -6.35208 -0.49152999999999997l-0.34029000000000004 -0.45372c1.02087 1.6258299999999999 3.97005 -0.41591 6.84361 -3.06261Z" stroke-width="2"></path><path id="Vector_7" fill="#0077b6" d="M151.98824000000002 160.55121c-1.02087 1.43678 -2.07955 2.985 -3.21186 4.6506300000000005v-9.41469c0.925748 1.680953 2.000547 3.2753409999999996 3.21186 4.764060000000001Z" stroke-width="2"></path><path id="Vector_8" fill="#0077b6" d="m204.3133 219.75570000000002 4.9153 4.1591 0.52934 -17.54185c-0.30247999999999997 3.93025 -5.444640000000001 13.42056 -5.444640000000001 13.38275Z" stroke-width="2"></path><path id="Vector_9" fill="#0077b6" d="M302.91382 236.46573c-7.472449999999999 -0.398 -14.74391 42.50043 -5.444640000000001 45.2924 8.883360000000001 0.49152999999999997 15.12201 -44.763059999999996 5.444640000000001 -45.2924Z" stroke-width="2"></path><path id="Vector_10" fill="#0077b6" d="M285.52122 256.35179999999997c-2.2964599999999997 -1.1283299999999998 -4.74217 -1.9183599999999998 -7.2635 -2.3482 0.83182 5.48245 4.2387 6.92321 7.94408 2.95316 -0.22686 -0.18905 -0.41591 -0.3781 -0.6805800000000001 -0.6049599999999999Z" stroke-width="2"></path><path id="Vector_11" fill="#0077b6" d="M289.26441 231.09671c-0.7741100000000001 -0.10746 -1.5621500000000001 -0.02189 -2.29447 0.24875 -0.73033 0.27064 -1.3850399999999998 0.71839 -1.90244 1.30345 2.07955 0.597 4.49939 1.20793 6.88142 1.73727 -0.14526999999999998 -0.72436 -0.46764999999999995 -1.4049399999999999 -0.9352999999999999 -1.97806 -0.46764999999999995 -0.57312 -1.06863 -1.02286 -1.74921 -1.31141Z" stroke-width="2"></path><path id="Vector_12" fill="#0077b6" d="M194.8608 106.9028c0.71839 -1.66364 -2.26661 -2.76013 -4.1193 -0.18905 0.7562 -1.5124 -2.4198399999999998 -2.7223200000000003 -4.08348 0.22686 0.49152999999999997 -1.43678 -2.388 -2.6467 -4.19691 0.6427700000000001 0.199 -1.70145 -2.68451 -1.66364 -3.4029 1.3611600000000001 -0.45372 1.8904999999999998 -0.796 3.9322399999999997 -1.05868 5.444640000000001 0.944454 0.501679 1.931494 0.9191809999999999 2.94918 1.24773 -0.3781 3.85662 0.9830599999999999 4.08348 1.73926 2.7223200000000003 1.43678 -2.53327 4.31034 -0.49152999999999997 1.5124 3.4029 0.18506999999999998 0.199 8.12517 8.60874 8.31621 8.80774 -4.76207 -5.595879999999999 2.9113700000000002 -17.46623 5.40683 -21.54971 2.07159 -3.4029 -1.17211 -4.61282 -3.06261 -2.11736Z" stroke-width="2"></path><path id="Vector_13" fill="#0077b6" d="m35.961290000000005 231.66585 -14.70809 14.7061c-1.5721 1.5721 0.84575 4.00985 2.388 2.388l14.70809 -14.70809c0.31641 -0.31641 0.494117 -0.74625 0.493918 -1.194 -0.000199 -0.44775 -0.178304 -0.87759 -0.494913 -1.194 -0.316609 -0.31641 -0.746051 -0.49352 -1.193801 -0.49352 -0.447551 0 -0.876794 0.17909999999999998 -1.193204 0.49551Z" stroke-width="2"></path><path id="Vector_14" fill="#0077b6" d="M311.07878999999997 160.43778c-0.18905 0.90744 -0.52934 2.6088899999999997 -0.86963 4.378l6.88142 -5.40683 -6.0117899999999995 1.0288300000000001Z" stroke-width="2"></path><path id="Vector_15" fill="#0077b6" d="M288.43259 136.69509c0.08358 0.449342 0.13532 0.9042560000000001 0.15123999999999999 1.3611600000000001l1.592 -2.15517 -1.74324 0.79401Z" stroke-width="2"></path><path id="Vector_16" fill="#0077b6" d="M316.52342999999996 109.25099999999999c-0.00995 -0.644561 -0.25273 -1.263849 -0.68456 -1.74324 -0.42984 -0.47958999999999996 -1.02087 -0.787045 -1.65966 -0.86565 0.41391999999999995 -0.510236 0.62884 -1.154399 0.60098 -1.811099 -0.02786 -0.656899 -0.29452 -1.280963 -0.74824 -1.7549810000000001 -0.45571 -0.474018 -1.06863 -0.765354 -1.72533 -0.818686 -0.65471 -0.053531 -1.30743 0.134325 -1.8327900000000001 0.528146 -0.08756 -0.667844 -0.41192999999999996 -1.28156 -0.91739 -1.727519 -0.50347 -0.446158 -1.15221 -0.69451 -1.82682 -0.699087 -0.67262 -0.0045769999999999995 -1.32534 0.23481999999999997 -1.83478 0.674013 -0.51143 0.439193 -0.84575 1.048332 -0.9412699999999999 1.714783 -0.5174 -0.402179 -1.16415 -0.60098 -1.8188600000000001 -0.5583940000000001 -0.6527200000000001 0.042387 -1.26763 0.32317599999999996 -1.72931 0.788836 -0.46168000000000003 0.465859 -0.73431 1.084351 -0.77013 1.738663 -0.03582 0.654312 0.16915000000000002 1.298873 0.5771 1.811895 -0.64874 0.08139099999999999 -1.24773 0.397204 -1.67956 0.888137 -0.43382 0.490734 -0.67262 1.1227580000000001 -0.67262 1.777468 0 0.6545110000000001 0.23879999999999998 1.286535 0.67262 1.777468 0.43183 0.490734 1.03082 0.806547 1.67956 0.888137 -0.40397000000000005 0.5136189999999999 -0.6049599999999999 1.1565880000000002 -0.5671499999999999 1.8085120000000001 0.037809999999999996 0.651924 0.31044 1.26763 0.77013 1.731897 0.45969000000000004 0.464068 1.07261 0.7446579999999999 1.7233399999999999 0.788836 0.6527200000000001 0.044377 1.29748 -0.150643 1.81488 -0.5482450000000001 0.07761 0.650133 0.38805 1.249919 0.8756 1.686525 0.48755 0.436805 1.1183800000000002 0.680182 1.77309 0.684958 0.65471 0.0045769999999999995 1.28952 -0.230044 1.78304 -0.6596850000000001 0.49352 -0.42984 0.8139099999999999 -1.025049 0.8994800000000001 -1.6739879999999998 0.51541 0.404169 1.16017 0.6071489999999999 1.8128900000000001 0.5711299999999999 0.6527200000000001 -0.036019 1.2716100000000001 -0.30845 1.73926 -0.766747 0.46764999999999995 -0.45809799999999995 0.75222 -1.070819 0.8019700000000001 -1.723539 0.047760000000000004 -0.652919 -0.14129 -1.3010620000000002 -0.5353100000000001 -1.824034 0.6666500000000001 -0.061093 1.28753 -0.371334 1.73528 -0.868834 0.44775 -0.4975 0.6925199999999999 -1.145842 0.68456 -1.815676Z" stroke-width="2"></path><path id="Vector_17" fill="#0077b6" d="M308.43209 122.783c0.6805800000000001 -0.193229 1.2716100000000001 -0.616502 1.6755799999999998 -1.197781 0.40198 -0.5812790000000001 0.5910299999999999 -1.2845449999999998 0.53332 -1.989204 -0.057710000000000004 -0.704858 -0.36019 -1.3677270000000001 -0.85172 -1.875376 -0.49152999999999997 -0.50745 -1.14624 -0.828437 -1.84871 -0.907639 0.46566 -0.49789799999999995 0.75222 -1.136887 0.8139099999999999 -1.815875 0.06169 -0.678988 -0.10547 -1.358971 -0.47561 -1.9322899999999998 -0.36815 -0.57312 -0.9193800000000001 -1.006741 -1.5621500000000001 -1.23181 -0.64476 -0.22506900000000002 -1.34325 -0.22904899999999997 -1.99 -0.010945 0.15721 -0.670829 0.08557 -1.375289 -0.20695999999999998 -1.9995519999999998 -0.29053999999999996 -0.6244620000000001 -0.78406 -1.132708 -1.3989699999999998 -1.44275 -0.6169 -0.310042 -1.31738 -0.403771 -1.99398 -0.266262 -0.67461 0.13731000000000002 -1.28355 0.49809700000000007 -1.72931 1.0240539999999998 -0.1592 -0.700679 -0.55123 -1.326733 -1.1104200000000002 -1.776672 -0.5611799999999999 -0.45013800000000004 -1.25569 -0.697296 -1.97408 -0.701674 -0.72038 -0.004378 -1.4188699999999999 0.234422 -1.98403 0.677396 -0.56516 0.44317300000000004 -0.96515 1.064451 -1.13231 1.76314 -0.43581 -0.531728 -1.03679 -0.900674 -1.7094099999999999 -1.047138 -0.6706300000000001 -0.14646399999999998 -1.3731 -0.06169 -1.99 0.240392 -0.6169 0.301883 -1.1144 0.803761 -1.4109099999999999 1.423646 -0.29452 0.620084 -0.37412 1.321957 -0.22089 1.9919899999999997 -0.64476 -0.231437 -1.3472300000000001 -0.240392 -1.9959699999999998 -0.025671 -0.65073 0.21492 -1.2099199999999999 0.640979 -1.58802 1.2105169999999998 -0.38009 0.569538 -0.5572 1.24972 -0.50546 1.932091 0.05373 0.682172 0.33233 1.3273300000000001 0.79401 1.832193 -0.70048 0.07761 -1.35121 0.393821 -1.84473 0.895301 -0.49352 0.501679 -0.79998 1.15818 -0.86764 1.859058 -0.06567 0.700878 0.11144 1.403149 0.50148 1.9888059999999999s0.97112 1.01888 1.64374 1.2268350000000001c-0.35223 0.204373 -0.65869 0.477003 -0.90346 0.802169 -0.24477 0.32516599999999996 -0.42188 0.695903 -0.51939 1.0905200000000002 -0.0995 0.394617 -0.11740999999999999 0.805154 -0.05572 1.206935 0.06368 0.40198 0.20496999999999999 0.787244 0.41989 1.133106 2.8098799999999997 -12.60665 8.56894 -6.368 9.37688 -1.393 0.18905 0.796 0.6805800000000001 0.83182 1.70145 -0.33830000000000005 2.11736 -2.49546 4.95709 1.38106 0.71839 4.76207 -0.23481999999999997 0.18706 -0.5492400000000001 1.67757 -0.30247999999999997 5.217779999999999 0.38606 -0.148852 0.73829 -0.372528 1.03679 -0.657894 0.2985 -0.28556499999999996 0.5373 -0.6274470000000001 0.7024699999999999 -1.0057459999999998 0.27263000000000004 0.647944 0.76018 1.181662 1.38106 1.510808 0.62287 0.329345 1.33728 0.43382 2.0278099999999997 0.295913 0.6885399999999999 -0.137907 1.30942 -0.509838 1.75518 -1.052511 0.44775 -0.542872 0.6925199999999999 -1.223452 0.69451 -1.92632 0.5552100000000001 0.386856 1.22186 0.577697 1.8984599999999998 0.542474 0.67461 -0.035223 1.3193700000000002 -0.294321 1.8308 -0.736698 0.51143 -0.442178 0.8616699999999999 -1.042362 0.995 -1.7056289999999998 0.13134 -0.6632669999999999 0.0398 -1.351807 -0.26268 -1.956767 0.43382 0.056516000000000004 0.87361 0.019303 1.29151 -0.109251 0.4179 -0.12875299999999998 0.8019700000000001 -0.345663 1.1283299999999998 -0.636004 0.32636000000000004 -0.29053999999999996 0.58705 -0.647745 0.76217 -1.0477349999999999 0.17711 -0.399791 0.26467 -0.832815 0.2587 -1.26962 -0.01393 -0.520982 -0.1592 -1.029825 -0.42188 -1.479565 -0.26268 -0.44954099999999997 -0.6368 -0.8250540000000001 -1.0845500000000001 -1.091515Z" stroke-width="2"></path><path id="Vector_18" fill="#0077b6" d="M298.18757 175.518c0.029849999999999998 0.37093600000000004 -0.08756 0.7388870000000001 -0.33034 1.022462 -0.24079 0.28357499999999997 -0.5850599999999999 0.459889 -0.9551999999999999 0.489938 -0.37013999999999997 0.030049 -0.73829 -0.088356 -1.02286 -0.329544 -0.28258 -0.240989 -0.45969000000000004 -0.584861 -0.48954 -0.955996 -0.029849999999999998 -0.37093600000000004 0.08756 -0.7388870000000001 0.33034 -1.022462 0.24079 -0.28357499999999997 0.5850599999999999 -0.459889 0.9551999999999999 -0.489938 0.37013999999999997 -0.030049 0.73829 0.088555 1.02286 0.329544 0.28258 0.241188 0.45969000000000004 0.5850599999999999 0.48954 0.955996Z" stroke-width="2"></path><path id="Vector_19" fill="#0077b6" d="M283.70634 165.88242c0.029849999999999998 0.37093600000000004 -0.08756 0.7388870000000001 -0.33034 1.022462 -0.24079 0.28357499999999997 -0.5850599999999999 0.459889 -0.9551999999999999 0.489938 -0.37013999999999997 0.030049 -0.73829 -0.088555 -1.02286 -0.329544 -0.28258 -0.241188 -0.45969000000000004 -0.5850599999999999 -0.48954 -0.955996 -0.029849999999999998 -0.371135 0.08756 -0.7388870000000001 0.33034 -1.022462 0.24079 -0.28357499999999997 0.5850599999999999 -0.459889 0.9551999999999999 -0.489938 0.37013999999999997 -0.030049 0.73829 0.088555 1.02286 0.329544 0.28258 0.240989 0.45969000000000004 0.5850599999999999 0.48954 0.955996Z" stroke-width="2"></path><path id="Vector_20" fill="#0077b6" d="M296.7886 154.69065999999998c0.029849999999999998 0.371135 -0.08756 0.7388870000000001 -0.33034 1.022462 -0.24079 0.28357499999999997 -0.5850599999999999 0.459889 -0.9551999999999999 0.489938 -0.37013999999999997 0.030049 -0.73829 -0.088356 -1.02286 -0.329544 -0.28258 -0.240989 -0.45969000000000004 -0.584861 -0.48954 -0.955996 -0.029849999999999998 -0.37093600000000004 0.08756 -0.7388870000000001 0.33034 -1.022462 0.24079 -0.28357499999999997 0.5850599999999999 -0.459889 0.9551999999999999 -0.489938 0.37013999999999997 -0.030049 0.73829 0.088555 1.02286 0.329544 0.28258 0.241188 0.45969000000000004 0.5850599999999999 0.48954 0.955996Z" stroke-width="2"></path></g><g id="outlines"><path id="Vector_21" stroke="#120071" stroke-linejoin="round" d="m35.961290000000005 231.66585 -14.70809 14.7061c-1.5721 1.5721 0.84575 4.00985 2.388 2.388l14.70809 -14.70809c0.31641 -0.31641 0.494117 -0.74625 0.493918 -1.194 -0.000199 -0.44775 -0.178304 -0.87759 -0.494913 -1.194 -0.316609 -0.31641 -0.746051 -0.49352 -1.193801 -0.49352 -0.447551 0 -0.876794 0.17909999999999998 -1.193204 0.49551Z" stroke-width="2"></path><path id="Union" fill="#120071" d="m316.52342999999996 109.25099999999999 0.74625 -0.009353 0 -0.002388 -0.74625 0.011741Zm-0.68456 -1.74324 -0.5552100000000001 0.49869399999999997 0.5552100000000001 -0.49869399999999997Zm0 3.558916 -0.5552100000000001 -0.499689 0.5552100000000001 0.499689Zm-1.73528 0.868834 -0.06766 -0.743265c-0.27064 0.024676 -0.50546 0.193428 -0.61491 0.440984 -0.10945 0.247357 -0.07561999999999999 0.5349119999999999 0.08557 0.751225l0.597 -0.448944Zm0.5353100000000001 1.824034 -0.74426 -0.055918999999999996 0.74426 0.055918999999999996Zm-0.8019700000000001 1.723539 -0.5213800000000001 -0.532922 0.5213800000000001 0.532922Zm-1.73926 0.766747 0.04179 0.745056 -0.04179 -0.745056Zm-1.8128900000000001 -0.5711299999999999 0.46168000000000003 -0.58705c-0.21094 -0.165568 -0.49551 -0.205169 -0.74227 -0.104077 -0.24875 0.101092 -0.42386999999999997 0.327355 -0.45969000000000004 0.59302l0.7402799999999999 0.09810699999999999Zm-0.8994800000000001 1.6739879999999998 -0.48954 -0.562971 0.48954 0.562971Zm-0.011940000000000001 0.010149 -0.48755 -0.565956c-0.17312999999999998 0.149449 -0.26865 0.37053800000000003 -0.2587 0.599388 0.00995 0.22885 0.12537 0.440387 0.31243 0.573717l0.43382 -0.6071489999999999Zm0.41591 0.35780199999999995 0.5353100000000001 -0.519589 -0.5353100000000001 0.519589Zm0.3184 3.8645799999999997 0.61292 0.425064 -0.61292 -0.425064Zm-1.6755799999999998 1.197781 -0.20298 -0.717793c-0.28656 0.08139099999999999 -0.4975 0.32556399999999996 -0.5373 0.6210789999999999 -0.037809999999999996 0.29551499999999997 0.10347999999999999 0.585657 0.35819999999999996 0.738091l0.38208000000000003 -0.641377Zm1.0845500000000001 1.091515 0.6427700000000001 -0.377304 -0.6427700000000001 0.377304Zm0.42188 1.479565 0.74625 -0.010149 0 -0.009153999999999999 -0.74625 0.019303Zm-0.2587 1.26962 0.68257 0.300888 -0.68257 -0.300888Zm-0.76217 1.0477349999999999 0.49551 0.557399 -0.49551 -0.557399Zm-1.1283299999999998 0.636004 0.2189 0.713017 -0.2189 -0.713017Zm-1.29151 0.109251 0.09751 -0.739882c-0.27462000000000003 -0.03582 -0.5452600000000001 0.082386 -0.7064499999999999 0.30725600000000003 -0.1592 0.224671 -0.18109 0.519589 -0.057710000000000004 0.766349l0.6666500000000001 -0.333723Zm0.26268 1.956767 0.73033 0.146066 -0.73033 -0.146066Zm-0.995 1.7056289999999998 0.48755 0.564563 -0.48755 -0.564563Zm-1.8308 0.736698 0.037809999999999996 0.745255 -0.037809999999999996 -0.745255Zm-1.8984599999999998 -0.542474 0.42586 -0.612124c-0.22686 -0.158802 -0.52337 -0.17810499999999999 -0.77013 -0.049949 -0.24676 0.127957 -0.40198 0.38188099999999997 -0.40198 0.6594859999999999l0.74625 0.002587Zm-0.69451 1.92632 0.5771 0.474018 -0.5771 -0.474018Zm-1.75518 1.052511 0.14526999999999998 0.731723 -0.14526999999999998 -0.731723Zm-2.0278099999999997 -0.295913 -0.34825 0.659287 0.34825 -0.659287Zm-1.38106 -1.510808 0.6885399999999999 -0.289545c-0.11740999999999999 -0.274819 -0.38407 -0.454516 -0.68257 -0.456705 -0.2985 -0.002189 -0.56914 0.173528 -0.6885399999999999 0.446755l0.68257 0.299495Zm-0.7024699999999999 1.0057459999999998 0.51541 0.53929 0 -0.000199 -0.51541 -0.539091Zm-1.03679 0.657894 -0.74426 0.051939000000000006c0.01592 0.236213 0.14328 0.450735 0.34426999999999996 0.577896 0.199 0.126962 0.44775 0.151638 0.66864 0.066267l-0.26865 -0.696102Zm0.30247999999999997 -5.217779999999999 0.46566 0.583667 0 -0.000199 -0.46566 -0.583468Zm-0.71839 -4.76207 0.56317 0.490734 0.0059700000000000005 -0.00796 -0.56914 -0.48277400000000004Zm-1.70145 0.33830000000000005 -0.7363 0.119599c0.00199 0.017711 0.0059700000000000005 0.035422 0.00995 0.052933999999999995l0.7263499999999999 -0.172533Zm-9.37688 1.393 -0.63481 0.392826c0.1592 0.25790399999999997 0.45969000000000004 0.393622 0.76018 0.343076 0.2985 -0.050745 0.5373 -0.277406 0.60297 -0.573518l-0.72834 -0.162384Zm0.15522 -3.430561 -0.597 -0.448546 0.597 0.448546Zm0.90346 -0.802169 0.37412 0.645357c0.25671 -0.148852 0.39999 -0.435213 0.36815 -0.7297330000000001 -0.03383 -0.294321 -0.23879999999999998 -0.5410809999999999 -0.5213800000000001 -0.628641l-0.22089 0.713017Zm-1.64374 -1.2268350000000001 0.62088 -0.41391999999999995 -0.62088 0.41391999999999995Zm-0.50148 -1.9888059999999999 -0.74227 -0.070645 0.74227 0.070645Zm0.86764 -1.859058 0.5313300000000001 0.523569 -0.5313300000000001 -0.523569Zm1.84473 -0.895301 0.08159000000000001 0.7416729999999999c0.28058999999999995 -0.030845 0.5174 -0.215915 0.6169 -0.478993 0.0995 -0.262879 0.04179 -0.558991 -0.14726 -0.766349l-0.55123 0.503669Zm-0.79401 -1.832193 -0.74426 0.057113 0.74426 -0.057113Zm0.50546 -1.932091 -0.62088 -0.413522 0.62088 0.413522Zm1.58802 -1.2105169999999998 -0.23481999999999997 -0.70844 0.23481999999999997 0.70844Zm1.9959699999999998 0.025671 -0.25273 0.702271c0.25671 0.092137 0.54327 0.037213 0.74824 -0.143678 0.20298 -0.180891 0.29252999999999996 -0.45849599999999996 0.23283 -0.72436l-0.72834 0.165767Zm0.22089 -1.9919899999999997 -0.67262 -0.32178300000000004 0.67262 0.32178300000000004Zm1.4109099999999999 -1.423646 0.32835000000000003 0.6702319999999999 -0.32835000000000003 -0.6702319999999999Zm3.69941 0.806746 -0.5771 0.472824c0.17909999999999998 0.21929800000000002 0.46764999999999995 0.317803 0.74426 0.25452100000000005 0.27661 -0.063282 0.49152999999999997 -0.27760500000000005 0.5591900000000001 -0.553021l-0.7263499999999999 -0.174324Zm1.13231 -1.76314 0.45969000000000004 0.5874480000000001 -0.45969000000000004 -0.5874480000000001Zm3.95811 0.024278 0.46764999999999995 -0.581876 -0.46764999999999995 0.581876Zm0.75222 0.870625 -0.64476 0.377702c0.14526999999999998 0.247357 0.41989 0.389642 0.70446 0.36596100000000004 0.28656 -0.023482 0.53332 -0.20855200000000002 0.6368 -0.47620700000000005l-0.6965 -0.26745599999999997Zm0.49352 -0.8147059999999999 0.5591900000000001 0.49371899999999996 -0.5591900000000001 -0.49371899999999996Zm1.67956 -0.888137 0.09353 0.740479c0.26666 -0.033630999999999994 0.49551 -0.20895 0.597 -0.458695 0.10149 -0.249745 0.06169 -0.5349119999999999 -0.10547 -0.746051l-0.5850599999999999 0.464267Zm1.92234 -4.339394 0.04975 0.7446579999999999 -0.04975 -0.7446579999999999Zm1.8188600000000001 0.5583940000000001 -0.4577 0.58904c0.20895 0.16318000000000002 0.48954 0.202383 0.7363 0.102883 0.24676 -0.099301 0.42188 -0.32238 0.45969000000000004 -0.585657l-0.73829 -0.106266Zm0.9412699999999999 -1.714783 -0.48755 -0.565757 0.48755 0.565757Zm4.57899 1.752593 -0.7402799999999999 0.096316c0.03383 0.262879 0.20496999999999999 0.487948 0.44974000000000003 0.5910299999999999 0.24477 0.103281 0.52536 0.069053 0.73829 -0.089948l-0.44775 -0.5973980000000001Zm1.8327900000000001 -0.528146 -0.059699999999999996 0.743663 0.059699999999999996 -0.743663Zm1.72533 0.818686 -0.53929 0.517002 0.53929 -0.517002Zm0.74824 1.7549810000000001 -0.74625 0.030845 0.74625 -0.030845Zm-0.60098 1.811099 -0.57909 -0.47063499999999997c-0.17114 0.210542 -0.21492 0.497699 -0.11343 0.7494339999999999s0.33233 0.428646 0.60098 0.461879l0.09154 -0.740678Zm3.09047 2.597149c-0.01393 -0.824656 -0.32437 -1.616875 -0.8756 -2.230392l-1.1104200000000002 0.9975869999999999c0.31044 0.345663 0.48556 0.791821 0.49352 1.2560879999999999l1.4925 -0.023283Zm-0.87759 2.327106c0.57511 -0.636999 0.88754 -1.467028 0.87759 -2.324718l-1.4925 0.018507c0.0059700000000000005 0.48217699999999997 -0.16915000000000002 0.948832 -0.49352 1.306833l1.10843 0.999378Zm-2.2208400000000004 1.1122109999999998c0.85371 -0.078008 1.6477199999999999 -0.475212 2.2208400000000004 -1.1122109999999998l-1.10843 -0.999378c-0.32238 0.35819999999999996 -0.76814 0.581478 -1.24773 0.625258l0.13532 1.486331Zm1.21191 1.136887c0.06169 -0.833412 -0.18109 -1.661252 -0.68257 -2.328897l-1.194 0.897888c0.28656 0.3781 0.42386999999999997 0.8469439999999999 0.38805 1.319171l1.48852 0.11183799999999999Zm-1.02286 2.200542c0.5950099999999999 -0.5850599999999999 0.9591799999999999 -1.3671300000000002 1.02286 -2.200542l-1.48852 -0.11183799999999999c-0.03582 0.472028 -0.24278 0.9152009999999999 -0.57909 1.2465359999999999l1.04475 1.065844Zm-2.2208400000000004 0.978881c0.8338099999999999 -0.04577 1.62384 -0.393821 2.2208400000000004 -0.978881l-1.04475 -1.065844c-0.33830000000000005 0.331534 -0.78605 0.528544 -1.25967 0.554613l0.08358 1.490112Zm-2.31636 -0.729136c0.65869 0.516007 1.4805599999999999 0.775105 2.31636 0.729136l-0.08358 -1.490112c-0.47163 0.025869999999999997 -0.93729 -0.120793 -1.30942 -0.413124l-0.9233600000000001 1.1741Zm0.051739999999999994 1.6499089999999998c0.63083 -0.549041 1.04077 -1.309818 1.15022 -2.139051l-1.4805599999999999 -0.196015c-0.06169 0.468844 -0.29252999999999996 0.898684 -0.64874 1.209124l0.97908 1.125942Zm-0.01592 0.012934999999999999c0.0059700000000000005 -0.004378 0.00995 -0.008557 0.01592 -0.012934999999999999l-0.97908 -1.125942c-0.00398 0.002388 -0.0059700000000000005 0.004776 -0.00995 0.007163999999999999l0.97311 1.131713Zm0.46566 -0.727544c-0.1592 -0.164772 -0.33233 -0.31362399999999996 -0.5174 -0.445362l-0.86764 1.2142979999999999c0.11144 0.079998 0.21691 0.170344 0.31442 0.270441l1.0706200000000001 -1.039377Zm1.06067 2.333673c-0.07363 -0.8771920000000001 -0.44775 -1.7020469999999999 -1.06067 -2.333673l-1.0706200000000001 1.039377c0.37213 0.383473 0.59899 0.884157 0.6427700000000001 1.4166809999999999l1.48852 -0.122385Zm-0.66466 2.4755599999999998c0.50148 -0.7233649999999999 0.7363 -1.598368 0.66466 -2.4755599999999998l-1.48852 0.122385c0.04378 0.532524 -0.09751 1.0638539999999999 -0.40198 1.503047l1.22584 0.850128Zm-2.0855200000000003 1.49051c0.8477399999999999 -0.240392 1.5840400000000001 -0.767145 2.0855200000000003 -1.49051l-1.22584 -0.850128c-0.30447 0.439193 -0.75222 0.758986 -1.26564 0.905052l0.40596 1.435586Zm1.52434 -0.0035819999999999997c-0.32636000000000004 -0.558195 -0.79003 -1.024651 -1.34524 -1.355588l-0.7641600000000001 1.282754c0.34029000000000004 0.20198500000000003 0.62287 0.486555 0.82187 0.827442l1.28753 -0.754608Zm0.52536 1.837566c-0.01791 -0.646949 -0.19701000000000002 -1.279172 -0.52536 -1.837566l-1.28753 0.754608c0.20099 0.340887 0.31044 0.7267480000000001 0.32039 1.121564l1.4925 -0.038606Zm-0.32238 1.589811c0.22089 -0.497699 0.33034 -1.03679 0.32238 -1.580657l-1.4925 0.020298c0.00398 0.329942 -0.06169 0.656899 -0.19502 0.958782l1.36514 0.601577Zm-0.9492299999999999 1.304246c0.40795 -0.361583 0.73033 -0.806348 0.9492299999999999 -1.304246l-1.36514 -0.601577c-0.13333 0.301883 -0.32835000000000003 0.571528 -0.57511 0.7910250000000001l0.99102 1.114798Zm-1.4049399999999999 0.7916219999999999c0.51939 -0.159996 0.99898 -0.43003899999999995 1.4049399999999999 -0.7916219999999999l-0.99102 -1.114798c-0.24676 0.21929800000000002 -0.5373 0.383075 -0.85371 0.480187l0.43979 1.426233Zm-1.60792 0.13611600000000001c0.53929 0.070446 1.08853 0.024079 1.60792 -0.13611600000000001l-0.43979 -1.426233c-0.31442 0.097112 -0.64675 0.125171 -0.97311 0.082585l-0.19502 1.479764Zm1.0905200000000002 1.3629509999999998c0.16517 -0.82585 0.051739999999999994 -1.683142 -0.32636000000000004 -2.436556l-1.3333000000000002 0.667446c0.22686 0.45650599999999997 0.29651 0.9760949999999999 0.19701000000000002 1.476779l1.46265 0.292331Zm-1.2377799999999999 2.124126c0.63879 -0.550832 1.0746 -1.298077 1.2377799999999999 -2.124126l-1.46265 -0.292331c-0.0995 0.500485 -0.36417 0.953608 -0.75023 1.287331l0.9751 1.129126Zm-2.28054 0.91739c0.84177 -0.04378 1.64374 -0.366558 2.28054 -0.91739l-0.9751 -1.129126c-0.38606 0.333922 -0.87162 0.529539 -1.38305 0.556006l0.07761 1.49051Zm-2.36213 -0.675605c0.69053 0.481779 1.52235 0.7193849999999999 2.36213 0.675605l-0.07761 -1.49051c-0.50944 0.026666000000000002 -1.01291 -0.11740999999999999 -1.4327999999999999 -0.409343l-0.85172 1.224248Zm0.30845 1.788214c0.5552100000000001 -0.6758040000000001 0.85968 -1.522748 0.86366 -2.397751l-1.4925 -0.005174c-0.00199 0.530932 -0.18706 1.04475 -0.52337 1.45469l1.15221 0.9482349999999999Zm-2.18701 1.310216c0.85769 -0.171737 1.62981 -0.634611 2.18701 -1.310216l-1.15221 -0.9482349999999999c-0.33830000000000005 0.40993999999999997 -0.80595 0.690729 -1.3273300000000001 0.7950050000000001l0.29252999999999996 1.463446Zm-2.52133 -0.368349c0.77212 0.40993999999999997 1.66364 0.540086 2.52133 0.368349l-0.29252999999999996 -1.463446c-0.5213800000000001 0.104077 -1.06067 0.025074 -1.53031 -0.22347699999999998l-0.6984899999999999 1.318574Zm-1.72135 -1.88055c0.34029000000000004 0.806348 0.94724 1.470809 1.72135 1.88055l0.6984899999999999 -1.318574c-0.46963999999999995 -0.24875 -0.8377899999999999 -0.651725 -1.0427600000000001 -1.1410660000000001l-1.3770799999999999 0.57909Zm0.50148 1.255292c0.37013999999999997 -0.353424 0.66466 -0.776697 0.86963 -1.245342l-1.36514 -0.59899c-0.12736 0.288152 -0.30845 0.548444 -0.5373 0.765951l1.03281 1.078381Zm-1.28355 0.814905c0.47759999999999997 -0.184274 0.91341 -0.461282 1.28355 -0.8147059999999999l-1.03281 -1.07858c-0.22686 0.217308 -0.49551 0.387652 -0.7880400000000001 0.501082l0.5373 1.392204Zm-0.43183 -6.497548999999999c-0.16318000000000002 0.131141 -0.25472 0.30009199999999997 -0.30049 0.40098500000000004 -0.05572 0.118405 -0.0995 0.25093899999999997 -0.13532 0.387851 -0.07363 0.275416 -0.13333 0.634412 -0.17312999999999998 1.077983 -0.08159000000000001 0.890724 -0.09751 2.1909899999999998 0.02786 3.9865669999999995l1.48852 -0.10387800000000001c-0.12139 -1.744633 -0.10347999999999999 -2.959727 -0.029849999999999998 -3.745976 0.03582 -0.395015 0.08358 -0.665058 0.12935 -0.832417 0.02189 -0.084376 0.037809999999999996 -0.126564 0.04378 -0.1393 0.01393 -0.030248 -0.01393 0.051143 -0.11939999999999999 0.135519l-0.93132 -1.167334Zm0.31641 -3.695629c0.41591 -0.49113199999999996 0.75819 -0.550235 0.9352999999999999 -0.526952 0.18308 0.023880000000000002 0.40795 0.16278199999999998 0.5492400000000001 0.505659 0.27263000000000004 0.663864 0.16517 2.1493990000000003 -1.80095 3.7171209999999997l0.93132 1.166936c2.2725799999999996 -1.813288 2.8655999999999997 -3.956518 2.2487 -5.452401 -0.30447 -0.736698 -0.92137 -1.310614 -1.73329 -1.417278 -0.8198799999999999 -0.10746 -1.6258299999999999 0.284769 -2.2685999999999997 1.041367l1.13828 0.9655480000000001Zm-2.99694 0.028059c0.059699999999999996 0.248352 0.16318000000000002 0.5440659999999999 0.3781 0.778289 0.25074 0.27601299999999995 0.6049599999999999 0.409343 0.98903 0.356608 0.32636000000000004 -0.044974 0.61292 -0.215716 0.8477399999999999 -0.396607 0.24477 -0.189846 0.50347 -0.446357 0.7761 -0.7585879999999999l-1.12634 -0.98107c-0.23681 0.272829 -0.42386999999999997 0.450735 -0.56317 0.5583940000000001 -0.15123999999999999 0.116415 -0.18905 0.106465 -0.13731000000000002 0.099301 0.03582 -0.004975 0.09751 -0.004975 0.16915000000000002 0.021293 0.07363 0.026268 0.12139 0.066267 0.14526999999999998 0.094127 0.037809999999999996 0.039999 0.00995 0.032835 -0.025869999999999997 -0.116813l-1.4526999999999999 0.345066Zm-7.92219 1.3828509999999998c0.6925199999999999 -3.109972 1.54623 -4.941568 2.37606 -5.913484 0.40795 -0.477401 0.7880400000000001 -0.723166 1.1203699999999999 -0.833412 0.32437 -0.107858 0.65073 -0.102286 0.98704 0.005572 0.70844 0.226661 1.47061 0.9124150000000001 2.1253200000000003 1.9348770000000002 0.64476 1.003955 1.1183800000000002 2.23079 1.30345 3.370662l1.4726 -0.239198c-0.2189 -1.347628 -0.76814 -2.7662989999999996 -1.51837 -3.9372149999999997 -0.7402799999999999 -1.152608 -1.74324 -2.171488 -2.92729 -2.550583 -0.60894 -0.19502 -1.26166 -0.21750699999999998 -1.91438 -0.000199 -0.64675 0.21492 -1.24375 0.6475460000000001 -1.78304 1.280366 -1.06664 1.2485259999999998 -1.98602 3.364493 -2.69844 6.557846l1.45668 0.324768Zm-1.8845299999999998 -1.1804679999999999c0.07761 0.500485 0.25472 0.980274 0.5213800000000001 1.4109099999999999l1.26962 -0.785652c-0.16119 -0.26108800000000004 -0.26865 -0.551827 -0.31641 -0.8551030000000001l-1.47459 0.22984500000000002Zm0.06766 -1.503047c-0.12338 0.49152999999999997 -0.14526999999999998 1.002562 -0.06766 1.503047l1.47459 -0.22984500000000002c-0.047760000000000004 -0.303475 -0.03383 -0.613119 0.0398 -0.911022l-1.4467299999999998 -0.36218Zm0.64675 -1.357976c-0.30447 0.404766 -0.52337 0.866645 -0.64675 1.357976l1.4467299999999998 0.36218c0.07561999999999999 -0.297704 0.20895 -0.577697 0.39402000000000004 -0.823064l-1.194 -0.897092Zm1.12634 -0.99898c-0.4378 0.25452100000000005 -0.82187 0.5942139999999999 -1.12634 0.99898l1.194 0.897092c0.18308 -0.245367 0.41591 -0.451133 0.6805800000000001 -0.6053580000000001l-0.74824 -1.290714Zm-1.8904999999999998 -0.16735899999999998c0.48556 0.72834 1.20793 1.2672320000000001 2.0437299999999996 1.525733l0.44178 -1.426034c-0.50944 -0.15721 -0.94724 -0.48476400000000003 -1.24375 -0.927738l-1.24176 0.8280390000000001Zm-0.62287 -2.47357c-0.08358 0.87162 0.13731000000000002 1.745031 0.62287 2.47357l1.24176 -0.8280390000000001c-0.29452 -0.442974 -0.42984 -0.974304 -0.3781 -1.504241l-1.48653 -0.14129Zm1.07858 -2.3117829999999997c-0.61491 0.623865 -0.995 1.440362 -1.07858 2.3117829999999997l1.48653 0.14129c0.04975 -0.530136 0.28058999999999995 -1.0266410000000001 0.65471 -1.406134l-1.0626600000000002 -1.046939Zm2.29447 -1.113604c-0.87162 0.096316 -1.6815499999999999 0.48954 -2.29447 1.113604l1.0626600000000002 1.046939c0.37412 -0.37929399999999996 0.86565 -0.618492 1.39499 -0.6771969999999999l-0.16318000000000002 -1.4833459999999998Zm-1.45668 -1.033407c0.06567 0.848536 0.41391999999999995 1.650705 0.98704 2.278749l1.10246 -1.007338c-0.35024 -0.38188099999999997 -0.5611799999999999 -0.869829 -0.60098 -1.385836l-1.48852 0.114425Zm0.62884 -2.402726c-0.47163 0.708241 -0.6925199999999999 1.55419 -0.62884 2.402726l1.48852 -0.114425c-0.0398 -0.516007 0.09552000000000001 -1.0304220000000002 0.38208000000000003 -1.4612569999999998l-1.24176 -0.827044Zm1.97408 -1.5054349999999999c-0.8079400000000001 0.267058 -1.50245 0.796995 -1.97408 1.5054349999999999l1.24176 0.827044c0.28656 -0.430636 0.70844 -0.753016 1.19997 -0.9154l-0.46764999999999995 -1.417079Zm2.48352 0.03184c-0.8019700000000001 -0.287754 -1.6755799999999998 -0.298898 -2.48352 -0.03184l0.46764999999999995 1.417079c0.49152999999999997 -0.162384 1.02286 -0.155618 1.51041 0.019303l0.50546 -1.404542Zm-0.70446 -1.611502c-0.36815 0.7719210000000001 -0.46566 1.6455309999999999 -0.27661 2.47954l1.45668 -0.331534c-0.11542000000000001 -0.5060570000000001 -0.057710000000000004 -1.0361930000000001 0.16716 -1.50444l-1.3472300000000001 -0.6435660000000001Zm1.75518 -1.7722939999999998c-0.76814 0.37611 -1.38703 1.000572 -1.75518 1.7722939999999998l1.3472300000000001 0.6435660000000001c0.22288 -0.468247 0.59899 -0.8471430000000001 1.06465 -1.075197l-0.6567000000000001 -1.340663Zm2.4775500000000004 -0.299097c-0.8358 -0.182284 -1.70742 -0.07681400000000001 -2.4775500000000004 0.299097l0.6567000000000001 1.340663c0.46566 -0.22805399999999998 0.995 -0.292132 1.50245 -0.181488l0.3184 -1.458272Zm2.12731 1.30345c-0.54128 -0.661675 -1.29151 -1.121166 -2.12731 -1.30345l-0.3184 1.458272c0.50745 0.11064399999999999 0.96316 0.389244 1.29151 0.7908259999999999l1.1542 -0.945648Zm0.09552000000000001 -1.877764c-0.6984899999999999 0.547051 -1.19201 1.313997 -1.3989699999999998 2.1764629999999996l1.4526999999999999 0.348449c0.12736 -0.5349119999999999 0.43382 -1.010721 0.86565 -1.350016l-0.9193800000000001 -1.1748960000000002Zm2.4476999999999998 -0.836198c-0.88754 -0.005373 -1.74921 0.289346 -2.4476999999999998 0.836198l0.9193800000000001 1.1748960000000002c0.43382 -0.339096 0.9691299999999999 -0.5219769999999999 1.51837 -0.518594l0.00995 -1.4925Zm2.4377500000000003 0.8660479999999999c-0.6925199999999999 -0.555409 -1.55021 -0.860675 -2.4377500000000003 -0.8660479999999999l-0.00995 1.4925c0.55123 0.0033829999999999997 1.08256 0.192632 1.5124 0.5371009999999999l0.9352999999999999 -1.163553Zm0.92734 1.074799c-0.23879999999999998 -0.408746 -0.55322 -0.773712 -0.92734 -1.074799l-0.9352999999999999 1.163553c0.23283 0.186662 0.42586 0.413124 0.57511 0.6666500000000001l1.28753 -0.755404Zm-0.70844 -0.930723c-0.27462000000000003 0.30904699999999996 -0.48556 0.662272 -0.63083 1.040969l1.393 0.5349119999999999c0.08159000000000001 -0.214124 0.20099 -0.413721 0.35620999999999997 -0.588443l-1.1183800000000002 -0.9874379999999999Zm2.14522 -1.134897c-0.82983 0.104077 -1.592 0.507649 -2.14522 1.134897l1.1183800000000002 0.9874379999999999c0.31243 -0.35441900000000004 0.74426 -0.582672 1.2139 -0.641377l-0.18706 -1.480958Zm-1.22982 -1.112012c-0.04577 0.836596 0.21691 1.660854 0.73829 2.3167579999999997l1.1701199999999998 -0.928534c-0.29452 -0.37013999999999997 -0.44377 -0.835203 -0.4179 -1.307231l-1.49051 -0.080993Zm0.98505 -2.22283c-0.58904 0.595408 -0.9392799999999999 1.386433 -0.98505 2.22283l1.49051 0.080993c0.025869999999999997 -0.471829 0.22288 -0.918186 0.5572 -1.254098l-1.0626600000000002 -1.049725Zm2.21288 -1.008731c-0.8358 0.054327 -1.6218499999999998 0.413124 -2.21288 1.008731l1.0626600000000002 1.049725c0.33233 -0.336111 0.7761 -0.538494 1.24773 -0.56914l-0.09751 -1.4893159999999999Zm2.3243199999999997 0.713813c-0.66068 -0.514216 -1.48852 -0.76814 -2.3243199999999997 -0.713813l0.09751 1.4893159999999999c0.47163 -0.030646 0.93729 0.112634 1.31141 0.40277599999999997l0.9154 -1.1782789999999999Zm-0.00398 -1.691301c-0.64675 0.556802 -1.0706200000000001 1.329121 -1.19201 2.174075l1.47658 0.21273099999999998c0.06965 -0.487948 0.31442 -0.9339069999999999 0.6885399999999999 -1.255292l-0.97311 -1.131514Zm2.3283 -0.854506c-0.85371 -0.005770999999999999 -1.6815499999999999 0.297704 -2.3283 0.854506l0.97311 1.131514c0.37412 -0.321584 0.85172 -0.496903 1.34524 -0.49352l0.00995 -1.4925Zm2.31636 0.8863460000000001c-0.64078 -0.565558 -1.46265 -0.880376 -2.31636 -0.8863460000000001l-0.00995 1.4925c0.49152999999999997 0.0033829999999999997 0.96714 0.18526900000000002 1.33728 0.511828l0.98903 -1.117982Zm1.1621599999999999 2.190194c-0.10945 -0.846546 -0.52337 -1.624636 -1.1621599999999999 -2.190194l-0.98903 1.117982c0.36815 0.326559 0.60695 0.7759010000000001 0.6706300000000001 1.264844l1.4805599999999999 -0.192632Zm1.1542 -1.175692c-0.8358 -0.068257 -1.66961 0.171538 -2.3422300000000003 0.674411l0.8955 1.194995c0.38009 -0.284769 0.85172 -0.420487 1.32534 -0.38188099999999997l0.12139 -1.4875250000000002Zm2.20094 1.0455459999999999c-0.5810799999999999 -0.6053580000000001 -1.36514 -0.977289 -2.20094 -1.0455459999999999l-0.12139 1.4875250000000002c0.47362 0.038805 0.91739 0.24934699999999999 1.24574 0.592025l1.0765900000000002 -1.034004Zm0.95719 2.240939c-0.03582 -0.8385859999999999 -0.37611 -1.635581 -0.95719 -2.240939l-1.0765900000000002 1.034004c0.33034 0.342678 0.5213800000000001 0.79401 0.54128 1.268824l1.4925 -0.061889Zm-0.76814 2.312778c0.52934 -0.651526 0.8019700000000001 -1.473993 0.76814 -2.312778l-1.4925 0.061889c0.0199 0.47501299999999996 -0.13333 0.940673 -0.43382 1.309619l1.15818 0.9412699999999999Zm1.6357799999999998 -0.10387800000000001c-0.55123 -0.6133179999999999 -1.3054400000000002 -1.006741 -2.1233299999999997 -1.107435l-0.18308 1.481356c0.46168000000000003 0.056715 0.8855500000000001 0.278202 1.1959899999999999 0.623666l1.1104200000000002 -0.9975869999999999Z" stroke-width="2"></path><path id="Vector_22" stroke="#120071" stroke-linecap="round" stroke-linejoin="round" d="M252.89517 213.85734h-15.728959999999999" stroke-width="2"></path><path id="Vector_23" stroke="#120071" stroke-linecap="round" stroke-linejoin="round" d="M269.26491 213.85734H322.38c1.6536899999999999 -0.00199 3.23773 -0.66068 4.40785 -1.82881 1.16813 -1.1701199999999998 1.82682 -2.7541599999999997 1.82881 -4.40785V150.34251" stroke-width="2"></path><path id="Vector_24" stroke="#120071" stroke-linecap="round" stroke-linejoin="round" d="M328.62064 122.81882V119.3801c-0.00199 -1.6544860000000001 -0.65869 -3.2407150000000002 -1.82881 -4.410437 -1.1701199999999998 -1.169722 -2.7581399999999996 -1.827218 -4.41183 -1.8282129999999999h-7.77294" stroke-width="2"></path><path id="Vector_25" stroke="#120071" stroke-linecap="round" stroke-linejoin="round" d="M239.994 113.14144999999999h-34.029c-1.6536899999999999 0.001592 -3.2397199999999997 0.659287 -4.40984 1.829009 -1.1701199999999998 1.169523 -1.82682 2.755553 -1.82881 4.409641v15.991639999999999" stroke-width="2"></path><path id="Vector_26" stroke="#120071" stroke-linecap="round" stroke-linejoin="round" d="M288.35697 109.076875V104.48295999999999h-48.35501v13.19569h42.20392" stroke-width="2"></path><path id="Vector_27" stroke="#120071" stroke-linecap="round" stroke-linejoin="round" d="M268.20622999999995 100.097c0 0.792617 -0.23481999999999997 1.567523 -0.67461 2.226611 -0.44178 0.659088 -1.06664 1.1727070000000002 -1.7989600000000001 1.476182 -0.73232 0.303276 -1.53827 0.382677 -2.31636 0.22805399999999998 -0.7780900000000001 -0.154623 -1.49051 -0.536305 -2.05169 -1.096888 -0.5611799999999999 -0.560583 -0.94326 -1.274595 -1.0964900000000002 -2.052088 -0.15522 -0.777493 -0.07561999999999999 -1.5832439999999999 0.22686 -2.3155639999999997 0.30447 -0.7325189999999999 0.8178899999999999 -1.358374 1.47658 -1.798761 0.65869 -0.440387 1.43479 -0.675406 2.22681 -0.675406 1.0626600000000002 0.000398 2.08154 0.422875 2.83376 1.1744979999999998 0.75023 0.751424 1.1741 1.7705030000000002 1.1741 2.8333619999999997v0Z" stroke-width="2"></path><path id="Vector_28" stroke="#120071" stroke-linecap="round" stroke-linejoin="round" d="M315.95628 132.83847v-6.73018h-5.98194" stroke-width="2"></path><path id="Vector_29" stroke="#120071" stroke-linecap="round" stroke-linejoin="round" d="M244.04763 138.69902h-31.71861v-12.59073h31.71861v12.59073Z" stroke-width="2"></path><path id="Vector_30" stroke="#120071" stroke-linecap="round" stroke-linejoin="round" d="M220.22932 151.439h23.81831v10.5868h-15.689160000000001" stroke-width="2"></path><path id="Vector_31" stroke="#120071" stroke-linecap="round" stroke-linejoin="round" d="M212.32901999999999 180.62633V174.8414h2.1929800000000004" stroke-width="2"></path><path id="Vector_32" stroke="#120071" stroke-linecap="round" stroke-linejoin="round" d="M222.64916 185.39039h-4.764060000000001" stroke-width="2"></path><path id="Vector_33" stroke="#120071" stroke-linecap="round" stroke-linejoin="round" d="M238.67861 174.8414h5.36902v5.973979999999999" stroke-width="2"></path><path id="Vector_34" stroke="#120071" stroke-linecap="round" stroke-linejoin="round" d="M225.4471 197.22293h7.9779100000000005" stroke-width="2"></path><path id="Vector_35" stroke="#120071" stroke-linecap="round" stroke-linejoin="round" d="M237.46869 201.2686h-9.94204" stroke-width="2"></path><path id="Vector_36" stroke="#120071" stroke-linecap="round" stroke-linejoin="round" d="M260.68204000000003 197.22293h55.27424v4.00786h-47.52319" stroke-width="2"></path><path id="Vector_37" stroke="#120071" stroke-linecap="round" stroke-linejoin="round" d="M98.417639 103.91581000000001c-3.49046 1.143255 -6.481231 3.452849 -8.46944 6.54113 -1.4290189999999998 -0.03184 -2.826795 -0.425064 -4.062784 -1.143056 -1.2361879999999998 -0.717992 -2.270192 -1.737071 -3.006094 -2.962712 -0.735703 -1.225442 -1.149225 -2.617248 -1.20196 -4.045669999999999 -0.052735 -1.428422 0.257307 -2.847093 0.9008729999999999 -4.12328 0.6435660000000001 -1.276386 1.599761 -2.368896 2.779632 -3.17604 1.179871 -0.806945 2.544812 -1.302057 3.967662 -1.438969 1.42285 -0.137111 2.857043 0.088356 4.169249 0.655307s2.459441 1.456879 3.334842 2.587c0.783662 0.988035 1.333499 2.1404439999999996 1.608517 3.37106 0.275018 1.230815 0.268053 2.507599 -0.020497 3.73523Z" stroke-width="2"></path><path id="Vector_38" stroke="#120071" stroke-linecap="round" stroke-linejoin="round" d="M125.370199 151.0609c-11.60767 -9.154 -20.94475 -5.6715 -22.15467 -15.57573" stroke-width="2"></path><path id="Vector_39" stroke="#120071" stroke-linecap="round" stroke-linejoin="round" d="M113.312789 131.93699999999998c-2.971866 2.093878 -6.465311 3.3238969999999997 -10.09328 3.55414 0 0 -0.15123999999999999 -3.21385 -0.11343 -4.045669999999999 4.34616 4.423769999999999 7.219720000000001 -0.71839 7.48439 -11.26539 -2.703017 -0.219497 -5.34912 -0.897092 -7.82468 -2.00393 -0.49152999999999997 2.11736 -1.5124 5.026739999999999 -2.34422 3.36509 -1.6258299999999999 -3.2516599999999998 -4.179 -0.58307 -1.73926 2.26661 0.34825 0.40993999999999997 -0.22686 5.33121 -2.5710800000000003 9.71717 -2.027014 -1.177682 -3.842889 -2.685704 -5.373 -4.46158 -1.94821 -2.5165539999999997 -3.1063899999999998 -5.554289 -3.3280760000000003 -8.729135 -0.221686 -3.1746469999999998 0.5028729999999999 -6.343921 2.082336 -9.106836999999999 1.5794629999999998 -2.762916 3.942787 -4.995497 6.790875 -6.415163 2.848287 -1.419865 6.053579999999999 -1.963135 9.210715 -1.561354 3.156936 0.40198 6.124026 1.730902 8.525757 3.819009 2.401532 2.088107 4.1302449999999995 4.841471 4.96704 7.911842 0.8369939999999999 3.07057 0.7446579999999999 6.32024 -0.265466 9.338273999999998 -1.009925 3.0180339999999997 -2.8922660000000002 5.668714 -5.408621 7.616924v0Z" stroke-width="2"></path><path id="Vector_40" stroke="#120071" stroke-linecap="round" stroke-linejoin="round" d="M103.21931 135.48516999999998c-0.8041590000000001 -0.8551030000000001 -1.405139 -1.88055 -1.758563 -2.9997260000000003 -0.35362299999999997 -1.119375 -0.450337 -2.304022 -0.283177 -3.465784 0.569737 0.862068 1.2150940000000001 1.6719979999999999 1.92831 2.4198399999999998" stroke-width="2"></path><path id="Vector_41" stroke="#120071" stroke-linecap="round" stroke-linejoin="round" d="M87.71721 140.85419000000002c7.03266 3.51633 14.328 4.34616 20.3776 1.70145" stroke-width="2"></path><path id="Vector_42" stroke="#120071" stroke-linecap="round" stroke-linejoin="round" d="M115.467959 154.01008c3.44071 6.08741 0 20.7557 -0.71839 26.08691 0.56317 1.696873 1.324544 3.32131 2.2685999999999997 4.8396799999999995" stroke-width="2"></path><path id="Vector_43" stroke="#120071" stroke-linecap="round" stroke-linejoin="round" d="M81.48055 165.54213c-0.605756 -1.858859 -1.0361930000000001 -3.770254 -1.2855400000000001 -5.70931l-4.764060000000001 8.24059" stroke-width="2"></path><path id="Vector_44" stroke="#120071" stroke-linecap="round" stroke-linejoin="round" d="M84.2765 184.93667000000002c1.3910099999999999 -1.479167 2.620432 -3.102211 3.66757 -4.84167 -2.652073 -4.615009000000001 -4.817989 -9.492698 -6.463520000000001 -14.55486 -5.776770999999999 2.639934 -11.824381 4.641675 -18.03537 5.97 -3.53225 0.785254 -7.225689999999999 0.367155 -10.493071 -1.187632 -3.267381 -1.554787 -5.921444 -4.15711 -7.540309 -7.393248l-15.57573 -31.22509c2.119947 -2.5338670000000003 4.7676419999999995 -4.574214 7.758014999999999 -5.978358s6.251386 -2.138056 9.554985 -2.150792l13.68722 27.63712c10.366109 -2.97107 20.399290999999998 -6.999427 29.94154 -12.021590000000002 2.277953 -1.336285 4.11731 -3.306982 5.2934 -5.6715" stroke-width="2"></path><path id="Vector_45" stroke="#120071" stroke-linecap="round" stroke-linejoin="round" d="M178.244499 113.14144999999999h-33.5514" stroke-width="2"></path><path id="Vector_46" stroke="#120071" stroke-linecap="round" stroke-linejoin="round" d="M88.30625 113.14144999999999H62.310880000000004c-1.653889 0.00199 -3.2391229999999998 0.660083 -4.408447 1.829606 -1.169125 1.169722 -1.826621 2.7551550000000002 -1.8282129999999999 4.409044v22.041240000000002" stroke-width="2"></path><path id="Vector_47" stroke="#120071" stroke-linecap="round" stroke-linejoin="round" d="M124.958269 117.67864999999999H119.4m7.524389 0h17.768710000000002v-13.19569H110.445" stroke-width="2"></path><path id="Vector_48" stroke="#120071" stroke-linecap="round" stroke-linejoin="round" d="M124.54216000000001 100.097c0 0.792617 -0.235019 1.567523 -0.675406 2.226611 -0.440387 0.659088 -1.0662420000000001 1.1727070000000002 -1.798562 1.476182 -0.7325189999999999 0.303276 -1.53827 0.382677 -2.315763 0.22805399999999998 -0.777493 -0.154623 -1.491505 -0.536305 -2.052088 -1.096888 -0.560384 -0.560583 -0.9422649999999999 -1.274595 -1.096888 -2.052088 -0.154623 -0.777493 -0.075222 -1.5832439999999999 0.22805399999999998 -2.3155639999999997 0.303475 -0.7325189999999999 0.817094 -1.358374 1.476182 -1.798761 0.659088 -0.440387 1.433994 -0.675406 2.226611 -0.675406 1.062859 0.000398 2.081938 0.422875 2.833561 1.1744979999999998 0.751424 0.751424 1.1739009999999999 1.7705030000000002 1.174299 2.8333619999999997v0Z" stroke-width="2"></path><path id="Vector_49" stroke="#120071" stroke-linecap="round" stroke-linejoin="round" d="M127.98107900000001 157.41298v27.52369h-59.28011v-14.67028" stroke-width="2"></path><path id="Vector_50" stroke="#120071" stroke-linecap="round" stroke-linejoin="round" d="M68.700969 148.64106V125.65457H88.55499999999999" stroke-width="2"></path><path id="Vector_51" stroke="#120071" stroke-linecap="round" stroke-linejoin="round" d="M172.36584 137.71596H140.64723v-12.06139h31.71861v12.06139Z" stroke-width="2"></path><path id="Vector_52" stroke="#120071" stroke-linecap="round" stroke-linejoin="round" d="M172.366039 201.2686h-103.66507v-4.045669999999999h103.66507v4.045669999999999Z" stroke-width="2"></path><path id="Vector_53" stroke="#120071" stroke-linecap="round" stroke-linejoin="round" d="M172.36584 166.14709v18.78958H140.64723v-4.87749" stroke-width="2"></path><path id="Vector_54" stroke="#120071" stroke-linecap="round" stroke-linejoin="round" d="M144.54166 147.65800000000002h16.67222" stroke-width="2"></path><path id="Vector_55" stroke="#120071" stroke-linecap="round" stroke-linejoin="round" d="M368.58183 353.36429999999996H29.382350000000002" stroke-width="2"></path><path id="Vector_56" stroke="#120071" stroke-linecap="round" stroke-linejoin="round" d="M198.150469 134.99364c-3.66757 3.47852 -9.154 3.0248 -15.61354 0.3781 2.15517 -0.5671499999999999 1.592 -6.20084 1.8526900000000002 -8.62068 -2.87356 2.6088899999999997 -5.8227400000000005 4.6506300000000005 -6.84361 3.0248 -0.9452499999999999 -1.70145 -1.02087 -5.40683 0.49152999999999997 -15.42449 0.944454 0.501679 1.931295 0.9191809999999999 2.94918 1.24773 -0.3781 3.85662 0.95321 4.087459999999999 1.73926 2.7223200000000003 1.4526999999999999 -2.5253099999999997 4.31034 -0.45372 1.5124 3.4029 1.43678 1.4726 7.363 7.761 8.3182 8.80774 1.496281 1.897863 3.410661 3.4247900000000002 5.59389 4.46158v0Z" stroke-width="2"></path><path id="Vector_57" stroke="#120071" stroke-linecap="round" stroke-linejoin="round" d="M198.15026999999998 134.99364c5.701350000000001 1.392602 10.889280000000001 4.37601 14.96082 8.602770000000001 11.17385 10.57088 19.59951 28.14258 43.6407 49.61866 -1.1701199999999998 3.104002 -3.0049 5.91428 -5.37698 8.232629999999999 -2.37208 2.32034 -5.22375 4.09144 -8.35402 5.18992 -13.98771 -13.30912 -23.667070000000002 -23.7805 -33.83 -39.73632" stroke-width="2"></path><path id="Vector_58" stroke="#120071" stroke-linecap="round" stroke-linejoin="round" d="M184.38942 126.75106000000001c-0.11343 1.0964900000000002 -0.11343 2.5710800000000003 -0.15123999999999999 4.00786 -2.2685999999999997 0.22686 -5.63369 0.34029000000000004 -6.35208 -0.49152999999999997l-0.34029000000000004 -0.45372c1.02087 1.6258299999999999 3.97005 -0.41591 6.84361 -3.06261Z" stroke-width="2"></path><path id="Vector_59" stroke="#120071" stroke-linecap="round" stroke-linejoin="round" d="M148.776579 155.817v9.37688c1.1283299999999998 -1.6556799999999998 2.189 -3.19793 3.19793 -4.6287400000000005" stroke-width="2"></path><path id="Vector_60" stroke="#120071" stroke-linecap="round" stroke-linejoin="round" d="M174.483399 163.00886c-4.174423 6.767791 -9.189422 12.979576 -14.925 18.487099999999998 -5.7113000000000005 5.40285 -15.65931 3.55812 -20.11293 -2.9113700000000002 -6.255167 -9.470012 -11.309368999999998 -19.680702 -15.04639 -30.39725 4.973408 -4.163677 11.175839999999999 -6.580532 17.65528 -6.879429999999999 2.327305 6.882017 5.673888 13.376183000000001 9.92811 19.265189999999997 3.9004 -5.645630000000001 6.8157499999999995 -9.810699999999999 9.20176 -12.9151 5.33121 -7.03067 7.934130000000001 -8.79182 12.96684 -10.20671 2.45566 -0.69053 5.70931 -1.393 8.358 -2.07955" stroke-width="2"></path><path id="Vector_61" stroke="#120071" stroke-linecap="round" stroke-linejoin="round" d="M204.3133 219.79351s5.10435 -9.4525 5.444640000000001 -13.42056l-0.52934 17.54185" stroke-width="2"></path><path id="Vector_62" stroke="#120071" stroke-linecap="round" stroke-linejoin="round" d="M173.38671000000002 157.75327s4.577 21.81438 6.73018 25.14166c-6.4277 41.62483 -14.36581 125.85754999999999 -15.87821 140.63927 8.574313 3.6655800000000003 18.125716 4.3720300000000005 27.14559 2.00393 0 0 11.144 -86.08541 12.935 -105.74462l27.97741 23.667070000000002c2.3800399999999997 2.03776 5.18196 3.5223 8.202779999999999 4.34815l40.90644 11.303199999999999" stroke-width="2"></path><path id="Vector_63" stroke="#120071" stroke-linecap="round" stroke-linejoin="round" d="M302.91382 236.46573c-7.164 -0.398 -13.133999999999999 36.200089999999996 -7.68737 43.875519999999995 0.2189 0.36616 0.5174 0.6805800000000001 0.87361 0.91739s0.76217 0.39004 1.18405 0.44974000000000003c0.42386999999999997 0.059699999999999996 0.8557 0.025869999999999997 1.26365 -0.10347999999999999 0.40795 -0.12736 0.78207 -0.34625999999999996 1.0945 -0.6368 7.64558 -6.00383 12.13701 -44.01681 3.2715599999999996 -44.50237Z" stroke-width="2"></path><path id="Vector_64" stroke="#120071" stroke-linecap="round" stroke-linejoin="round" d="m168.473599 325.19784 -0.597 5.06654c-0.27899799999999997 2.4656100000000003 -1.1965869999999998 4.815799999999999 -2.66262 6.817740000000001 -1.465834 2.00393 -3.429168 3.58797 -5.69538 4.59889 -5.932787 2.65665 -11.529463 6.00582 -16.67222 9.98184 -0.154822 0.12338 -0.267257 0.29252999999999996 -0.321982 0.48357 -0.054526 0.18905 -0.048755 0.39203 0.016915 0.57909 0.065471 0.18706 0.187458 0.34825 0.349046 0.46367 0.161787 0.11343 0.354817 0.17512 0.553021 0.17512 16.89908 0 31.07584 -0.15123999999999999 44.576 -0.18905 0.147459 -4.47153 -0.5319269999999999 -8.93112 -2.00393 -13.15589 -0.185667 -0.57312 -0.237407 -1.18007 -0.15123999999999999 -1.77707 0.32835000000000003 -2.53526 1.05868 -9.490310000000001 1.2855400000000001 -11.91015" stroke-width="2"></path><path id="Vector_65" stroke="#120071" stroke-linecap="round" stroke-linejoin="round" d="M291.94892 234.38618c-0.8278399999999999 -2.71834 -2.73227 -4.2267600000000005 -5.27549 -2.90739 -5.34912 2.77207 -10.64252 17.04236 -7.87841 24.65212 1.26962 3.49245 4.045669999999999 4.4277500000000005 7.4067799999999995 0.82585" stroke-width="2"></path><path id="Vector_66" stroke="#120071" stroke-linecap="round" stroke-linejoin="round" d="M285.10531000000003 232.64692c5.84264 1.6218499999999998 11.77483 2.89744 17.768710000000002 3.81881" stroke-width="2"></path><path id="Vector_67" stroke="#120071" stroke-linecap="round" stroke-linejoin="round" d="M278.25772 254.0036c2.5412299999999997 0.39999 5.00485 1.19201 7.30131 2.3482 2.4098900000000003 2.00791 3.12828 4.975 4.045669999999999 8.158999999999999 1.89249 6.5869 2.29049 15.0245 6.672470000000001 16.82744" stroke-width="2"></path><path id="Vector_68" stroke="#120071" stroke-linecap="round" stroke-linejoin="round" d="M121.47955 126.86448999999999c1.253103 0.061093 2.479341 0.384667 3.599313 0.9500259999999999 1.119972 0.56516 2.108803 1.359568 2.902017 2.331484" stroke-width="2"></path><path id="Vector_69" stroke="#120071" stroke-linecap="round" stroke-linejoin="round" d="M129.947199 128.07441c-0.629238 -0.699286 -1.3392700000000002 -1.321161 -2.11537 -1.8526900000000002" stroke-width="2"></path><path id="Vector_70" stroke="#120071" stroke-linecap="round" stroke-linejoin="round" d="M121.02583 133.89714999999998c0.9997759999999999 1.356981 1.8371680000000001 2.8263969999999996 2.49546 4.378" stroke-width="2"></path><path id="Vector_71" stroke="#120071" stroke-linecap="round" stroke-linejoin="round" d="M119.81591 130.11615c1.47459 -0.45372 4.00786 0.34029000000000004 6.389889999999999 2.83575" stroke-width="2"></path><path id="Vector_72" stroke="#120071" stroke-linecap="round" stroke-linejoin="round" d="M125.78989 147.09085000000002c-0.233626 -3.0462919999999998 -1.0015669999999999 -6.02771 -2.2685999999999997 -8.80774 -4.00786 -0.49152999999999997 -5.81876 -5.53817 -4.764060000000001 -7.363 0.234223 -0.394617 0.614711 -0.680779 1.05868 -0.796 -0.292132 -0.7649560000000001 -0.318798 -1.6061290000000001 -0.07561999999999999 -2.388 0.188851 -0.286759 0.447551 -0.520584 0.752021 -0.6793859999999999 0.304271 -0.158802 0.6441629999999999 -0.237208 0.987239 -0.22805399999999998 -0.0029850000000000002 -0.40198 0.074227 -0.800378 0.22686 -1.17211 0.6188899999999999 -1.27758 3.4029 -1.24773 6.12522 0.5671499999999999 -3.9322399999999997 -7.40877 -3.07057 -12.58476 -2.34422 -11.03853 2.464018 4.5929199999999994 5.177184 9.047933 8.12716 13.344940000000001 0.11343 -1.1342999999999999 0.4179 -3.09246 1.24773 -3.2516599999999998 0.94724 -0.17909999999999998 3.74319 11.191759999999999 4.9153 16.144869999999997" stroke-width="2"></path><path id="Vector_73" stroke="#120071" stroke-linecap="round" stroke-linejoin="round" d="M269.26491 211.62655c-1.5820500000000002 -0.60297 -3.1243000000000003 -1.30942 -4.61282 -2.11537 1.68553 1.73329 3.4645900000000003 3.37504 5.33121 4.91331 2.46959 1.64374 1.25171 3.20589 -1.81488 1.81488 -1.90841 -0.93729 -3.7531399999999997 -2.00194 -5.52026 -3.184 1.43678 1.70145 2.7263 3.3232999999999997 3.32728 3.85662 2.20492 1.9521899999999999 0.80595 3.34519 -2.00393 1.592 -1.6477199999999999 -1.08654 -3.22579 -2.2725799999999996 -4.72625 -3.55414 0.44178 0.8994800000000001 0.96117 1.75916 1.55021 2.5710800000000003 1.94821 2.13726 0.7163999999999999 2.985 -1.92831 1.0964900000000002 -5.09241 -3.8665700000000003 -9.91617 -8.07144 -14.441429999999999 -12.58874 5.221760000000001 -2.2288 9.43658 -6.310289999999999 11.83453 -11.45643 2.11537 1.657471 4.54715 2.866595 7.1441 3.55414 7.90229 2.00194 7.03266 4.27253 -2.45765 3.74319 2.94918 2.97306 6.25059 5.57598 9.8306 7.74906 2.46362 1.6198599999999999 1.66961 3.1641000000000004 -1.5124 2.00791Z" stroke-width="2"></path><path id="Vector_74" stroke="#120071" stroke-linecap="round" stroke-linejoin="round" d="M261.06014 207.358c0.86963 0.5671499999999999 2.11736 1.3611600000000001 3.5919499999999998 2.15517" stroke-width="2"></path><path id="Vector_75" stroke="#120071" stroke-linecap="round" stroke-linejoin="round" d="M260.9089 201.87356c-0.5671499999999999 -0.597 -1.17211 -1.2099199999999999 -1.73926 -1.8904999999999998" stroke-width="2"></path><path id="Vector_76" stroke="#120071" stroke-linecap="round" stroke-linejoin="round" d="M258.11295 209.96291c0.82983 0.597 2.5690899999999997 1.81488 4.53521 3.06261" stroke-width="2"></path><path id="Vector_77" stroke="#120071" stroke-linecap="round" stroke-linejoin="round" d="M255.914 211.96684000000002c0.6805800000000001 0.6805800000000001 1.92831 1.77707 3.28748 2.94918" stroke-width="2"></path><path id="Vector_78" stroke="#120071" stroke-linecap="round" stroke-linejoin="round" d="M178.03753899999998 114.35137c0.26467 -1.5124 0.56914 -3.51633 1.02087 -5.40683 0.72237 -3.0228099999999998 3.5919499999999998 -3.06261 3.4029 -1.3611600000000001 1.81488 -3.28947 4.68844 -2.07955 4.19691 -0.6427700000000001 1.66364 -2.94918 4.8396799999999995 -1.73926 4.08348 -0.22686 1.8526900000000002 -2.5710800000000003 4.83769 -1.47459 4.1193 0.18905 1.8904999999999998 -2.49546 5.141960999999999 -1.2855400000000001 3.06261 2.11736 -2.43377 3.98 -9.798760000000001 15.38071 -5.731199999999999 21.129820000000002" stroke-width="2"></path><path id="Vector_79" stroke="#120071" stroke-linecap="round" stroke-linejoin="round" d="m347.29679 143.61432000000002 24.38546 20.79351 -24.38546 20.7557" stroke-width="2"></path><path id="Vector_80" stroke="#120071" stroke-linecap="round" stroke-linejoin="round" d="M35.16728 144.33271 12.4455197 163.72725 36.79311 184.48295" stroke-width="2"></path><path id="Vector_81" stroke="#120071" stroke-linecap="round" stroke-linejoin="round" d="M174.180919 137.45129s8.091339999999999 29.828110000000002 0.34228 25.52971" stroke-width="2"></path><path id="Vector_82" stroke="#120071" stroke-linecap="round" stroke-linejoin="round" d="M205.567 137.90699999999998c3.1243000000000003 3.07057 4.34815 13.42056 3.98 19.9995 -0.5174 7.114051 -0.44178 14.259146 0.22686 21.36066 8.379890000000001 3.7710500000000002 13.03649 12.425559999999999 16.5966 19.73483 4.764060000000001 9.868409999999999 16.716 20.79948 16.716 20.79948l46.04263 11.29922" stroke-width="2"></path><path id="Vector_83" stroke="#120071" stroke-linecap="round" stroke-linejoin="round" d="M179.020599 136.24137c1.359369 3.882689 2.371483 7.87841 3.0248 11.94l21.292800999999997 -0.5671499999999999c-0.74227 -4.0765150000000006 -1.77906 -8.094325 -3.10042 -12.021590000000002" stroke-width="2"></path><path id="Vector_84" stroke="#120071" stroke-linecap="round" stroke-linejoin="round" d="m45.67647 224.33071 -8.54307 8.54307" stroke-width="2"></path><path id="Vector_85" stroke="#120071" stroke-linecap="round" stroke-linejoin="round" d="M56.074220000000004 171.58974v36.03094c0.00199 1.6536899999999999 0.659884 3.23773 1.829009 4.40785 1.169125 1.16813 2.7541599999999997 1.82682 4.407651 1.82881H175.916" stroke-width="2"></path><path id="Vector_86" stroke="#120071" stroke-linecap="round" stroke-linejoin="round" d="M66.88588999999999 203.12129c2.097062 2.09746 3.5252850000000002 4.770029999999999 4.103777999999999 7.67941 0.578493 2.90739 0.281585 5.92423 -0.853511 8.66446 -1.135096 2.74023 -3.057237 5.08047 -5.523444 6.73018 -2.4662070000000003 1.6477199999999999 -5.3656369999999995 2.5273 -8.331533 2.5273 -2.9660949999999997 0 -5.865525 -0.87958 -8.331533 -2.5273 -2.4662070000000003 -1.64971 -4.388348 -3.98995 -5.523444 -6.73018 -1.135096 -2.74023 -1.4322030000000001 -5.75707 -0.85371 -8.66446 0.578493 -2.90938 2.006716 -5.58195 4.103977 -7.67941 2.8142579999999997 -2.8098799999999997 6.628292 -4.387154 10.604709999999999 -4.387154 3.976418 0 7.790452 1.5772739999999998 10.604709999999999 4.387154v0Z" stroke-width="2"></path><path id="Vector_87" stroke="#120071" stroke-linecap="round" stroke-linejoin="round" d="M164.69240000000002 52.802659999999996h-16.33193" stroke-width="2"></path><path id="Vector_88" stroke="#120071" stroke-linecap="round" stroke-linejoin="round" d="M156.54533999999998 60.96763V44.6357" stroke-width="2"></path><path id="Vector_89" stroke="#120071" stroke-linecap="round" stroke-linejoin="round" d="M244.72821 286.21971c0.08159000000000001 0.9352999999999999 -0.11542000000000001 1.87259 -0.56516 2.69645 -0.45173 0.82187 -1.1362899999999998 1.4925 -1.96811 1.92632 -0.83182 0.43382 -1.77309 0.61093 -2.7064000000000004 0.50944 -0.93331 -0.10149 -1.81488 -0.47759999999999997 -2.53327 -1.08057 -0.72038 -0.60297 -1.24375 -1.4049399999999999 -1.50643 -2.30641 -0.26268 -0.8994800000000001 -0.25273 -1.8586600000000002 0.02786 -2.7541599999999997 0.28258 -0.8955 0.82187 -1.68553 1.55419 -2.27457 0.73232 -0.58705 1.6198599999999999 -0.9452499999999999 2.55516 -1.02684 1.2537 -0.10945 2.49944 0.28258 3.4626 1.0905200000000002 0.96515 0.8079400000000001 1.56812 1.9661199999999999 1.67956 3.2198200000000003v0Z" stroke-width="2"></path><path id="Vector_90" stroke="#120071" stroke-linecap="round" stroke-linejoin="round" d="M384.23517 96.96076c-1.66563 1.171314 -3.45265 2.1599459999999997 -5.33121 2.94918 0.30247999999999997 -0.22686 2.45765 -2.83575 4.99092 -6.0117899999999995 3.0248 -3.7809999999999997 2.189 -5.48245 -2.00393 -1.66364 -1.48653 1.3715080000000002 -3.08052 2.623218 -4.764060000000001 3.74319 0.18905 -0.26467 2.985 -4.6506300000000005 4.87749 -8.24258 2.11736 -4.08348 0.597 -5.06654 -2.49546 -1.1342999999999999 -0.16318000000000002 0.199 -5.58593 6.640630000000001 -7.14609 8.358l1.13032 -1.28355c0.31044 -2.1189519999999997 0.92137 -4.182383000000001 1.8188600000000001 -6.127210000000001 1.70145 -3.98 0.27064 -5.12823 -2.45765 -0.86963 -0.14726 0.22885 -4.105370000000001 6.62869 -4.8396799999999995 7.48638 -0.597 0.69053 -1.66364 1.81488 -2.30442 1.592 -2.34422 -0.86963 -5.10435 -6.46551 -7.10828 -5.48245 -1.2855400000000001 0.597 0.86963 4.23472 2.11736 6.84361 0.92734 1.9521899999999999 -0.8099299999999999 4.32427 -2.68451 5.85856 4.36606 3.140419 7.71722 7.491156 9.639560000000001 12.51511 7.90229 -6.616750000000001 9.90622 -8.955 15.955820000000001 -14.48123 0.6805800000000001 -0.64078 1.47459 -1.393 2.34422 -2.30442 3.2516599999999998 -3.4088700000000003 2.6467 -4.80784 -1.73926 -1.74523Z" stroke-width="2"></path><path id="Vector_91" stroke="#120071" stroke-linecap="round" stroke-linejoin="round" d="m317.09058000000005 159.41691 -6.0117899999999995 1.02087c-0.18905 0.90744 -0.52934 2.6088899999999997 -0.86963 4.378" stroke-width="2"></path><path id="Vector_92" stroke="#120071" stroke-linecap="round" stroke-linejoin="round" d="M298.22538 141.83725c1.6258299999999999 0.6805800000000001 3.89045 0.52337 6.992859999999999 -1.0964900000000002 3.85264 -2.0118899999999997 49.4515 -38.148300000000006 49.4515 -38.148300000000006 4.045669999999999 -3.06062 16.82346 14.328 12.62655 17.3926l-57.08713 44.83868c-1.24375 6.657346 -1.86264 13.416182 -1.8526900000000002 20.18855" stroke-width="2"></path><path id="Vector_93" stroke="#120071" stroke-linecap="round" stroke-linejoin="round" d="M285.8237 144.673c1.0905200000000002 -1.0149 1.8964699999999999 -2.295664 2.3422300000000003 -3.7165239999999997 0.44576 -1.42086 0.51541 -2.9332599999999998 0.20099 -4.388746 -2.39994 0.7124199999999999 -8.1789 1.4805599999999999 -5.227729999999999 -10.75993 2.786 -11.43852 8.23462 -5.03669 9.10823 -0.61292 0.18506999999999998 0.9452499999999999 0.5572 1.3333000000000002 1.74324 -0.06766 2.1133800000000003 -2.4974499999999997 4.95709 1.393 0.71839 4.764060000000001 -0.597 0.48158 -1.33728 9.872390000000001 3.47852 11.94 -5.40683 10.59078 -9.565930000000002 11.573839999999999 -12.36387 2.84172Z" stroke-width="2"></path><path id="Vector_94" stroke="#120071" stroke-linecap="round" stroke-linejoin="round" d="M288.36692 136.56574c0.5810799999999999 -0.18308 1.3392700000000002 -0.50944 1.8049300000000001 -0.66466L288.55 138.05625" stroke-width="2"></path><path id="Vector_95" stroke="#120071" stroke-linecap="round" stroke-linejoin="round" d="M256.67617 171.47630999999998c8.6565 -13.42056 16.407549999999997 -21.547719999999998 25.59339 -24.763560000000002 1.30942 -0.433223 2.51934 -1.127136 3.55414 -2.0397499999999997" stroke-width="2"></path><path id="Vector_96" stroke="#120071" stroke-linecap="round" stroke-linejoin="round" d="M276.63786000000005 156.88363999999999c-2.189 4.68844 -4.4277500000000005 6.69237 0.90744 22.45715 0.796 2.34422 1.02087 3.06261 2.15517 6.0496" stroke-width="2"></path><path id="Vector_97" stroke="#120071" stroke-linecap="round" stroke-linejoin="round" d="M289.79375 150.49375c-2.2685999999999997 9.868409999999999 -1.70145 21.43628 0.9830599999999999 34.21606" stroke-width="2"></path><path id="Vector_98" stroke="#120071" stroke-linecap="round" stroke-linejoin="round" d="M370.39671 93.86034c3.23574 1.730106 5.765029999999999 4.538593 7.14609 7.93811" stroke-width="2"></path><path id="Vector_99" stroke="#120071" stroke-linecap="round" stroke-linejoin="round" d="M369.52708 96.96076c2.07955 3.66757 2.189 7.10629 -0.597 9.979849999999999" stroke-width="2"></path><path id="Vector_100" stroke="#120071" stroke-linecap="round" stroke-linejoin="round" d="M275.91947 174.23644c-2.5014299999999996 4.059202 -5.52822 7.771149 -8.99878 11.04052" stroke-width="2"></path><path id="Vector_101" stroke="#120071" stroke-linecap="round" stroke-linejoin="round" d="M32.311829 129.22463c-1.42882 -3.5024 -3.090868 -6.904902000000001 -4.975 -10.18482 -1.962936 -2.9748509999999997 -4.245068 -5.726026 -6.8058 -8.20477 -3.7810597 -3.6377200000000003 -3.4387797 -5.06654 1.55021 -2.34422 1.8248300000000002 0.995 18.799529999999997 12.546949999999999 21.51389 15.39066" stroke-width="2"></path><path id="Vector_102" stroke="#120071" stroke-linecap="round" stroke-linejoin="round" d="M34.52451 116.96026c2.53327 1.5124 0.90346 -3.7809999999999997 0.83182 -5.8227400000000005 -0.0796 -2.23079 0.6706300000000001 -4.6844600000000005 2.6467 1.2099199999999999 1.4451379999999998 4.026367 3.3073799999999998 7.890747999999999 5.55608 11.530059999999999" stroke-width="2"></path><path id="Vector_103" stroke="#120071" stroke-linecap="round" stroke-linejoin="round" d="M21.293199 111.59124c-1.335091 -0.995199 -2.723514 -1.916569 -4.1591398 -2.76013 -5.373 -3.00888 -5.55807 -1.1342999999999999 -3.4029 0.49152999999999997 1.8526900000000002 1.393 4.95311 3.582 6.5013698 5.06654 2.4974499999999997 2.388 8.734110000000001 7.10828 9.90622 9.86642" stroke-width="2"></path><path id="Vector_104" stroke="#120071" stroke-linecap="round" stroke-linejoin="round" d="M13.4285797 109.09578c-3.51633 -0.9830599999999999 -3.7809999999999997 0.03184 -3.28947 0.34029000000000004 1.94224 1.22584 5.32126 2.8496799999999998 7.1838999999999995 3.9322399999999997 1.05271 0.61292 5.2535403 3.2516599999999998 6.2744102999999996 4.00786" stroke-width="2"></path><path id="Vector_105" stroke="#120071" stroke-linecap="round" stroke-linejoin="round" d="m116.866929 165.20184 11.076141 6.879429999999999" stroke-width="2"></path><path id="Vector_106" stroke="#120071" stroke-linecap="round" stroke-linejoin="round" d="M282.95014000000003 126.10829000000001h-26.27397v59.2821h59.28011V160.43778" stroke-width="2"></path><path id="Vector_107" stroke="#120071" stroke-linecap="round" stroke-linejoin="round" d="M133.614769 128.52813c0.7585879999999999 1.411507 1.3790699999999998 2.892863 1.8526900000000002 4.423769999999999" stroke-width="2"></path><path id="Vector_108" stroke="#120071" stroke-dasharray="2.97 4.94" stroke-linecap="round" stroke-linejoin="round" d="m177.20552 162.51733000000002 6.16303 20.3776 -14.895150000000001 142.18948" stroke-width="2"></path><path id="Vector_109" stroke="#120071" stroke-dasharray="2.97 4.94" stroke-linecap="round" stroke-linejoin="round" d="m207.67839 212.87428 30.69774 26.57844 39.698510000000006 11.38081" stroke-width="2"></path></g></g></svg>