<svg xmlns="http://www.w3.org/2000/svg" fill="none" viewBox="-1 -1 400 400" id="Ab-Testing--Streamline-Bangalore" height="400" width="400"><desc>Ab Testing Streamline Illustration: https://streamlinehq.com</desc><g id="Marketing-A-B-testing-01"><g id="color 2"><path id="Vector" fill="#fecfc4" d="M192.83100000000002 203.87749c-11.15395 7.59981 -18.94281 20.22835 -24.278 32.74346 -6.52123 15.25733 -70.45794 99.4602 -68.854 100.76365 0.597 0.9691299999999999 1.2238499999999999 1.90244 1.88055 2.7999300000000003l-3.582 3.96806c4.1591 6.0496 14.14094 13.08226 20.98455 14.55685 0.8955 -1.65767 1.91438 -3.24768 3.0447 -4.7561a42.227799999999995 42.227799999999995 0 0 0 4.975 0.93729c9.82662 -12.07532 35.51951 -44.178 58.402519999999996 -74.55336 -4.577 24.043180000000003 -10.053479999999999 49.25051 -15.721 79.35523 1.1741 0.56914 2.37407 1.08256 3.582 1.56016l-2.00194 9.064449999999999a43.12728 43.12728 0 0 0 23.59344 0l1.49847 -5.54613c1.6318 -0.0995 3.26559 -0.25671 4.89142 -0.46566 15.84239 -47.943079999999995 28.058999999999997 -110.70768 35.23891999999999 -158.76419l-43.654630000000004 -1.66364Zm-16.03144 77.809c-6.73018 -1.55021 -16.06925 -8.158999999999999 -20.26616 -13.38474l17.5916 -26.34959a46.565999999999995 46.565999999999995 0 0 0 20.833309999999997 15.23743l-18.15875 24.4969Z" stroke-width="2"></path><path id="Vector_2" fill="#fecfc4" d="m112.56634000000001 228.71866 -5.33121 3.21385 5.86055 10.095270000000001a133.64442 133.64442 0 0 1 -62.386500000000005 10.92709l15.01057 26.20233 56.97967 -32.8947 -10.13308 -17.543840000000003Z" stroke-width="2"></path><path id="Vector_3" fill="#fecfc4" d="m95.55184 198.96219 -26.467000000000002 15.19962a94.67226 94.67226 0 0 0 24.916790000000002 -5.174l3.13823 5.595879999999999a34.080740000000006 34.080740000000006 0 0 1 6.08741 -2.189l-7.67543 -13.4325Z" stroke-width="2"></path></g><g id="color 1"><path id="Vector_4" fill="#0077b6" d="m98.69007 217.1488 0.86963 1.5124 2.45765 -1.3611600000000001c-1.1104200000000002 0.0199 -2.22283 -0.029849999999999998 -3.32728 -0.15123999999999999Z" stroke-width="2"></path><path id="Vector_5" fill="#0077b6" d="M246.90526999999997 103.679c-2.07955 0.22686 -4.31034 3.32728 -5.78493 7.788860000000001 1.592 -0.796 3.28947 -1.73926 5.373 -2.94918a7.61374 7.61374 0 0 1 3.9322399999999997 -1.0964900000000002c-0.5711299999999999 -2.00194 -1.70543 -3.96806 -3.52031 -3.74319Z" stroke-width="2"></path><path id="Vector_6" fill="#0077b6" d="M249.36292 123.11533c-2.94918 1.47459 -6.8058 3.36509 -9.03659 4.6506300000000005 0.597 1.73926 1.50842 2.86162 2.6467 3.06261 2.22283 0.39203 4.72625 -2.87157 6.389889999999999 -7.71324Z" stroke-width="2"></path><path id="Vector_7" fill="#0077b6" d="M255.03441999999998 132.41658999999999c0 -0.037809999999999996 -3.06261 2.15517 -7.29733 4.95311l19.701 -3.32728 -12.40367 -1.6258299999999999Z" stroke-width="2"></path><path id="Vector_8" fill="#0077b6" d="m220.77856 135.36577 3.28947 5.06654a33.774280000000005 33.774280000000005 0 0 1 -0.26467 -3.85662c0 -0.037809999999999996 -1.73926 -0.71839 -3.0248 -1.2099199999999999Z" stroke-width="2"></path><path id="Vector_9" fill="#0077b6" d="M207.54506 119.9771c-13.76284 9.79279 -9.565930000000002 15.323 6.23865 10.35994l-0.30049 -0.97112a4.86356 4.86356 0 0 0 0.14925 -5.418769999999999c-2.985 -3.81881 0.49152999999999997 -6.46551 2.23079 -3.51633 0.9452499999999999 1.6258299999999999 1.3611600000000001 1.02087 1.3611600000000001 -0.3781 -0.71839 -0.3781 -0.71839 -0.796 -0.07561999999999999 -1.17211a15.05037 15.05037 0 0 0 -0.3781 -2.07955 2.73028 2.73028 0 0 0 2.00791 1.1223599999999998 2.7223200000000003 2.7223200000000003 0 0 0 2.1511899999999997 -0.8198799999999999c-3.55414 -1.02087 -3.06261 -2.04174 -2.388 -2.11736 5.26355 -0.26467 7.20579 0.41192999999999996 15.323 -0.22686 2.13925 -0.90346 6.28243 -2.6865 8.3182 -3.81881 -0.14129 -7.06251 -23.187479999999997 0.71441 -34.63794 9.03659Z" stroke-width="2"></path><path id="Vector_10" fill="#0077b6" d="M232.91557 121.14921c-0.6805800000000001 0.45372 -1.393 0.90744 -2.11736 1.3611600000000001 -0.18905 -0.83182 -0.15123999999999999 -0.34029000000000004 0.15123999999999999 -1.32335 0.6427700000000001 -0.037809999999999996 1.28355 -0.037809999999999996 1.9661199999999999 -0.037809999999999996Z" stroke-width="2"></path><path id="Vector_11" fill="#0077b6" d="m185.46800000000002 280.2915 -3.13823 15.993630000000001 37.091609999999996 -63.93671c-7.83065 12.51511 -20.497 30.05895 -33.95338 47.943079999999995Z" stroke-width="2"></path><path id="Vector_12" fill="#0077b6" d="M219.56864 385.13863000000003c-6.46551 -5.48245 -16.06925 -12.32606 -24.68993 -14.821520000000001a43.12728 43.12728 0 0 1 -23.59344 0 53.83945 53.83945 0 0 0 -2.9113700000000002 14.10313 3.21783 3.21783 0 0 0 0.86963 2.3979500000000002 3.21385 3.21385 0 0 0 2.34422 1.00495c15.123999999999999 0.037809999999999996 28.13064 0.18905 46.92221 0.22686a1.66563 1.66563 0 0 0 1.53628 -1.0905200000000002 1.66364 1.66364 0 0 0 -0.47759999999999997 -1.82085Z" stroke-width="2"></path><path id="Vector_13" fill="#0077b6" d="M115.32647 376.11c-0.28258 -6.03169 0.995 -12.03552 3.7053800000000003 -17.430410000000002 -6.84361 -1.47459 -16.82545 -8.50725 -20.98455 -14.55685L95.52 346.95053c-4.04368 3.49046 -3.7571199999999996 9.2734 -1.92831 14.29218 2.11736 5.89836 4.045669999999999 15.8802 6.3142700000000005 20.833309999999997a10.72411 10.72411 0 0 0 9.868409999999999 5.97h15.16181c-3.03077 -7.8983099999999995 -5.22375 -7.82269 -9.60971 -11.936020000000001Z" stroke-width="2"></path><path id="Vector_14" fill="#0077b6" d="m196.46673 190.41713 -4.12129 6.57894 -0.30247999999999997 -3.97005 4.423769999999999 -2.6088899999999997Z" stroke-width="2"></path><path id="Vector_15" fill="#0077b6" d="m83.18796999999999 222.25315 -1.24773 -5.36902 5.36902 -1.24773 1.24773 5.36902 -5.36902 1.24773Z" stroke-width="2"></path><path id="Vector_16" fill="#0077b6" d="m72.37431 223.57649999999998 -0.52934 -5.48245 5.444640000000001 -0.52934 0.5671499999999999 5.48245 -5.48245 0.52934Z" stroke-width="2"></path><path id="Vector_17" fill="#0077b6" d="M61.636269999999996 223.87897999999998v-5.48245h5.52026v5.48245h-5.52026Z" stroke-width="2"></path><path id="Vector_18" fill="#0077b6" d="M252.08524 166.89930999999999a113.08175 113.08175 0 0 1 -10.35994 5.89836 21.983530000000002 21.983530000000002 0 0 0 -0.597 -4.00786l10.956940000000001 -1.8904999999999998Z" stroke-width="2"></path><path id="Vector_19" fill="#0077b6" d="m213.17875 74.71852999999999 -23.895919999999997 -17.512H119.37213999999999v35.01803H164.374l-0.15123999999999999 -0.30247999999999997a108.09083 108.09083 0 0 1 44.775 -14.10313l4.1809899999999995 -3.10042Zm-31.60916 6.0117899999999995a0.36218 0.36218 0 0 1 0.08358 0.40795 0.36218 0.36218 0 0 1 -0.08358 0.12139 0.36616 0.36616 0 0 1 -0.52934 0l-6.91923 -6.965L167.16 81.22184999999999a0.36218 0.36218 0 0 1 -0.40795 0.08358 0.36218 0.36218 0 0 1 -0.12139 -0.08358 0.36218 0.36218 0 0 1 -0.08358 -0.40795 0.36218 0.36218 0 0 1 0.08358 -0.12139l6.965 -6.91923 -6.91923 -6.965a0.37412 0.37412 0 1 1 0.52934 -0.52934l6.91923 6.965 6.965 -6.91923a0.37611 0.37611 0 0 1 0.52934 0 0.37611 0.37611 0 0 1 0 0.52934l-6.965 6.91923 6.91525 6.95704Z" stroke-width="2"></path></g><g id="outlines"><path id="Vector_20" stroke="#120071" stroke-linecap="round" stroke-linejoin="round" d="m98.69007 217.1488 0.86963 1.5124" stroke-width="2"></path><path id="Vector_21" stroke="#120071" stroke-linecap="round" stroke-linejoin="round" d="M23.75065 388.01219h350.4987" stroke-width="2"></path><path id="Vector_22" stroke="#120071" stroke-linecap="round" stroke-linejoin="round" d="M119.37213999999999 358.06667v21.43827" stroke-width="2"></path><path id="Vector_23" stroke="#120071" stroke-linecap="round" stroke-linejoin="round" d="M119.37213999999999 248.19081v60.34476" stroke-width="2"></path><path id="Vector_24" stroke="#120071" stroke-linecap="round" stroke-linejoin="round" d="M119.37213999999999 9.95v125.41577000000001" stroke-width="2"></path><path id="Vector_25" stroke="#120071" stroke-linecap="round" stroke-linejoin="round" d="M119.37213999999999 22.20044V57.2125H58.83833l-23.895919999999997 -17.506030000000003 23.895919999999997 -17.506030000000003h60.53381Z" stroke-width="2"></path><path id="Vector_26" stroke="#120071" stroke-linecap="round" stroke-linejoin="round" d="M164.36604 92.22456h-44.9939V57.2125h69.91069l23.895919999999997 17.506030000000003 -4.23472 3.10042" stroke-width="2"></path><path id="Vector_27" stroke="#120071" stroke-linecap="round" stroke-linejoin="round" d="M154.49763 151.66188h-13.76284" stroke-width="2"></path><path id="Vector_28" stroke="#120071" stroke-linecap="round" stroke-linejoin="round" d="m135.1011 168.78981000000002 12.51511 -37.961240000000004 12.55292 37.961240000000004" stroke-width="2"></path><path id="Vector_29" stroke="#120071" stroke-linecap="round" stroke-linejoin="round" d="M188.86692 157.06871 155.40507 98.99255a96.89111 96.89111 0 0 0 -44.65361 110.85892" stroke-width="2"></path><path id="Vector_30" stroke="#120071" stroke-linecap="round" stroke-linejoin="round" d="M198.47065999999998 151.39720999999997 164.175 91.88427a108.82713 108.82713 0 1 1 58.6055 203.0397" stroke-width="2"></path><path id="Vector_31" stroke="#120071" stroke-linecap="round" stroke-linejoin="round" d="M179.7169 287.89131000000003c1.32335 0.49152999999999997 2.6467 0.9830599999999999 4.00786 1.43678" stroke-width="2"></path><path id="Vector_32" stroke="#120071" stroke-linecap="round" stroke-linejoin="round" d="m129.65645999999998 226.14758 -10.397749999999998 6.08542c-1.1342999999999999 -1.8526900000000002 -1.66364 -2.7979399999999996 -1.66364 -2.7979399999999996" stroke-width="2"></path><path id="Vector_33" stroke="#120071" stroke-linecap="round" stroke-linejoin="round" d="M147.72964000000002 268.83507a107.98934 107.98934 0 0 1 -23.13972 -27.75254l68.058 -39.738310000000006" stroke-width="2"></path><path id="Vector_34" stroke="#120071" stroke-linecap="round" stroke-linejoin="round" d="M249.36292 123.11533c-2.94918 1.47459 -6.817740000000001 3.34519 -9.03659 4.6506300000000005 -0.56914 0.33432 -1.0547 0.60894 -1.3611600000000001 0.83182 -5.83667 4.24467 -4.577 1.5482200000000002 -3.32728 -0.71839 0.56516 -1.02286 2.88948 -3.39494 3.85662 -5.217779999999999 0.27462000000000003 -0.74227 0.28855 -1.5561800000000001 0.037809999999999996 -2.30641a59.431349999999995 59.431349999999995 0 0 1 -10.746 0.9830599999999999 34.1086 34.1086 0 0 1 -7.363 -0.18905c-6.566999999999999 -0.88953 -5.97 -2.52332 0.11343 -3.28947a55.57672 55.57672 0 0 0 12.36387 -3.06261 87.60577 87.60577 0 0 0 12.628540000000001 -6.23865 7.6018 7.6018 0 0 1 3.90239 -1.0984800000000001" stroke-width="2"></path><path id="Vector_35" stroke="#120071" stroke-linecap="round" stroke-linejoin="round" d="M241.12034 111.46985c1.47459 -4.46158 3.70737 -7.54608 5.78493 -7.788860000000001 1.81687 -0.21293 2.9511700000000003 1.73926 3.51633 3.74319a29.64105 29.64105 0 0 1 -1.05868 15.69115c-1.6218499999999998 4.85361 -4.167059999999999 8.10527 -6.389889999999999 7.71324 -1.13828 -0.199 -2.04174 -1.32335 -2.6467 -3.06261" stroke-width="2"></path><path id="Vector_36" stroke="#120071" stroke-linecap="round" stroke-linejoin="round" d="M217.22442 120.09053c0 1.393 -0.40993999999999997 1.96214 -1.3611600000000001 0.34029000000000004 -1.72931 -2.95515 -5.217779999999999 -0.30247999999999997 -2.23079 3.51633a4.91132 4.91132 0 0 1 -0.14925 5.418769999999999" stroke-width="2"></path><path id="Vector_37" stroke="#120071" stroke-linecap="round" stroke-linejoin="round" d="M220.9298 117.10354a2.7263 2.7263 0 0 1 -3.2795199999999998 0.48158 2.73028 2.73028 0 0 1 -0.87958 -0.78406c0.17512 0.71043 0.30247999999999997 1.4327999999999999 0.38009 2.15915" stroke-width="2"></path><path id="Vector_38" stroke="#120071" stroke-linecap="round" stroke-linejoin="round" d="M227.69779 110.10869000000001c0 0.037809999999999996 0 0.037809999999999996 0.037809999999999996 0.07561999999999999 0.49152999999999997 1.73926 0.9452499999999999 3.36509 1.3611600000000001 4.9153" stroke-width="2"></path><path id="Vector_39" stroke="#120071" stroke-linecap="round" stroke-linejoin="round" d="M223.84117 136.53788s-1.77707 -0.6805800000000001 -3.06261 -1.2099199999999999l3.28947 5.10435" stroke-width="2"></path><path id="Vector_40" stroke="#120071" stroke-linecap="round" stroke-linejoin="round" d="m247.57789 137.39756 19.85821 -3.35514 -12.40168 -1.66364" stroke-width="2"></path><path id="Vector_41" stroke="#120071" stroke-linecap="round" stroke-linejoin="round" d="M239.53232 120.3552c0.86963 -0.15123999999999999 1.8526900000000002 -0.45372 2.94918 -0.6805800000000001" stroke-width="2"></path><path id="Vector_42" stroke="#120071" stroke-linecap="round" stroke-linejoin="round" d="m222.51782 117.7085 -1.2099199999999999 -0.49152999999999997c-3.97005 -1.02087 -3.582 -2.15517 -2.83575 -2.189 1.5124 -0.07561999999999999 5.93617 0.22686 10.546999999999999 0.07561999999999999l4.8396799999999995 -0.34029000000000004" stroke-width="2"></path><path id="Vector_43" stroke="#120071" stroke-linecap="round" stroke-linejoin="round" d="M260.44125 105.86800000000001a29.929599999999997 29.929599999999997 0 0 1 -4.045669999999999 26.69386" stroke-width="2"></path><path id="Vector_44" stroke="#120071" stroke-linecap="round" stroke-linejoin="round" d="M213.76182 130.345c-13.87428 4.34218 -18.417450000000002 0.58307 -10.9649 -6.535159999999999 6.01577 -5.74314 17.575680000000002 -11.61364 25.4123 -13.86234 5.52026 -1.69946 11.94 -2.54521 13.5718 -0.26865" stroke-width="2"></path><path id="Vector_45" stroke="#120071" stroke-linecap="round" stroke-linejoin="round" d="M232.91557 121.14921c-0.6805800000000001 0.45372 -1.393 0.90744 -2.11736 1.3611600000000001" stroke-width="2"></path><path id="Vector_46" stroke="#120071" stroke-linecap="round" stroke-linejoin="round" d="M207.58287 119.9771a12.0793 12.0793 0 0 1 14.41158 -14.2683 12.08925 12.08925 0 0 1 6.72421 4.09741" stroke-width="2"></path><path id="Vector_47" stroke="#120071" stroke-linecap="round" stroke-linejoin="round" d="M211.70416 145.12075v11.26738l10.77585 -8.6963 10.435559999999999 6.69237 -3.7809999999999997 -10.5868" stroke-width="2"></path><path id="Vector_48" stroke="#120071" stroke-linecap="round" stroke-linejoin="round" d="M229.13457 143.7974c0.199 -0.03383 12.68625 -3.4964299999999997 15.36877 -4.6964a92.4156 92.4156 0 0 0 10.53108 -6.72222l-12.40168 -1.6258299999999999" stroke-width="2"></path><path id="Vector_49" stroke="#120071" stroke-linecap="round" stroke-linejoin="round" d="m219.41740000000001 232.34841999999998 -37.091609999999996 63.93671" stroke-width="2"></path><path id="Vector_50" stroke="#120071" stroke-linecap="round" stroke-linejoin="round" d="m196.39111 364.72123 -1.55021 5.595879999999999" stroke-width="2"></path><path id="Vector_51" stroke="#120071" stroke-linecap="round" stroke-linejoin="round" d="m171.28527 370.31711 2.00194 -9.064449999999999" stroke-width="2"></path><path id="Vector_52" stroke="#120071" stroke-linecap="round" stroke-linejoin="round" d="M218.50199999999998 388.05c-18.79157 -0.01791 -31.798209999999997 -0.199 -46.92221 -0.22686a3.19793 3.19793 0 0 1 -2.34422 -1.00495 3.2317600000000004 3.2317600000000004 0 0 1 -0.86963 -2.3979500000000002 53.7698 53.7698 0 0 1 2.9113700000000002 -14.10313 43.12728 43.12728 0 0 0 23.59344 0c8.62068 2.49546 18.21049 9.353 24.68993 14.821520000000001a1.66364 1.66364 0 0 1 0.47759999999999997 1.82085 1.66364 1.66364 0 0 1 -1.53628 1.0905200000000002v0Z" stroke-width="2"></path><path id="Vector_53" stroke="#120071" stroke-linecap="round" stroke-linejoin="round" d="M122.05665 353.94538a28.112730000000003 28.112730000000003 0 0 0 -3.47056 5.6555800000000005 35.32648 35.32648 0 0 0 -3.25962 16.53889c4.378 4.12129 6.57894 4.00786 9.603739999999998 11.91015H109.7684a10.751969999999998 10.751969999999998 0 0 1 -9.868409999999999 -5.97c-2.25268 -4.961069999999999 -4.1929300000000005 -14.93694 -6.3142700000000005 -20.833309999999997 -1.65966 -4.61481 -2.2685999999999997 -10.746 1.92831 -14.29218l6.10532 -6.744109999999999" stroke-width="2"></path><path id="Vector_54" stroke="#120071" stroke-linecap="round" stroke-linejoin="round" d="M119.002 358.70944c-6.84361 -1.47459 -16.82545 -8.50725 -20.98455 -14.55685" stroke-width="2"></path><path id="Vector_55" stroke="#120071" stroke-linecap="round" stroke-linejoin="round" d="M115.32647 376.13984999999997c-2.985 -2.04174 -13.08226 0 -13.08226 0" stroke-width="2"></path><path id="Vector_56" stroke="#120071" stroke-linecap="round" stroke-linejoin="round" d="M204.37300000000002 213.85933c-4.12129 6.91923 -10.546999999999999 10.26044 -19.283099999999997 10.01965" stroke-width="2"></path><path id="Vector_57" stroke="#120071" stroke-linecap="round" stroke-linejoin="round" d="M156.53937 268.30573c4.19691 5.217779999999999 13.532 11.83453 20.26616 13.38474l18.148799999999998 -24.46307A46.56003 46.56003 0 0 1 174.125 241.98399999999998l-17.58563 26.32173Z" stroke-width="2"></path><path id="Vector_58" stroke="#120071" stroke-linecap="round" stroke-linejoin="round" d="m174.12102000000002 241.98997 2.2685999999999997 20.07711 18.56471 -4.8396799999999995" stroke-width="2"></path><path id="Vector_59" stroke="#120071" stroke-linecap="round" stroke-linejoin="round" d="M219.7955 295.714a4.746149999999999 4.746149999999999 0 0 0 4.99092 -3.74319l5.74712 -28.77341a3.29743 3.29743 0 0 0 -3.184 -3.9322399999999997" stroke-width="2"></path><path id="Vector_60" stroke="#120071" stroke-linecap="round" stroke-linejoin="round" d="M270.38528 224.03022s21.43827 2.82978 21.43827 -11.29922c0 -12.439490000000001 -21.43827 -12.32606 -21.43827 -12.32606s15.123999999999999 0.597 15.123999999999999 -7.22171c0 -7.75105 -15.123999999999999 -7.10828 -15.123999999999999 -7.10828v37.95527Z" stroke-width="2"></path><path id="Vector_61" stroke="#120071" stroke-linecap="round" stroke-linejoin="round" d="M309.51863000000003 298.699a7.130170000000001 7.130170000000001 0 0 1 -1.18405 3.97602 7.136139999999999 7.136139999999999 0 0 1 -10.98878 1.1422599999999998 7.1441 7.1441 0 0 1 4.98893 -12.226560000000001 7.13415 7.13415 0 0 1 7.1838999999999995 7.10828Z" stroke-width="2"></path><path id="Vector_62" stroke="#120071" stroke-linecap="round" stroke-linejoin="round" d="M328.12115 316.77815a7.130170000000001 7.130170000000001 0 0 1 -1.18405 3.97602 7.15206 7.15206 0 0 1 -10.98878 1.1422599999999998 7.1441 7.1441 0 0 1 4.98893 -12.226560000000001 7.104299999999999 7.104299999999999 0 0 1 5.06853 2.06164 7.14211 7.14211 0 0 1 2.11537 5.04664v0Z" stroke-width="2"></path><path id="Vector_63" stroke="#120071" stroke-linecap="round" stroke-linejoin="round" d="m295.37769000000003 324.11329 32.59222 -32.97032" stroke-width="2"></path><path id="Vector_64" stroke="#120071" stroke-linecap="round" stroke-linejoin="round" d="m70.67286 36.30356999999999 6.389889999999999 8.96097 7.44857 -13.006639999999999" stroke-width="2"></path><path id="Vector_65" stroke="#120071" stroke-linecap="round" stroke-linejoin="round" d="m296.66323 54.5658 -8.091339999999999 -1.17211 -3.62976 -7.37295 -3.62976 7.37295 -8.12915 1.17211 5.86055 5.74712 -1.3611600000000001 8.053529999999999 7.25952 -3.81881 7.25952 3.81881 -1.3989699999999998 -8.053529999999999 5.86055 -5.74712Z" stroke-width="2"></path><path id="Vector_66" stroke="#120071" stroke-linecap="round" stroke-linejoin="round" d="M73.15041 163.00488v11.53205" stroke-width="2"></path><path id="Vector_67" stroke="#120071" stroke-linecap="round" stroke-linejoin="round" d="M78.91544 168.77190000000002h-11.53205" stroke-width="2"></path><path id="Vector_68" stroke="#120071" stroke-linecap="round" stroke-linejoin="round" d="M127.38785999999999 223.80336a75.9185 75.9185 0 0 1 -13.42255 7.1838999999999995" stroke-width="2"></path><path id="Vector_69" stroke="#120071" stroke-linecap="round" stroke-linejoin="round" d="m83.18796999999999 222.25315 -1.24773 -5.36902 5.36902 -1.24773 1.24773 5.36902 -5.36902 1.24773Z" stroke-width="2"></path><path id="Vector_70" stroke="#120071" stroke-linecap="round" stroke-linejoin="round" d="m72.37431 223.57649999999998 -0.52934 -5.48245 5.444640000000001 -0.52934 0.5671499999999999 5.48245 -5.48245 0.52934Z" stroke-width="2"></path><path id="Vector_71" stroke="#120071" stroke-linecap="round" stroke-linejoin="round" d="M61.636269999999996 223.87897999999998v-5.48245h5.52026v5.48245h-5.52026Z" stroke-width="2"></path><path id="Vector_72" stroke="#120071" stroke-linecap="round" stroke-linejoin="round" d="m112.60415 228.71866 10.095270000000001 17.543840000000003 -56.94186 32.8947 -15.04838 -26.20233" stroke-width="2"></path><path id="Vector_73" stroke="#120071" stroke-linecap="round" stroke-linejoin="round" d="m102.01735000000001 217.30004 -4.87749 2.68451 7.8644799999999995 13.30912 7.59981 -4.57501 -6.767989999999999 -11.75891" stroke-width="2"></path><path id="Vector_74" stroke="#120071" stroke-linecap="round" stroke-linejoin="round" d="m97.13986 214.57772 -3.184 -5.595879999999999a101.00045999999999 101.00045999999999 0 0 1 -56.1777 2.7541599999999997 137.75775 137.75775 0 0 0 6.4277 40.68356 134.80259999999998 134.80259999999998 0 0 0 68.88982 -10.397749999999998l-5.8227400000000005 -10.095270000000001" stroke-width="2"></path><path id="Vector_75" stroke="#120071" stroke-linecap="round" stroke-linejoin="round" d="m69.04703 214.16181 26.467000000000002 -15.19962 7.71324 13.42255" stroke-width="2"></path><path id="Vector_76" stroke="#120071" stroke-linecap="round" stroke-linejoin="round" d="M362.976 198.20399999999998a4.3979 4.3979 0 0 1 -1.97806 4.489439999999999 4.41979 4.41979 0 0 1 -4.90336 -0.10945 4.40785 4.40785 0 0 1 -0.51143 -6.8058A4.40984 4.40984 0 0 1 362.976 198.20399999999998v0Z" stroke-width="2"></path><path id="Vector_77" stroke="#120071" stroke-linecap="round" stroke-linejoin="round" d="M119.14528 218.13186000000002c-2.45765 0.7562 -9.26345 2.68451 -12.17482 -1.32335 0 0 -8.158999999999999 1.3611600000000001 -10.47337 -0.49152999999999997 -2.3143700000000003 -1.8526900000000002 6.61874 -3.7372199999999998 9.95 -4.87749a167.35303 167.35303 0 0 0 11.41862 -4.5371999999999995" stroke-width="2"></path><path id="Vector_78" stroke="#120071" stroke-linecap="round" stroke-linejoin="round" d="M241.7253 172.79766999999998a21.983530000000002 21.983530000000002 0 0 0 -0.597 -4.00786l10.9649 -1.8904999999999998" stroke-width="2"></path><path id="Vector_79" stroke="#120071" stroke-linecap="round" stroke-linejoin="round" d="M192.83100000000002 203.87749c-11.15395 7.59981 -18.93485 20.23233 -24.278 32.74346 -2.1133800000000003 4.955100000000001 -10.546999999999999 17.543840000000003 -20.833309999999997 32.214119999999994 -9.03659 12.89321 -19.502000000000002 27.37643 -28.357499999999998 39.7005 -11.49026 15.99761 -20.26616 28.357499999999998 -19.6612 28.855a36.16626 36.16626 0 0 0 27.29882 17.512c15.69115 -19.283099999999997 71.839 -89.6097 92.40764 -122.5044" stroke-width="2"></path><path id="Vector_80" stroke="#120071" stroke-linecap="round" stroke-linejoin="round" d="M207.99878 252.00962 182.32578999999998 363.8516" stroke-width="2"></path><path id="Vector_81" stroke="#120071" stroke-linecap="round" stroke-linejoin="round" d="M236.54533 205.50332c-7.1838999999999995 48.05651 -19.39653 110.82111 -35.23891999999999 158.76419 -10.746 1.6218499999999998 -21.7308 0.029849999999999998 -31.57135 -4.577 5.62573 -29.905720000000002 6.543119999999999 -32.58426 15.721 -79.401" stroke-width="2"></path><path id="Vector_82" stroke="#120071" stroke-linecap="round" stroke-linejoin="round" d="m247.72913 103.73273 35.024 5.468520000000001c13.27131 2.04174 16.78764 15.64737 6.5033199999999995 27.03415 -11.63752 12.88525 -32.21611 28.99629 -47.52717 36.562270000000005 0.5671499999999999 11.75891 -2.5710800000000003 22.23228 -5.174 32.74346l-43.72428 -1.66364c-0.597 -8.28636 -0.41192999999999996 -5.84065 -0.796 -10.85147L131.89919 228.25300000000001a50.90818 50.90818 0 0 1 -15.28519 -25.50981S179.14975 163.04269 190.94647 155.817a136.12993 136.12993 0 0 1 20.757689999999997 -10.70023" stroke-width="2"></path><path id="Vector_83" stroke="#120071" stroke-linecap="round" stroke-linejoin="round" d="m160.01789 271.9733 -53.08524 74.06979" stroke-width="2"></path><path id="Vector_84" stroke="#120071" stroke-linecap="round" stroke-linejoin="round" d="m196.46673 221.53476 -18.22442 24.99241" stroke-width="2"></path><path id="Vector_85" stroke="#120071" stroke-linecap="round" stroke-linejoin="round" d="M127.00976 196.16425a48.655499999999996 48.655499999999996 0 0 0 15.76677 25.74861" stroke-width="2"></path><path id="Vector_86" stroke="#120071" stroke-linecap="round" stroke-linejoin="round" d="M208.83458 119.11344a58.02641 58.02641 0 0 1 4.00587 8.358 22.568589999999997 22.568589999999997 0 0 1 1.35917 13.26136 7.50827 7.50827 0 0 1 -2.45765 4.378c6.0117899999999995 4.23472 12.51511 3.74319 17.3926 -1.32335 -2.94918 0.41591 -4.642670000000001 0.03582 -5.06654 -3.36509a31.0639 31.0639 0 0 1 -0.22686 -3.8944300000000003 12.00567 12.00567 0 0 0 3.06261 0.45372c4.6506300000000005 0 5.93617 -4.08348 3.8944300000000003 -14.48123l-0.2587 -1.28952" stroke-width="2"></path><path id="Vector_87" stroke="#120071" stroke-linecap="round" stroke-linejoin="round" d="m192.04296000000002 193.02602000000002 4.423769999999999 -2.6088899999999997 -4.12129 6.57894" stroke-width="2"></path><path id="Vector 1" fill="#120071" d="M167.38686 66.12571a0.74625 0.74625 0 0 0 -1.0547 1.0547l1.0547 -1.0547Zm13.472299999999999 15.5817a0.74625 0.74625 0 1 0 1.0547 -1.0547l-1.0547 1.0547Zm-14.527 -14.527 14.527 14.527 1.0547 -1.0547 -14.527 -14.527 -1.0547 1.0547Z" stroke-width="2"></path><path id="Vector 2" fill="#120071" d="M181.91386 67.18041a0.74625 0.74625 0 0 0 -1.0547 -1.0547l1.0547 1.0547Zm-15.5817 13.472299999999999a0.74625 0.74625 0 0 0 1.0547 1.0547l-1.0547 -1.0547Zm14.527 -14.527 -14.527 14.527 1.0547 1.0547 14.527 -14.527 -1.0547 -1.0547Z" stroke-width="2"></path></g></g></svg>