<svg xmlns="http://www.w3.org/2000/svg" fill="none" viewBox="-1 -1 400 400" id="Downloading--Streamline-Bangalore" height="400" width="400"><desc>Downloading Streamline Illustration: https://streamlinehq.com</desc><g id="Interface-Downloading-01"><g id="color 2"><path id="Vector" fill="#fecfc4" d="m228.47588 181.25914999999998 -22.64819 -20.68008a122.42878 122.42878 0 0 1 -9.21569 19.47016c0.68456 0.77212 1.3273300000000001 1.58006 1.92831 2.4198399999999998 -6.88142 14.527 -14.48123 29.56543 -23.13773 44.044669999999996l6.566999999999999 37.42991 33.76234 -5.93617 -12.736 -72.24893999999999 25.479960000000002 -4.49939Z" stroke-width="2"></path><path id="Vector_2" fill="#fecfc4" d="M176.4533 133.728 143.78744999999998 196.1941l20.33979 -3.5919499999999998c3.85662 -7.07047 7.82667 -14.85734 11.91015 -23.13773l1.73926 0.26467s3.93025 -4.95311 5.026739999999999 -15.123999999999999c1.0964900000000002 -10.09328 3.7053800000000003 -10.32014 4.61282 1.73926a49.320159999999994 49.320159999999994 0 0 0 5.33121 -7.74906S176.4533 133.69815 176.4533 133.728Z" stroke-width="2"></path></g><g id="color 1"><path id="Vector_3" fill="#0077b6" d="m201.25467 260.54075 -19.2433 3.36509 -6.616750000000001 -37.42991c-0.22686 0.90744 -9.11221 14.178749999999999 -9.11221 14.178749999999999a63.54468 63.54468 0 0 1 7.71324 30.39725 39.51145 39.51145 0 0 0 27.25902 -10.51118Z" stroke-width="2"></path><path id="Vector_4" fill="#0077b6" d="M287.45351000000005 174.90707a28.28188 28.28188 0 0 0 -17.20156 1.73926l-19.00848 8.284370000000001c10.90122 -19.99353 21.02435 -40.44874 30.566399999999998 -60.34476 -2.07358 3.40489 -11.43255 2.12134 -21.16166 -2.94719 -9.577869999999999 -4.99291 -15.95184 -11.800699999999999 -14.58471 -15.48021a841.04365 841.04365 0 0 1 -31.01017 62.77654l13.46036 12.28626 -25.521749999999997 4.49939 10.62461 60.189539999999994a437.4219 437.4219 0 0 0 6.702319999999999 -9.64752c18.308 -6.65456 36.58416 -15.094149999999999 51.89919999999999 -25.62722 17.54185 1.05868 34.825 7.07047 51.87134 16.29412a81.8885 81.8885 0 0 0 15.20559 -32.66386 185.57745 185.57745 0 0 0 -51.84148999999999 -19.358719999999998Z" stroke-width="2"></path><path id="Vector_5" fill="#0077b6" d="M104.05113 173.20761c-0.26467 -0.71839 -1.47459 -1.2855400000000001 -3.0248 -1.0964900000000002 0.5671499999999999 1.393 1.66364 3.7411999999999996 1.66364 3.7411999999999996 1.0964900000000002 -0.9830599999999999 1.6258299999999999 -1.92632 1.3611600000000001 -2.6467Z" stroke-width="2"></path><path id="Vector_6" fill="#0077b6" d="M79.51443 181.75068c0.24875 0.72436 1.2099199999999999 1.0964900000000002 2.68451 1.2099199999999999 -0.037809999999999996 -0.15123999999999999 -0.796 -2.189 -1.3611600000000001 -3.81881 -1.05868 0.9830599999999999 -1.56613 1.8964699999999999 -1.32335 2.6088899999999997Z" stroke-width="2"></path><path id="Vector_7" fill="#0077b6" d="M215.09114 55.399609999999996c-12.23054 2.1412400000000003 -23.11385 13.916070000000001 -21.209419999999998 30.51068a80.92932 80.92932 0 0 1 51.909150000000004 -5.78493 26.18442 26.18442 0 0 0 -19.635330000000003 -24.297900000000002 26.17049 26.17049 0 0 0 -11.0644 -0.42785Z" stroke-width="2"></path><path id="Vector_8" fill="#0077b6" d="M266.859 108.29182c-9.641549999999999 -4.87749 -18.759729999999998 -5.97 -20.60446 -2.45765 -1.82284 3.47454 4.19691 10.24651 13.49618 15.323 0.40596 -0.42586 3.46857 -5.98393 7.10828 -12.86535Z" stroke-width="2"></path><path id="Vector_9" fill="#0077b6" d="M106.2063 247.357c-4.764060000000001 -1.05868 -3.81682 -5.373 -0.5671499999999999 -4.19691 3.32728 1.2099199999999999 0.30247999999999997 -2.388 -2.7979399999999996 -4.19691a45.31827 45.31827 0 0 1 10.435559999999999 -7.8644799999999995l-0.30247999999999997 -0.22686c-2.45765 -1.9661199999999999 -6.69237 -1.592 -10.47337 0.15123999999999999 -6.08542 -29.0739 -10.47138 -21.89 -8.202779999999999 -16.55879 -5.40683 -10.77585 -12.023579999999999 -11.343 -10.284320000000001 -2.7979399999999996a35.5613 35.5613 0 0 0 5.10435 12.59073c-8.62068 -11.83453 -9.154 -2.30641 -4.00786 4.91331a20.6761 20.6761 0 0 0 10.92709 7.14609c-2.7979399999999996 4.378 -0.9830599999999999 8.847539999999999 5.820749999999999 12.28825 2.7223200000000003 1.393 5.444640000000001 2.83376 8.091339999999999 4.378 1.17211 0.6766000000000001 -1.73926 -5.227729999999999 -3.74319 -5.62573Z" stroke-width="2"></path><path id="Vector_10" fill="#0077b6" d="M89.38283999999999 188.14057000000003a1.61389 1.61389 0 0 1 -2.95515 1.1542 1.61787 1.61787 0 1 1 2.95515 -1.1542Z" stroke-width="2"></path><path id="Vector_11" fill="#0077b6" d="M193.08771 183.37651a1.61787 1.61787 0 1 1 -3.184 0.5671499999999999 1.61787 1.61787 0 0 1 3.184 -0.5671499999999999Z" stroke-width="2"></path><path id="Vector_12" fill="#0077b6" d="m158.15326000000002 251.99768 8.158999999999999 -11.343c0.6805800000000001 1.17211 1.2099199999999999 2.30641 1.77707 3.47852l-9.93607 7.8644799999999995Z" stroke-width="2"></path><path id="Vector_13" fill="#0077b6" d="M120.83877 248.85746c-1.41489 0.6965 -2.8775399999999998 1.28952 -4.378 1.77707 2.68451 1.1342999999999999 6.08741 1.9661199999999999 8.24059 1.0984800000000001a11.80269 11.80269 0 0 1 -3.86259 -2.87555Z" stroke-width="2"></path></g><g id="outlines"><path id="Vector_14" stroke="#120071" stroke-linecap="round" stroke-linejoin="round" d="M201.25467 260.54075a39.5015 39.5015 0 0 1 -27.262999999999998 10.51118 63.54468 63.54468 0 0 0 -7.71324 -30.39725" stroke-width="2"></path><path id="Vector_15" stroke="#120071" stroke-linecap="round" stroke-linejoin="round" d="M246.0436 106.32768999999999a841.73816 841.73816 0 0 1 -30.952460000000002 62.6452" stroke-width="2"></path><path id="Vector_16" stroke="#120071" stroke-linecap="round" stroke-linejoin="round" d="M375.20455 207.756a51.74 51.74 0 0 0 -56.10606 -29.60324 52.58376 52.58376 0 0 0 -9.8306 2.76013" stroke-width="2"></path><path id="Vector_17" stroke="#120071" stroke-linecap="round" stroke-linejoin="round" d="M378.45621 217.29009c0.22686 0.90744 0.398 1.81488 0.5671499999999999 2.76013a51.88925 51.88925 0 0 1 -41.96711 59.92288L81.97208 324.9272a58.25526 58.25526 0 0 1 -20.22636 -114.74539c4.378 -0.75819 8.82963 -1.02684 13.26932 -0.796a48.556 48.556 0 0 1 -5.70732 -36.5961" stroke-width="2"></path><path id="Vector_18" stroke="#120071" stroke-linecap="round" stroke-linejoin="round" d="M73.61806 161.4487a42.767089999999996 42.767089999999996 0 0 0 -2.7979399999999996 6.3083" stroke-width="2"></path><path id="Vector_19" stroke="#120071" stroke-linecap="round" stroke-linejoin="round" d="M274.63791 92.90514A80.48156999999999 80.48156999999999 0 0 0 148.5137 148.10376000000002a48.38685 48.38685 0 0 0 -61.58851 -2.34422" stroke-width="2"></path><path id="Vector_20" stroke="#120071" stroke-linecap="round" stroke-linejoin="round" d="M180.45917 255.13392a14.831470000000001 14.831470000000001 0 0 1 -4.79988 2.4198399999999998" stroke-width="2"></path><path id="Vector_21" stroke="#120071" stroke-linecap="round" stroke-linejoin="round" d="M305.98040999999995 179.78456a80.64475 80.64475 0 0 0 -15.46429 -72.17332" stroke-width="2"></path><path id="Vector_22" stroke="#120071" stroke-linecap="round" stroke-linejoin="round" d="m269.048 125.15308999999999 -1.5124 3.0248" stroke-width="2"></path><path id="Vector_23" stroke="#120071" stroke-linecap="round" stroke-linejoin="round" d="M212.78473000000002 227.95052c-0.597 0.9830599999999999 -1.24773 1.92831 -1.8526900000000002 2.83575" stroke-width="2"></path><path id="Vector_24" stroke="#120071" stroke-linecap="round" stroke-linejoin="round" d="M197.01995 152.71459c2.76013 -7.1441 2.2685999999999997 -9.353 -1.1342999999999999 -9.639560000000001a9.7112 9.7112 0 0 0 -6.65456 2.30641" stroke-width="2"></path><path id="Vector_25" stroke="#120071" stroke-linecap="round" stroke-linejoin="round" d="m175.39462 226.47593 6.6147599999999995 37.46772 33.72453 -5.973979999999999 -12.741969999999998 -72.24893999999999 25.521749999999997 -4.49939 -22.64819 -20.68008" stroke-width="2"></path><path id="Vector_26" stroke="#120071" stroke-linecap="round" stroke-linejoin="round" d="m192.74742 148.59529 -16.29412 -14.89714 -32.70366 62.45814 20.33979 -3.55414" stroke-width="2"></path><path id="Vector_27" stroke="#120071" stroke-linecap="round" stroke-linejoin="round" d="M109.91168 252.97875a141.29 141.29 0 0 1 13.42255 8.955c15.02052 11.00072 32.28576 15.991639999999999 50.66142 9.11221" stroke-width="2"></path><path id="Vector_28" stroke="#120071" stroke-linecap="round" stroke-linejoin="round" d="M124.79688 251.71112a18.78162 18.78162 0 0 1 -8.30626 -1.03679c1.4925 -0.48357 2.94918 -1.0746 4.35611 -1.76712" stroke-width="2"></path><path id="Vector_29" stroke="#120071" stroke-linecap="round" stroke-linejoin="round" d="M124.79688 251.71112a10.041540000000001 10.041540000000001 0 0 1 -3.9501500000000003 -2.80391c6.72421 -3.4367300000000003 4.9948999999999995 -7.80279 -7.561999999999999 -17.81846" stroke-width="2"></path><path id="Vector_30" stroke="#120071" stroke-linecap="round" stroke-linejoin="round" d="M121.40592000000001 255.73888c22.57058 -26.31377 39.65871 -55.8394 54.59366 -86.31227a32.07283 32.07283 0 0 1 22.53277 13.00465c-13.49817 27.5615 -22.721819999999997 46.08641 -40.4169 69.56443l9.95 -7.8445800000000006" stroke-width="2"></path><path id="Vector_31" stroke="#120071" stroke-linecap="round" stroke-linejoin="round" d="M104.05113 173.20761A349.1057 349.1057 0 0 0 136.116 237.17615999999998" stroke-width="2"></path><path id="Vector_32" stroke="#120071" stroke-linecap="round" stroke-linejoin="round" d="M102.57654 230.97531999999998a314.61303000000004 314.61303000000004 0 0 1 -23.06211 -49.22464" stroke-width="2"></path><path id="Vector_33" stroke="#120071" stroke-linecap="round" stroke-linejoin="round" d="M75.35533 159.89849c5.373 -3.13823 9.8306 -3.55414 16.03144 -3.10042" stroke-width="2"></path><path id="Vector_34" stroke="#120071" stroke-linecap="round" stroke-linejoin="round" d="M76.45182 162.84767a21.261159999999997 21.261159999999997 0 0 1 15.993630000000001 6.23865" stroke-width="2"></path><path id="Vector_35" stroke="#120071" stroke-linecap="round" stroke-linejoin="round" d="M82.19894 182.9606c-0.07561999999999999 -0.22686 -1.99 -5.52026 -2.07955 -5.74712a5.92821 5.92821 0 0 0 -5.40484 -3.96806c-4.23671 -0.16119 -10.274370000000001 -0.75819 -10.435559999999999 -2.53327 -0.25074 -2.76212 8.81172 -2.49347 11.227580000000001 -4.577 0.8338099999999999 -0.71839 -1.04873 -3.6755299999999997 -1.8507 -4.68844a845.5112 845.5112 0 0 0 -6.8058 -8.358c-4.577 -5.339169999999999 -2.07557 -6.35606 2.45765 -2.189A4147.9361 4147.9361 0 0 0 76.416 157.409" stroke-width="2"></path><path id="Vector_36" stroke="#120071" stroke-linecap="round" stroke-linejoin="round" d="M86.54709 156.613a48.15601 48.15601 0 0 0 -3.47852 -10.84948c-2.95913 -6.42372 -0.46566 -6.51924 3.06261 -1.2099199999999999a87.7789 87.7789 0 0 1 2.388 3.7809999999999997 446.83261 446.83261 0 0 0 5.63369 9.33708c2.04174 3.28947 8.54307 18.18462 8.54307 18.18462" stroke-width="2"></path><path id="Vector_37" stroke="#120071" stroke-linecap="round" stroke-linejoin="round" d="m77.21199999999999 158.802 -7.257529999999999 -12.4375c-3.56608 -6.08741 -1.0566900000000001 -6.5809299999999995 2.76013 -1.77707 3.63175 4.577 8.158999999999999 10.09328 8.158999999999999 10.09328" stroke-width="2"></path><path id="Vector_38" stroke="#120071" stroke-linecap="round" stroke-linejoin="round" d="M81.789 156.87369a114.44489999999999 114.44489999999999 0 0 0 -5.48245 -11.94c-3.25962 -6.23467 -0.796 -6.45755 2.9113700000000002 -1.55021a76.98713 76.98713 0 0 1 6.389889999999999 9.412700000000001" stroke-width="2"></path><path id="Vector_39" stroke="#120071" stroke-linecap="round" stroke-linejoin="round" d="M201.89744000000002 149.19826c2.87157 1.5124 3.32529 3.8944300000000003 0.90744 10.05746" stroke-width="2"></path><path id="Vector_40" stroke="#120071" stroke-linecap="round" stroke-linejoin="round" d="M198.87264000000002 145.49487c3.51633 1.92831 3.81881 3.8546300000000002 1.393 9.979849999999999" stroke-width="2"></path><path id="Vector_41" stroke="#120071" stroke-linecap="round" stroke-linejoin="round" d="M185.18542000000002 158.91543c6.65456 -7.48638 8.091339999999999 -11.45444 8.158999999999999 -11.64349" stroke-width="2"></path><path id="Vector_42" stroke="#120071" stroke-linecap="round" stroke-linejoin="round" d="M187.3784 156.34435c-0.90744 -12.059399999999998 -3.52031 -11.83453 -4.61282 -1.73926 -1.10047 10.17089 -5.026739999999999 15.123999999999999 -5.026739999999999 15.123999999999999a32.12258 32.12258 0 0 1 18.8652 10.28233" stroke-width="2"></path><path id="Vector_43" stroke="#120071" stroke-linecap="round" stroke-linejoin="round" d="M196.612 180.01142a161.36512 161.36512 0 0 0 8.50526 -17.313c2.1233299999999997 -5.9341800000000005 2.15517 -8.158999999999999 -0.71839 -9.90622" stroke-width="2"></path><path id="Vector_44" stroke="#120071" stroke-linecap="round" stroke-linejoin="round" d="m140.87608 280.42682 2.3820300000000003 13.42255 119.12935999999999 -21.02037 -2.3820300000000003 -13.42255" stroke-width="2"></path><path id="Vector_45" stroke="#120071" stroke-linecap="round" stroke-linejoin="round" d="M259.74077 121.191c0.86963 -0.9452499999999999 13.61757 -24.57252 18.308 -35.65284 3.4825 -8.24059 6.88142 -15.297130000000001 8.46745 -15.38668 5.63767 -0.32437 0.45372 21.54971 3.21385 31.49175 3.16609 11.452449999999999 -3.2516599999999998 12.10119 -7.82667 22.797439999999998" stroke-width="2"></path><path id="Vector_46" stroke="#120071" stroke-linecap="round" stroke-linejoin="round" d="M388.02015 213.5469c-0.26467 -1.592 -7.63563 -4.23472 -16.180690000000002 -6.88142 -8.6963 -2.6467 -24.61232 -9.07241 -32.51461 -12.4375a87.92417 87.92417 0 0 1 -7.48439 20.71789c7.03067 2.68451 13.98771 6.389889999999999 18.033379999999998 6.4277a19.18559 19.18559 0 0 0 7.14609 -1.43678c9.601750000000001 -3.74319 31.94547 -0.8377899999999999 31.00022 -6.389889999999999Z" stroke-width="2"></path><path id="Vector_47" stroke="#120071" stroke-linecap="round" stroke-linejoin="round" d="m9.95 185.64511 7.410760000000001 -2.68451" stroke-width="2"></path><path id="Vector_48" stroke="#120071" stroke-linecap="round" stroke-linejoin="round" d="m30.47884 178.19654 7.410760000000001 -2.7223200000000003" stroke-width="2"></path><path id="Vector_49" stroke="#120071" stroke-linecap="round" stroke-linejoin="round" d="m18.83535 166.59086 2.68451 7.410760000000001" stroke-width="2"></path><path id="Vector_50" stroke="#120071" stroke-linecap="round" stroke-linejoin="round" d="m26.319740000000003 187.15751 2.68451 7.37295" stroke-width="2"></path><path id="Vector_51" stroke="#120071" stroke-linecap="round" stroke-linejoin="round" d="m10.44153 174.26629 7.14609 3.3630999999999998" stroke-width="2"></path><path id="Vector_52" stroke="#120071" stroke-linecap="round" stroke-linejoin="round" d="m30.25198 183.52775 7.14609 3.32728" stroke-width="2"></path><path id="Vector_53" stroke="#120071" stroke-linecap="round" stroke-linejoin="round" d="m30.21417 167.08239 -3.32728 7.14609" stroke-width="2"></path><path id="Vector_54" stroke="#120071" stroke-linecap="round" stroke-linejoin="round" d="m20.99052 186.89284 -3.36509 7.14609" stroke-width="2"></path><path id="Vector_55" stroke="#120071" stroke-linecap="round" stroke-linejoin="round" d="m330.25244 142.92379 3.62777 20.26417" stroke-width="2"></path><path id="Vector_56" stroke="#120071" stroke-linecap="round" stroke-linejoin="round" d="m342.19841 151.24 -20.26417 3.62976" stroke-width="2"></path><g id="Group"><path id="Vector_57" stroke="#120071" stroke-linecap="round" stroke-linejoin="round" d="m66.05606 264.24613 0.79401 4.34815" stroke-width="2"></path><path id="Vector_58" stroke="#120071" stroke-linecap="round" stroke-linejoin="round" d="m63.48498 273.43396 -4.385960000000001 0.79401" stroke-width="2"></path><path id="Vector_59" stroke="#120071" stroke-linecap="round" stroke-linejoin="round" d="m76.03591 271.20317 -4.34616 0.7562" stroke-width="2"></path><path id="Vector_60" stroke="#120071" stroke-linecap="round" stroke-linejoin="round" d="m69.11867 281.14520999999996 -0.79401 -4.34616" stroke-width="2"></path><path id="Vector_61" stroke="#120071" stroke-linecap="round" stroke-linejoin="round" d="M71.68975 271.95937000000004a4.1809899999999995 4.1809899999999995 0 0 1 -3.11833 -0.67859 4.15512 4.15512 0 0 1 -1.72135 -2.6865A4.167059999999999 4.167059999999999 0 0 1 63.480999999999995 273.426a4.18298 4.18298 0 0 1 3.11833 0.67859 4.15114 4.15114 0 0 1 1.72135 2.6865 4.167059999999999 4.167059999999999 0 0 1 3.3690700000000002 -4.83172Z" stroke-width="2"></path></g><path id="Vector_62" stroke="#120071" stroke-linecap="round" stroke-linejoin="round" d="M266.859 108.29182c-9.641549999999999 -4.87749 -18.75376 -5.97 -20.60446 -2.45765 -1.8904999999999998 3.582 4.5371999999999995 10.66242 14.40362 15.80458 9.86642 5.1421600000000005 19.358719999999998 6.3879 21.24723 2.79595 -19.68508 41.04972 -41.94124 84.62474999999999 -68.27889 121.47557" stroke-width="2"></path><path id="Vector_63" stroke="#120071" stroke-linecap="round" stroke-linejoin="round" d="M113.27677 231.08875c-2.40591 -2.23278 -6.847589999999999 -1.88055 -10.77585 -0.07561999999999999 -6.08542 -29.07191 -10.47138 -21.89 -8.202779999999999 -16.55879 -5.40683 -10.77585 -12.01761 -11.343 -10.284320000000001 -2.7979399999999996a35.620999999999995 35.620999999999995 0 0 0 5.10435 12.59073c-8.62068 -11.83453 -9.154 -2.3084 -4.00786 4.91331a20.69003 20.69003 0 0 0 10.92709 7.14609c-2.7979399999999996 4.378 -0.97311 8.82366 5.820749999999999 12.28825a184.0153 184.0153 0 0 1 8.091339999999999 4.378c1.2039499999999999 0.69053 -1.69946 -5.22574 -3.66757 -5.6715 -4.75809 -1.07858 -3.89244 -5.33519 -0.6427700000000001 -4.1591 3.32927 1.194 0.30247999999999997 -2.388 -2.7979399999999996 -4.19691a45.35011 45.35011 0 0 1 10.435559999999999 -7.85652v0Z" stroke-width="2"></path><path id="Vector_64" stroke="#120071" stroke-linecap="round" stroke-linejoin="round" d="M220.30892 236.30653a229.04502 229.04502 0 0 0 51.909150000000004 -25.671c17.54185 1.05868 34.825 7.07047 51.87134 16.29412a81.8885 81.8885 0 0 0 15.20559 -32.66386 185.9854 185.9854 0 0 0 -51.83353 -19.358719999999998 28.29382 28.29382 0 0 0 -17.20156 1.73926l-19.01644 8.3182" stroke-width="2"></path><path id="Vector_65" stroke="#120071" stroke-linecap="round" stroke-linejoin="round" d="m209.68431 320.50343 -2.87356 12.097209999999999 9.11221 -1.70145 -2.9113700000000002 12.0992" stroke-width="2"></path><path id="Vector_66" stroke="#120071" stroke-dasharray="3.24 5.42" stroke-linecap="round" stroke-linejoin="round" d="M262.65214 137.74382c-10.348 20.18855 -31.26688 60.189539999999994 -46.993849999999995 85.7093" stroke-width="2"></path><path id="Vector_67" stroke="#120071" stroke-dasharray="3.41 5.66" stroke-linecap="round" stroke-linejoin="round" d="M330.937 216.60951c-1.2855400000000001 -1.02087 -40.908429999999996 -21.32285 -60.71888 -17.80652 0 0 -26.65406 18.22243 -38.63983 20.11293" stroke-width="2"></path><path id="Vector_68" stroke="#120071" stroke-linecap="round" stroke-linejoin="round" d="M219.63033000000001 55.00161a26.1884 26.1884 0 0 0 -25.68095 31.29076 26.18243 26.18243 0 0 0 51.86537 -5.100370000000001 26.16452 26.16452 0 0 0 -7.667470000000001 -18.518939999999997 26.15656 26.15656 0 0 0 -18.516949999999998 -7.67145v0Z" stroke-width="2"></path><path id="Vector_69" stroke="#120071" stroke-linecap="round" stroke-linejoin="round" d="M101.02633 172.11112c1.55021 -0.18905 2.76013 0.3781 3.0248 1.0964900000000002 0.96316 2.6108800000000003 -7.4406099999999995 6.49337 -10.095270000000001 7.48439 -3.55613 1.3273300000000001 -13.47827 3.87254 -14.441429999999999 1.05868 -0.24278 -0.7124199999999999 0.26467 -1.6258299999999999 1.32335 -2.6088899999999997" stroke-width="2"></path></g></g></svg>