<svg xmlns="http://www.w3.org/2000/svg" id="Work-From-Home--Streamline-Bangalore" width="400" height="400" fill="none" viewBox="-1 -1 400 400"><desc>Work From Home Streamline Illustration: https://streamlinehq.com</desc><g id="Work-Work-from-home-01"><g id="color 2"><path id="Vector" fill="#fecfc4" stroke-width="2" d="m240.37409 9.95 -0.41591 37.961240000000004 23.8203 41.288520000000005 0.41591 -37.961240000000004L240.37409 9.95Z"/><path id="Vector_2" fill="#fecfc4" stroke-width="2" d="m249.83455 65.175883 -12.4773 12.40168 -3.44071 41.70443 29.907709999999998 -29.907709999999998 -13.989700000000001 -24.1984Z"/><path id="Subtract" fill="#fecfc4" fill-rule="evenodd" stroke-width="2" d="M249.745 179.86813999999998C275.07372000000004 157.116669 299.08506 132.941552 321.66559 107.46c-6.20084 -10.746 -14.06532 -18.308 -24.009349999999998 -22.00542 -29.02017 32.864452 -60.50794 63.466672 -94.18471 91.54 -5.652793999999999 11.495832 -9.757169000000001 16.968332 -23.022111 17.515383 -0.26467 7.606376999999999 -1.213701 15.174347000000001 -2.83575 22.610977 0 0 5.665331 9.93806 21.245041 11.42658 14.85734 1.42086 57.77368 -16.220489999999998 57.77368 -16.220489999999998 20.6363 5.41479 40.655699999999996 12.95092 59.739799999999995 22.487000000000002 6.91923 -8.46944 12.439490000000001 -17.35479 12.81759 -28.58436 -20.38357 -10.908781999999999 -41.915369999999996 -19.518517 -64.20138 -25.671 -5.5123 -1.5671249999999999 -10.57884 -1.583045 -15.2434 -0.69053Zm-52.62555 35.42797c0 0.49152999999999997 -0.195219 0.96316 -0.542673 1.30942 -0.347454 0.34825 -0.818686 0.54327 -1.310017 0.54327s-0.9625630000000001 -0.19502 -1.310017 -0.54327c-0.347454 -0.34625999999999996 -0.542673 -0.8178899999999999 -0.542673 -1.30942 0 -0.49152999999999997 0.195219 -0.96316 0.542673 -1.30942 0.347454 -0.34825 0.818686 -0.54327 1.310017 -0.54327s0.9625630000000001 0.19502 1.310017 0.54327c0.347454 0.34625999999999996 0.542673 0.8178899999999999 0.542673 1.30942Zm27.09584 -19.145193c0.34825 -0.347454 0.54327 -0.818686 0.54327 -1.310017s-0.19502 -0.9625630000000001 -0.54327 -1.310017c-0.34625999999999996 -0.347454 -0.8178899999999999 -0.542673 -1.30942 -0.542673 -0.49152999999999997 0 -0.96316 0.195219 -1.30942 0.542673 -0.34825 0.347454 -0.54327 0.818686 -0.54327 1.310017s0.19502 0.9625630000000001 0.54327 1.310017c0.34625999999999996 0.347454 0.8178899999999999 0.542673 1.30942 0.542673 0.49152999999999997 0 0.96316 -0.195219 1.30942 -0.542673Zm33.5514 10.373273c0 0.49152999999999997 -0.19502 0.96316 -0.54327 1.30942 -0.34625999999999996 0.34825 -0.8178899999999999 0.54327 -1.30942 0.54327 -0.49152999999999997 0 -0.96316 -0.19502 -1.30942 -0.54327 -0.34825 -0.34625999999999996 -0.54327 -0.8178899999999999 -0.54327 -1.30942 0 -0.49152999999999997 0.19502 -0.96316 0.54327 -1.30942 0.34625999999999996 -0.34825 0.8178899999999999 -0.54327 1.30942 -0.54327 0.49152999999999997 0 0.96316 0.19502 1.30942 0.54327 0.34825 0.34625999999999996 0.54327 0.8178899999999999 0.54327 1.30942Zm34.5066 -8.520583c0.34825 -0.347454 0.54327 -0.818686 0.54327 -1.310017s-0.19502 -0.9625630000000001 -0.54327 -1.310017c-0.34625999999999996 -0.347454 -0.8178899999999999 -0.542673 -1.30942 -0.542673 -0.49152999999999997 0 -0.96316 0.195219 -1.30942 0.542673 -0.34825 0.347454 -0.54327 0.818686 -0.54327 1.310017s0.19502 0.9625630000000001 0.54327 1.310017c0.34625999999999996 0.347454 0.8178899999999999 0.542673 1.30942 0.542673 0.49152999999999997 0 0.96316 -0.195219 1.30942 -0.542673Zm20.05323 25.837563000000003c0 0.49152999999999997 -0.19502 0.96316 -0.54327 1.30942 -0.34625999999999996 0.34825 -0.8178899999999999 0.54327 -1.30942 0.54327 -0.49152999999999997 0 -0.96316 -0.19502 -1.30942 -0.54327 -0.34825 -0.34625999999999996 -0.54327 -0.8178899999999999 -0.54327 -1.30942 0 -0.49152999999999997 0.19502 -0.96316 0.54327 -1.30942 0.34625999999999996 -0.34825 0.8178899999999999 -0.54327 1.30942 -0.54327 0.49152999999999997 0 0.96316 0.19502 1.30942 0.54327 0.34825 0.34625999999999996 0.54327 0.8178899999999999 0.54327 1.30942Zm-95.74885 -45.990293c0.34825 -0.347454 0.54327 -0.818686 0.54327 -1.310017s-0.19502 -0.9625630000000001 -0.54327 -1.310017c-0.34625999999999996 -0.347454 -0.8178899999999999 -0.542673 -1.30942 -0.542673 -0.49152999999999997 0 -0.96316 0.195219 -1.30942 0.542673 -0.34825 0.347454 -0.54327 0.818686 -0.54327 1.310017s0.19502 0.9625630000000001 0.54327 1.310017c0.34625999999999996 0.347454 0.8178899999999999 0.542673 1.30942 0.542673 0.49152999999999997 0 0.96316 -0.195219 1.30942 -0.542673Zm34.19417 -9.174496999999999c0 0.491331 -0.19502 0.9625630000000001 -0.54327 1.310017 -0.34625999999999996 0.347454 -0.8178899999999999 0.542673 -1.30942 0.542673 -0.49152999999999997 0 -0.96316 -0.195219 -1.30942 -0.542673 -0.34825 -0.347454 -0.54327 -0.818686 -0.54327 -1.310017s0.19502 -0.9625630000000001 0.54327 -1.310017c0.34625999999999996 -0.347454 0.8178899999999999 -0.542673 1.30942 -0.542673 0.49152999999999997 0 0.96316 0.195219 1.30942 0.542673 0.34825 0.347454 0.54327 0.818686 0.54327 1.310017Zm6.45158 -29.202652999999998c0.34825 -0.347454 0.54327 -0.818686 0.54327 -1.310017s-0.19502 -0.9625630000000001 -0.54327 -1.310017c-0.34625999999999996 -0.347454 -0.8178899999999999 -0.542673 -1.30942 -0.542673 -0.49152999999999997 0 -0.96316 0.195219 -1.30942 0.542673 -0.34825 0.347454 -0.54327 0.818686 -0.54327 1.310017s0.19502 0.9625630000000001 0.54327 1.310017c0.34625999999999996 0.347454 0.8178899999999999 0.542673 1.30942 0.542673 0.49152999999999997 0 0.96316 -0.195219 1.30942 -0.542673Zm35.59314 -10.838137c0 0.491331 -0.19502 0.9625630000000001 -0.54327 1.310017 -0.34625999999999996 0.347454 -0.8178899999999999 0.542673 -1.30942 0.542673 -0.49152999999999997 0 -0.96316 -0.195219 -1.30942 -0.542673 -0.34825 -0.347454 -0.54327 -0.818686 -0.54327 -1.310017s0.19502 -0.9625630000000001 0.54327 -1.310017c0.34625999999999996 -0.347454 0.8178899999999999 -0.542673 1.30942 -0.542673 0.49152999999999997 0 0.96316 0.195219 1.30942 0.542673 0.34825 0.347454 0.54327 0.818686 0.54327 1.310017Zm8.12517 -31.009573000000003c0.34825 -0.347454 0.54327 -0.818686 0.54327 -1.310017s-0.19502 -0.9625630000000001 -0.54327 -1.310017c-0.34625999999999996 -0.347454 -0.8178899999999999 -0.542673 -1.30942 -0.542673 -0.49152999999999997 0 -0.96316 0.195219 -1.30942 0.542673 -0.34825 0.347454 -0.54327 0.818686 -0.54327 1.310017s0.19502 0.9625630000000001 0.54327 1.310017c0.34625999999999996 0.347454 0.8178899999999999 0.542673 1.30942 0.542673 0.49152999999999997 0 0.96316 -0.195219 1.30942 -0.542673Z" clip-rule="evenodd"/></g><g id="color 1"><path id="Vector_3" fill="#0077b6" stroke-width="2" d="M198.84876 144.09988c-0.34029000000000004 0.6427700000000001 -1.8049300000000001 3.2516599999999998 -3.2795199999999998 5.97 -3.81881 -3.73921 -2.12731 -6.49934 3.2795199999999998 -5.97Z"/><path id="Vector_4" fill="#0077b6" stroke-width="2" d="m211.37382 149.69576 -2.2248200000000002 6.389889999999999c1.99 0.11343 4.51531 -0.31442 4.62277 -2.27059 -0.10149 -0.8129149999999999 -0.36616 -1.596776 -0.7780900000000001 -2.3048179999999996 -0.41192999999999996 -0.707843 -0.96316 -1.3251410000000001 -1.6198599999999999 -1.8144820000000002Z"/><path id="Vector_5" fill="#0077b6" stroke-width="2" d="M187.780181 118.50251c0.5671499999999999 2.7223200000000003 1.0964900000000002 5.06654 1.393 6.35208 1.66364 -0.86963 2.71436 -1.92831 2.68451 -3.06261 -0.02189 -1.47658 -1.54424 -2.6088899999999997 -4.07751 -3.28947Z"/><path id="Vector_6" fill="#0077b6" stroke-width="2" d="M174.84936000000002 126.25356000000001c-6.12522 -1.47459 -6.3142700000000005 -5.1421600000000005 -0.3781 -7.25952 0.29332600000000003 2.408298 0.419492 4.833909 0.3781 7.25952Z"/><path id="Vector_7" fill="#0077b6" stroke-width="2" d="M368.05846 230.91164c-0.15123999999999999 -1.3611600000000001 -6.389889999999999 -4.12129 -13.64941 -6.88142 -6.8058 -2.6088899999999997 -18.86719 -8.358 -25.89985 -11.87234 -1.42086 6.27248 -4.15313 12.17283 -8.01572 17.313 5.52026 2.6467 10.81366 5.78493 14.027510000000001 6.0496 2.1253200000000003 0.12537 4.256609999999999 -0.15721 6.27646 -0.83182 8.54506 -2.71834 27.75055 1.10047 27.26101 -3.77702Z"/><path id="Vector_8" fill="#0077b6" stroke-width="2" d="M332.927 52.71311c-1.3611600000000001 -0.15123999999999999 -5.373 5.40683 -9.603739999999998 11.91015 -3.7053800000000003 5.70931 -12.51511 17.052310000000002 -18.45128 24.425259999999998 5.09838 3.313549 9.51419 7.574935 13.006639999999999 12.55292 4.23472 -5.89836 11.38081 -11.30519 12.51511 -15.123999999999999 0.5572 -2.0556699999999997 0.72237 -4.197308 0.49152999999999997 -6.3142700000000005 -0.82585 -8.92117 6.9252 -26.92072 2.04174 -27.45006Z"/><path id="Vector_9" fill="#0077b6" stroke-width="2" d="M146.756331 142.02033c1.070819 -0.708639 1.873585 -1.7555779999999999 2.279943 -2.9736569999999998 0.406358 -1.218079 0.393025 -2.53725 -0.037809999999999996 -3.746971 -0.430636 -1.209522 -1.254098 -2.2401429999999998 -2.339046 -2.92729 -1.084749 -0.686948 -2.3684979999999998 -0.9908210000000001 -3.646277 -0.8632620000000001 0.707445 -1.041367 1.051317 -2.286908 0.9784830000000001 -3.543792 -0.072834 -1.2566849999999998 -0.558593 -2.454267 -1.3816570000000001 -3.406681 -0.823064 -0.952613 -1.937464 -1.606925 -3.170269 -1.861446 -1.2328050000000002 -0.254322 -2.515161 -0.094923 -3.6482669999999997 0.453919 1.87458 -5.6118 -5.89836 -10.053479999999999 -9.98184 -5.10435 -0.031641 -1.388025 -0.548643 -2.720927 -1.461058 -3.767269 -0.9124150000000001 -1.046342 -2.162732 -1.7400559999999998 -3.5334440000000003 -1.96015 -1.370911 -0.22029300000000002 -2.775453 0.046765 -3.969851 0.754608 -1.194199 0.707843 -2.102833 1.811895 -2.567697 3.120121 -2.24671 -5.9122900000000005 -11.078330000000001 -4.30437 -11.078330000000001 1.73926 -0.901868 -0.884157 -2.0713909999999998 -1.444541 -3.325688 -1.593592 -1.254098 -0.14925 -2.522524 0.12119100000000001 -3.606676 0.769135s-1.923335 1.636775 -2.38601 2.812069c-0.462874 1.175294 -0.523171 2.470784 -0.171936 3.683888 -1.169125 -0.523569 -2.4799379999999998 -0.639984 -3.72329 -0.330937 -1.243153 0.30904699999999996 -2.347006 1.025845 -3.1348469999999997 2.03577 -0.7880400000000001 1.010124 -1.214895 2.255068 -1.2121089999999999 3.536031 0.002587 1.2811620000000001 0.434616 2.524315 1.2266359999999998 3.531056 -1.345439 -0.155419 -2.70242 0.170941 -3.830153 0.921171 -1.127534 0.75023 -1.9527869999999998 1.875973 -2.3290960000000003 3.177035 -0.376309 1.301261 -0.27919700000000003 2.6934649999999998 0.273824 3.9298520000000003 0.553021 1.236387 1.526529 2.2367600000000003 2.747195 2.8234120000000003 -1.3388719999999998 0.18367699999999998 -2.5696869999999996 0.8358 -3.4733460000000003 1.8409490000000002 -0.903659 1.00495 -1.421855 2.297853 -1.46265 3.6488639999999997 -0.040795000000000005 1.350812 0.398398 2.67257 1.23977 3.730454 0.841372 1.057685 2.030596 1.78304 3.355936 2.047113 -5.12226 3.36708 -1.77906 11.35892 3.7809999999999997 10.435559999999999 -0.6994849999999999 1.050322 -1.034004 2.301634 -0.951817 3.560906 0.081988 1.259272 0.576105 2.4564559999999998 1.406134 3.407079s1.949603 1.601751 3.186388 1.852889c1.236586 0.251337 2.5217280000000004 0.088555 3.656625 -0.462874 -1.8904999999999998 5.66155 6.09935 10.00174 9.98184 5.02873 0.006965 1.356782 0.49570899999999996 2.666998 1.3790699999999998 3.6970219999999996 0.8833610000000001 1.029825 2.103828 1.7123950000000001 3.443695 1.925922 1.339867 0.21352700000000002 2.712171 -0.056118 3.871744 -0.760379 1.159772 -0.70446 2.031392 -1.797965 2.459441 -3.085495 0.31422100000000003 0.8730129999999999 0.8371930000000001 1.6556799999999998 1.5231459999999999 2.280341 0.685953 0.624661 1.514191 1.0720129999999999 2.412676 1.303052 0.898485 0.231238 1.8399539999999999 0.238999 2.742021 0.023083999999999997 0.902266 -0.215915 1.7380659999999999 -0.6493369999999999 2.434367 -1.262257 -1.8349790000000001 -5.564637 -3.337429 -11.23355 -4.49939 -16.97669 -3.49046 -15.21952 -2.64073 -9.65548 -4.31034 -16.33392 -4.764060000000001 -1.02087 -3.28947 -6.65456 0.037809999999999996 -4.87749 1.592 0.86963 2.15517 0.7562 2.15517 -0.26467 0.453919 -8.39382 6.730379 -11.00271 11.381009 -2.7223200000000003 3.62976 6.46551 6.049401 18.186609999999998 -0.567349 19.85025 -0.688739 0.192632 -1.402353 0.281983 -2.11736 0.26467 0 1.74921 3.87254 7.23564 4.61282 8.158999999999999 2.2725799999999996 -0.373125 4.595308 -0.308848 6.84361 0.18905l5.63369 -1.70145c0.18646300000000002 -0.665655 0.211338 -1.366135 0.072834 -2.0435309999999998 -0.138305 -0.6771969999999999 -0.436208 -1.311609 -0.868834 -1.850899 1.342056 0.161787 2.6978429999999998 -0.157409 3.8267700000000002 -0.900674 1.128927 -0.743265 1.957961 -1.86264 2.339842 -3.159324 0.381682 -1.2964849999999999 0.291535 -2.6865 -0.25452100000000005 -3.923086 -0.5458569999999999 -1.236387 -1.512599 -2.239347 -2.728091 -2.830576 1.338076 -0.17711 2.570881 -0.820079 3.481903 -1.815875 0.911221 -0.9957959999999999 1.442352 -2.28054 1.500261 -3.6289640000000003 0.057909 -1.3484239999999998 -0.36098600000000003 -2.6741620000000004 -1.183254 -3.7443839999999997 -0.822268 -1.0702219999999998 -1.9953729999999998 -1.8166710000000001 -3.3133500000000002 -2.1080069999999997Z"/><path id="Vector_10" fill="#0077b6" stroke-width="2" d="M126.943891 161.41686c-1.690306 -0.12736 -3.3493690000000003 -0.522972 -4.9153 -1.17211l6.5033199999999995 4.8396799999999995c-0.768339 -1.1044500000000002 -1.308425 -2.351384 -1.58802 -3.66757Z"/><path id="Vector_11" fill="#0077b6" stroke-width="2" d="M180.445041 194.57623c-7.394043999999999 0.6105320000000001 -14.81754 0.787443 -22.23228 0.52934l22.04323 4.87749c0.157409 -1.797766 0.220492 -3.602497 0.18905 -5.40683Z"/><path id="Vector_12" fill="#0077b6" stroke-width="2" d="M110.45893 64.58545c-0.001592 2.459839 -0.7325189999999999 4.8641570000000005 -2.100246 6.908882 -1.367926 2.0445260000000003 -3.311161 3.6377200000000003 -5.584338 4.577995 -2.273177 0.940275 -4.77401 1.185443 -7.186686 0.704659 -2.412477 -0.480983 -4.628143 -1.6662270000000001 -6.367005 -3.406283 -1.7388620000000001 -1.7400559999999998 -2.922912 -3.956518 -3.402303 -6.369393 -0.47919199999999995 -2.412676 -0.232432 -4.913509 0.709236 -7.186089 0.941867 -2.2725799999999996 2.5362549999999997 -4.21482 4.581776 -5.581353 2.045322 -1.366533 4.450038 -2.095868 6.910076 -2.095868 1.634785 -0.0017909999999999998 3.2538489999999998 0.318997 4.764458 0.943857 1.510609 0.625059 2.8829130000000003 1.542051 4.038506 2.6982410000000003 1.155593 1.156389 2.07159 2.5292899999999996 2.695654 4.040297 0.624064 1.511007 0.943857 3.13027 0.940872 4.765054999999999Z"/></g><g id="outlines"><path id="Vector_13" stroke="#120071" stroke-linecap="round" stroke-linejoin="round" stroke-width="2" d="M189.7465 249.21168c-0.517798 -7.3968300000000005 0.485958 -14.821520000000001 2.94918 -21.81637"/><path id="Vector_14" stroke="#120071" stroke-linecap="round" stroke-linejoin="round" stroke-width="2" d="m193.263029 146.67095999999998 -1.3989699999999998 -24.878980000000002"/><path id="Vector_15" stroke="#120071" stroke-linecap="round" stroke-linejoin="round" stroke-width="2" d="m172.54295 164.51728 -2.4198399999999998 -41.590999999999994"/><path id="Vector_16" stroke="#120071" stroke-linecap="round" stroke-linejoin="round" stroke-width="2" d="m128.60773 165.23567 -6.73018 -5.06654"/><path id="Vector_17" stroke="#120071" stroke-linecap="round" stroke-linejoin="round" stroke-width="2" d="M121.87755 160.16913c14.97276 5.78493 12.28427 -10.736049999999999 7.71324 -18.86719 -4.65461 -8.2784 -10.92709 -5.6715 -11.38081 2.7223200000000003 0 1.02087 -0.56317 1.12634 -2.15517 0.26467 -3.31733 -1.791 -4.801869999999999 3.85662 -0.037809999999999996 4.87749 0.6427700000000001 2.6088899999999997 1.18007 4.04368 1.81488 6.12522 0.69053 2.26661 1.99 7.90428 2.49546 10.2087 2.3681 10.86341 4.60884 19.81443 9.154 26.80729 12.429540000000001 19.13982 28.28188 25.559559999999998 48.132130000000004 24.875 1.622049 -7.43663 2.5710800000000003 -15.0046 2.83575 -22.61038 14.06532 -1.17211 17.547819999999998 -4.21084 29.18932 -30.96639 1.16813 -2.6865 2.388 -5.55807 3.74319 -8.734110000000001"/><path id="Vector_18" stroke="#120071" stroke-linecap="round" stroke-linejoin="round" stroke-width="2" d="M131.55691 169.58382c-2.0359689999999997 -2.4061090000000003 -3.600905 -5.174 -4.61282 -8.158999999999999"/><path id="Vector_19" stroke="#120071" stroke-linecap="round" stroke-linejoin="round" stroke-width="2" d="M193.26283 146.663c-2.7979399999999996 6.8058 -9.20176 20.92684 -14.70809 24.68993 -6.93515 4.7401800000000005 -38.036860000000004 -1.2099199999999999 -38.036860000000004 -1.2099199999999999 -5.06654 -1.05868 -9.565930000000002 -1.6258299999999999 -13.573789999999999 1.47459"/><path id="Vector_20" stroke="#120071" stroke-linecap="round" stroke-linejoin="round" stroke-width="2" d="m138.362909 169.73506 33.87776 -10.322130000000001"/><path id="Vector_21" stroke="#120071" stroke-linecap="round" stroke-linejoin="round" stroke-width="2" d="M206.34509 123.60686c2.68451 -2.4198399999999998 8.358 -9.10425 11.56986 -12.70416 1.47857 -1.65966 2.189 2.7979399999999996 -6.57894 13.12007"/><path id="Vector_22" stroke="#120071" stroke-linecap="round" stroke-linejoin="round" stroke-width="2" d="M209.149 125.569c3.06261 -2.04174 7.01276 -5.28146 10.70023 -8.12915 1.72931 -1.33529 3.06261 1.2099199999999999 -5.97 9.679359999999999"/><path id="Vector_23" stroke="#120071" stroke-linecap="round" stroke-linejoin="round" stroke-width="2" d="M211.37382 149.69576c2.985 2.786 2.50342 4.34815 2.00393 5.174 -2.7661 3.68946 -17.30305 -1.46066 -19.63732 -7.31723 -0.9452499999999999 -2.3681 1.02684 -3.8546300000000002 5.1083300000000005 -3.45862"/><path id="Vector_24" stroke="#120071" stroke-linecap="round" stroke-linejoin="round" stroke-width="2" d="m209.149 156.08565000000002 2.23079 -6.389889999999999c1.9661199999999999 -6.0117899999999995 2.4198399999999998 -7.48638 1.3611600000000001 -11.229569999999999 -0.83182 -2.94918 -1.65966 -4.34218 0.18905 -5.444640000000001 10.03756 -5.98194 10.286309999999999 -8.730129999999999 8.3182 -8.053529999999999 -4.19492 1.44474 -6.8058 2.00393 -9.603739999999998 2.7223200000000003"/><path id="Vector_25" stroke="#120071" stroke-linecap="round" stroke-linejoin="round" stroke-width="2" d="M199.5771 136.72692999999998c-1.137683 -3.8361229999999997 -2.884505 -7.46449 -5.173801 -10.746 -1.3611600000000001 -1.8904999999999998 0 -3.74319 5.822541 2.6467"/><path id="Vector_26" stroke="#120071" stroke-linecap="round" stroke-linejoin="round" stroke-width="2" d="M174.47126 119.002c-5.92423 2.08751 -5.80085 5.820749999999999 0.3781 7.25952 4.802268 1.076789 9.823237 0.588642 14.328 -1.393 4.2387 -2.21487 3.184 -5.06256 -1.393 -6.35208"/><path id="Vector_27" stroke="#120071" stroke-linecap="round" stroke-linejoin="round" stroke-width="2" d="M180.63409099999998 112.75539c-0.5671499999999999 -1.3611600000000001 -1.02087 -2.49546 -1.47459 -3.51633 -2.546205 -5.441854 -5.718464 -10.568292999999999 -9.4525 -15.27524 -4.54914 -5.09241 -5.5103100000000005 -3.5979200000000002 -2.68451 2.00393 4.61481 9.154 8.2187 20.085069999999998 7.82667 30.285809999999998"/><path id="Vector_28" stroke="#120071" stroke-linecap="round" stroke-linejoin="round" stroke-width="2" d="M171.03054999999998 95.55184c-0.269844 -2.5219270000000003 -0.167956 -5.069724 0.30247999999999997 -7.561999999999999 0.18905 -0.6805800000000001 1.16614 -1.32136 2.04174 2.9113700000000002 0.18706 0.90744 1.06067 4.801869999999999 1.43678 6.1690000000000005 0.6441629999999999 2.7967459999999997 1.4650379999999998 5.549712 2.45765 8.24258"/><path id="Vector_29" stroke="#120071" stroke-linecap="round" stroke-linejoin="round" stroke-width="2" d="M179.15970000000002 109.23906c1.8526900000000002 2.5710800000000003 3.46857 -4.2387 4.49939 -7.03266 0.93729 -2.53725 2.985 -4.98893 2.53327 2.4198399999999998 -0.31442 5.217779999999999 1.6417499999999998 14.5071 2.985 20.22835"/><path id="Vector_30" stroke="#120071" stroke-linecap="round" stroke-linejoin="round" stroke-width="2" d="m203.88744 191.28676 44.199889999999996 -10.99276c5.56006 -1.393796 11.38877 -1.302455 16.90107 0.26467 22.28601 6.152483 43.817809999999994 14.762217999999999 64.20138 25.671 -0.3781 11.229569999999999 -5.89836 20.11492 -12.81759 28.58436 -19.0841 -9.53608 -39.1035 -17.072210000000002 -59.739799999999995 -22.487000000000002 0 0 -42.91634 17.64135 -57.77368 16.220489999999998 -15.579709999999999 -1.48852 -21.293 -11.45643 -21.293 -11.45643"/><path id="Vector_31" stroke="#120071" stroke-linecap="round" stroke-linejoin="round" stroke-width="2" d="M249.745 179.86813999999998C275.07372000000004 157.116669 299.08506 132.941552 321.66559 107.46c-6.20084 -10.746 -14.06532 -18.308 -24.009349999999998 -22.00542 -29.02017 32.864452 -60.50794 63.466672 -94.18471 91.54"/><path id="Vector_32" stroke="#120071" stroke-linecap="round" stroke-linejoin="round" stroke-width="2" d="M368.05846 230.91164c-0.15123999999999999 -1.3611600000000001 -6.389889999999999 -4.12129 -13.64941 -6.88142 -6.8058 -2.6088899999999997 -18.86719 -8.358 -25.89985 -11.87234 -1.42086 6.27248 -4.15313 12.17283 -8.01572 17.313 5.52026 2.6467 10.81366 5.78493 14.027510000000001 6.0496 2.1253200000000003 0.12537 4.256609999999999 -0.15721 6.27646 -0.83182 8.54506 -2.71834 27.75055 1.10047 27.26101 -3.77702Z"/><path id="Vector_33" stroke="#120071" stroke-linecap="round" stroke-linejoin="round" stroke-width="2" d="M332.927 52.71311c-1.3611600000000001 -0.15123999999999999 -5.373 5.40683 -9.603739999999998 11.91015 -3.7053800000000003 5.70931 -12.51511 17.052310000000002 -18.45128 24.425259999999998 5.09838 3.313549 9.51419 7.574935 13.006639999999999 12.55292 4.23472 -5.89836 11.38081 -11.30519 12.51511 -15.123999999999999 0.5572 -2.0556699999999997 0.72237 -4.197308 0.49152999999999997 -6.3142700000000005 -0.82585 -8.92117 6.9252 -26.92072 2.04174 -27.45006Z"/><path id="Vector_34" stroke="#120071" stroke-linecap="round" stroke-linejoin="round" stroke-width="2" d="M143.9964 168.03360999999998c0.124176 -0.986244 0.059898999999999994 -1.9870150000000002 -0.18905 -2.94918 -0.162981 -0.33631 -0.36337400000000003 -0.6535160000000001 -0.597 -0.9452499999999999 1.344444 0.167757 2.704808 -0.14785700000000002 3.837914 -0.890525 1.133106 -0.742668 1.965324 -1.864033 2.3482 -3.1637020000000002 0.382677 -1.299669 0.290739 -2.693067 -0.259098 -3.931245 -0.550036 -1.238178 -1.522151 -2.2407399999999997 -2.7430160000000003 -2.828188 1.352006 -0.169548 2.599338 -0.815502 3.517922 -1.822044 0.9185840000000001 -1.006343 1.448123 -2.307405 1.493694 -3.6693610000000003 0.045571 -1.361757 -0.39581099999999997 -2.695256 -1.245143 -3.7609009999999996 -0.849332 -1.065645 -2.0506949999999997 -1.793388 -3.388373 -2.052884 0.977687 -0.639586 1.736872 -1.5627469999999999 2.175667 -2.6455059999999997 0.438795 -1.082958 0.536305 -2.2739730000000002 0.27959500000000004 -3.4138450000000002 -0.256511 -1.139872 -0.855302 -2.174075 -1.715778 -2.9643040000000003 -0.860675 -0.790229 -1.942041 -1.298873 -3.0996240000000004 -1.457675 -0.461282 -0.065869 -0.928733 -0.07840599999999999 -1.393 -0.037809999999999996 0.503271 -0.7197830000000001 0.827442 -1.5494139999999998 0.9452499999999999 -2.4198399999999998 0.104077 -0.744857 0.060297 -1.502848 -0.12875299999999998 -2.230591 -0.189249 -0.727743 -0.519987 -1.411109 -0.973707 -2.011094 -0.453521 -0.599786 -1.021069 -1.1042509999999999 -1.6698089999999999 -1.484341 -0.64874 -0.380289 -1.366135 -0.62884 -2.111191 -0.731524 -1.124748 -0.159598 -2.271386 0.025074 -3.28947 0.52934 0.069451 -0.235019 0.11999699999999999 -0.47541100000000003 0.15123999999999999 -0.71839 0.171737 -1.2405659999999998 -0.06805800000000001 -2.503221 -0.682371 -3.594537 -0.6145120000000001 -1.091316 -1.569513 -1.951195 -2.719335 -2.447899 -1.149623 -0.496704 -2.430387 -0.60297 -3.646078 -0.302281 -1.21589 0.30068900000000004 -2.299644 0.9914179999999999 -3.085296 1.9667169999999998 0.0067659999999999994 -1.3844429999999999 -0.486953 -2.724509 -1.390214 -3.7736370000000004 -0.9032610000000001 -1.049128 -2.15517 -1.736474 -3.525086 -1.935673l-0.3781 -0.07561999999999999c-1.3360859999999999 -0.181488 -2.6934649999999998 0.11303200000000001 -3.834133 0.8320190000000001 -1.140668 0.718987 -1.9919899999999997 1.8164719999999999 -2.404517 3.100221 -0.44576 -1.193602 -1.2765849999999999 -2.204721 -2.3613340000000003 -2.8731619999999998 -1.084749 -0.668441 -2.3613340000000003 -0.9563940000000001 -3.6279689999999998 -0.8178899999999999 -1.266635 0.138305 -2.450884 0.694908 -3.365687 1.5818510000000001 -0.914803 0.8869429999999999 -1.508022 2.053481 -1.68553 3.3151409999999997 -0.031442000000000005 0.174523 -0.043979000000000004 0.352031 -0.037809999999999996 0.52934 -0.86963 -0.866247 -1.99796 -1.425039 -3.21385 -1.592 -0.744459 -0.10586799999999999 -1.50245 -0.063282 -2.230392 0.12477300000000001 -0.727942 0.188254 -1.411507 0.518395 -2.0114919999999996 0.971717 -0.599985 0.453322 -1.1042509999999999 1.020671 -1.484142 1.66961 -0.379891 0.64874 -0.627845 1.366334 -0.7295339999999999 2.1113899999999997 -0.10945 0.800975 -0.041590999999999996 1.616278 0.199 2.388 -0.490933 -0.228452 -1.013507 -0.381483 -1.55021 -0.45372 -0.744857 -0.104873 -1.503047 -0.06169 -2.231188 0.12676300000000001s-1.412104 0.518793 -2.012487 0.971717c-0.6005820000000001 0.452924 -1.105843 1.0198749999999999 -1.4871269999999999 1.6684160000000001 -0.38128399999999996 0.648342 -0.63083 1.3655380000000001 -0.7347079999999999 2.110594 -0.102883 0.766349 -0.052337 1.545434 0.148852 2.291883 0.20118899999999998 0.746648 0.549041 1.4455360000000002 1.023258 2.056267 -1.348026 -0.16158799999999998 -2.7093849999999997 0.161389 -3.841297 0.911022s-1.960349 1.877366 -2.337653 3.181612c-0.377105 1.304047 -0.278401 2.699833 0.2786 3.9380110000000004 0.557001 1.238178 1.536081 2.237954 2.76212 2.820825 -1.3448419999999999 0.175717 -2.583418 0.824656 -3.493445 1.8304019999999999 -0.910226 1.0057459999999998 -1.432402 2.302629 -1.473396 3.658416 -0.040994 1.355787 0.402179 2.681923 1.249919 3.7406029999999997 0.8477399999999999 1.0588790000000001 2.044725 1.781249 3.3766320000000003 2.037959 -0.6775950000000001 0.44496399999999997 -1.251312 1.03082 -1.681948 1.717768 -0.430636 0.686749 -0.7080420000000001 1.458471 -0.813512 2.262232 -0.203577 1.4982710000000001 0.192632 3.0162430000000002 1.102261 4.223973999999999 0.909629 1.2077309999999999 2.259247 2.0075119999999997 3.755329 2.225616 0.461481 0.074028 0.931718 0.074028 1.393 0 -0.47541100000000003 0.730728 -0.785254 1.556578 -0.90744 2.4198399999999998 -0.14328 1.0316159999999999 -0.0029850000000000002 2.082535 0.405761 3.040521 0.408746 0.957787 1.070819 1.7862239999999998 1.914778 2.3963579999999998 0.8439589999999999 0.6103329999999999 1.838163 0.97908 2.875749 1.067038 1.037785 0.08795800000000001 2.079948 -0.10825599999999999 3.014452 -0.567747 -0.069252 0.22228299999999998 -0.11979799999999999 0.449939 -0.15123999999999999 0.6805800000000001 -0.108455 0.745255 -0.06805800000000001 1.504838 0.118803 2.234571 0.18706 0.7295339999999999 0.516803 1.41489 0.970523 2.016268 0.453521 0.6013780000000001 1.0218649999999998 1.1066390000000002 1.6721970000000002 1.486729 0.6503319999999999 0.380289 1.369518 0.627646 2.115967 0.727942 0.98505 0.144275 1.990796 0.024079 2.9141559999999997 -0.347852 0.923559 -0.37213 1.731499 -0.982662 2.341434 -1.769508 -0.0017909999999999998 1.361757 0.482376 2.679535 1.3655380000000001 3.7159269999999998 0.8831619999999999 1.036591 2.10741 1.7239369999999998 3.4522519999999997 1.938061 1.3448419999999999 0.214323 2.7219219999999997 -0.058505999999999996 3.883485 -0.769334 1.161563 -0.710629 2.031392 -1.812691 2.4526749999999997 -3.107584 0.31422100000000003 0.872814 0.8369939999999999 1.6556799999999998 1.522947 2.280341 0.686152 0.6244620000000001 1.51439 1.0718139999999998 2.4128749999999997 1.303052 0.898485 0.231039 1.839755 0.238999 2.742021 0.023083999999999997 0.902266 -0.215915 1.7380659999999999 -0.6493369999999999 2.434367 -1.262257"/><path id="Vector_35" stroke="#120071" stroke-linecap="round" stroke-linejoin="round" stroke-width="2" d="m120.59200999999999 166.63464000000002 8.01572 -1.3989699999999998"/><path id="Vector_36" stroke="#120071" stroke-linecap="round" stroke-linejoin="round" stroke-width="2" d="M337.9617 338.63233c-2.86361 -0.9751 -5.48643 -2.54919 -7.6973199999999995 -4.61481 -2.2089000000000003 -2.0676099999999997 -3.95413 -4.57899 -5.12027 -7.37096l-4.801869999999999 -11.41862 18.45128 -7.410760000000001 1.73926 4.08348c1.86662 4.45163 5.373 8.01373 9.79279 9.95l20.568640000000002 9.074399999999999c0.2786 0.11740999999999999 0.5313300000000001 0.29053999999999996 0.74227 0.50745 0.21094 0.21691 0.37412 0.47561 0.48357 0.7562 0.10945 0.28258 0.16119 0.58307 0.15323 0.8855500000000001 -0.00995 0.30247999999999997 -0.0796 0.60098 -0.20695999999999998 0.8756 -1.74722 3.89642 -4.88744 7.000819999999999 -8.80376 8.70028 -3.91831 1.69946 -8.33014 1.87458 -12.36984 0.48755l-12.93102 -4.50536Z"/><path id="Vector_37" stroke="#120071" stroke-linecap="round" stroke-linejoin="round" stroke-width="2" d="m320.34224 315.22794 18.45128 -7.410760000000001 -5.89836 -13.91408c-0.16915000000000002 -0.38407 -0.47958999999999996 -0.6885399999999999 -0.86565 -0.84973 -0.38805 -0.16318000000000002 -0.82187 -0.16915000000000002 -1.2139 -0.0199l-15.42648 6.1690000000000005c-0.19701000000000002 0.08159000000000001 -0.37611 0.20099 -0.52536 0.35024 -0.15123999999999999 0.15123999999999999 -0.27064 0.33034 -0.35024 0.52735 -0.08159000000000001 0.19701000000000002 -0.12139 0.40795 -0.12139 0.62088 0.00199 0.21293 0.04378 0.42188 0.12736 0.6188899999999999l5.8227400000000005 13.908109999999999Z"/><path id="Vector_38" stroke="#120071" stroke-linecap="round" stroke-linejoin="round" stroke-width="2" d="M189.63307 154.83792000000003c2.474764 2.85167 5.554289 5.115693 9.014103 6.627694999999999 3.4592169999999998 1.511803 7.214347 2.2335760000000002 10.987387 2.112385"/><path id="Vector_39" stroke="#120071" stroke-linecap="round" stroke-linejoin="round" stroke-width="2" d="M170.61464 131.24447999999998c3.465983 1.440362 7.201611 2.116763 10.952760999999999 1.9832340000000002 3.750951 -0.133529 7.429068 -1.0740029999999998 10.784009000000001 -2.757344"/><path id="Vector_40" stroke="#120071" stroke-linecap="round" stroke-linejoin="round" stroke-width="2" d="m70.380131 256.77368 170.56110900000002 82.87952"/><path id="Vector_41" stroke="#120071" stroke-linecap="round" stroke-linejoin="round" stroke-width="2" d="M275.99111 342.75362c1.00495 -2.07159 1.14624 -4.45561 0.39601000000000003 -6.63267 -0.75222 -2.17507 -2.33626 -3.96408 -4.40387 -4.975l-13.989700000000001 -6.766c-2.07159 -1.00495 -4.45561 -1.14624 -6.63267 -0.39601000000000003 -2.17507 0.75222 -3.96408 2.33626 -4.975 4.40387l-19.62339 40.381080000000004c-1.00495 2.07159 -1.14624 4.45561 -0.39601000000000003 6.63267 0.75222 2.17507 2.33626 3.96408 4.40387 4.975l13.989700000000001 6.8058c2.07159 1.00495 4.45561 1.14624 6.63267 0.39601000000000003 2.17507 -0.75222 3.96408 -2.33626 4.975 -4.40387l19.62339 -40.420880000000004Z"/><path id="Vector_42" stroke="#120071" stroke-linecap="round" stroke-linejoin="round" stroke-width="2" d="m64.82226 230.49573 5.78493 -11.87234c2.840924 -5.84264 7.885176 -10.32014 14.024525 -12.44745 6.139548 -2.1253200000000003 12.871917 -1.72931 18.718935 1.1044500000000002l156.07968 75.819c5.84264 2.84172 10.32014 7.88438 12.44745 14.02552 2.1253200000000003 6.13915 1.72931 12.87132 -1.1044500000000002 18.717940000000002l-5.78493 11.91015"/><path id="Vector_43" stroke="#120071" stroke-linecap="round" stroke-linejoin="round" stroke-width="2" d="m44.594108999999996 289.93305 186.214051 90.44152"/><path id="Vector_44" stroke="#120071" stroke-linecap="round" stroke-linejoin="round" stroke-width="2" d="m336.33587 133.96679999999998 3.0248 19.358719999999998"/><path id="Vector_45" stroke="#120071" stroke-linecap="round" stroke-linejoin="round" stroke-width="2" d="m347.52763 142.13376000000002 -19.358719999999998 3.0248"/><path id="Vector_46" stroke="#120071" stroke-linecap="round" stroke-linejoin="round" stroke-width="2" d="M110.45893 64.58545c-0.001592 2.459839 -0.7325189999999999 4.8641570000000005 -2.100246 6.908882 -1.367926 2.0445260000000003 -3.311161 3.6377200000000003 -5.584338 4.577995 -2.273177 0.940275 -4.77401 1.185443 -7.186686 0.704659 -2.412477 -0.480983 -4.628143 -1.6662270000000001 -6.367005 -3.406283 -1.7388620000000001 -1.7400559999999998 -2.922912 -3.956518 -3.402303 -6.369393 -0.47919199999999995 -2.412676 -0.232432 -4.913509 0.709236 -7.186089 0.941867 -2.2725799999999996 2.5362549999999997 -4.21482 4.581776 -5.581353 2.045322 -1.366533 4.450038 -2.095868 6.910076 -2.095868 1.634785 -0.0017909999999999998 3.2538489999999998 0.318997 4.764458 0.943857 1.510609 0.625059 2.8829130000000003 1.542051 4.038506 2.6982410000000003 1.155593 1.156389 2.07159 2.5292899999999996 2.695654 4.040297 0.624064 1.511007 0.943857 3.13027 0.940872 4.765054999999999v0Z"/><path id="Vector_47" stroke="#120071" stroke-linecap="round" stroke-linejoin="round" stroke-width="2" d="M95.71900000000001 43.33623c1.576677 2.660232 2.3738710000000003 5.710106000000001 2.30044 8.80177 -2.82381 -1.234397 -5.246436 -3.233153 -6.9948500000000005 -5.771 -1.58006 -2.6620229999999996 -2.3794429999999998 -5.714881999999999 -2.30641 -8.809729999999998 2.826994 1.235591 5.252008 3.237332 7.000819999999999 5.77896v0Z"/><path id="Vector_48" stroke="#120071" stroke-linecap="round" stroke-linejoin="round" stroke-width="2" d="m180.22634 199.97709 -22.013379999999998 -4.90933"/><path id="Vector_49" stroke="#120071" stroke-linecap="round" stroke-linejoin="round" stroke-width="2" d="M180.44543900000002 194.57623c-13.309916 1.189224 -26.714158 0.783065 -39.92736 -1.2099199999999999"/><path id="Vector_50" stroke="#120071" stroke-linecap="round" stroke-linejoin="round" stroke-width="2" d="m42.81684 174.61255 0.86963 4.8396799999999995"/><path id="Vector_51" stroke="#120071" stroke-linecap="round" stroke-linejoin="round" stroke-width="2" d="m39.90547 184.82125 -4.8396799999999995 0.86963"/><path id="Vector_52" stroke="#120071" stroke-linecap="round" stroke-linejoin="round" stroke-width="2" d="m53.89516999999999 182.40141 -4.8396799999999995 0.83182"/><path id="Vector_53" stroke="#120071" stroke-linecap="round" stroke-linejoin="round" stroke-width="2" d="m46.10631 193.44192999999999 -0.83182 -4.8396799999999995"/><path id="Vector_54" stroke="#120071" stroke-linecap="round" stroke-linejoin="round" stroke-width="2" d="M49.05549 183.23323c-0.6011789999999999 0.106266 -1.217482 0.09273400000000001 -1.813487 -0.039999 -0.596005 -0.132733 -1.159772 -0.38188099999999997 -1.659063 -0.7333149999999999 -0.49949 -0.351434 -0.924355 -0.7979900000000001 -1.250516 -1.314196 -0.326161 -0.516206 -0.547051 -1.0917139999999999 -0.649934 -1.69349 0.106266 0.6011789999999999 0.09273400000000001 1.217482 -0.039999 1.813487 -0.132733 0.596005 -0.38188099999999997 1.159772 -0.7333149999999999 1.659262 -0.35123499999999996 0.49929100000000004 -0.7979900000000001 0.924156 -1.313997 1.250317 -0.516206 0.326161 -1.0917139999999999 0.547051 -1.693689 0.649934 0.6013780000000001 -0.106266 1.217681 -0.09273400000000001 1.813487 0.039999 0.596005 0.132733 1.1599709999999999 0.38188099999999997 1.659262 0.7333149999999999s0.924156 0.7979900000000001 1.250317 1.314196c0.326161 0.516206 0.547051 1.0917139999999999 0.649934 1.69349 -0.106266 -0.6011789999999999 -0.09273400000000001 -1.217482 0.039999 -1.813487 0.132733 -0.596005 0.38188099999999997 -1.159772 0.7333149999999999 -1.659262 0.351434 -0.49929100000000004 0.7979900000000001 -0.924156 1.314196 -1.250317 0.516206 -0.326161 1.0917139999999999 -0.547051 1.69349 -0.649934v0Z"/><path id="Vector_55" stroke="#120071" stroke-linecap="round" stroke-linejoin="round" stroke-width="2" d="M308.92361999999997 231.21412c3.3232999999999997 14.0096 1.51638 28.74754 -5.0944 41.53926 -6.61078 12.79172 -17.587619999999998 22.78948 -30.93853 28.182380000000002"/><path id="Vector_56" stroke="#120071" stroke-linecap="round" stroke-linejoin="round" stroke-width="2" d="M195.56923999999998 150.07386c1.47459 -2.7223200000000003 3.2516599999999998 -5.93617 3.2516599999999998 -5.93617 0.83182 -1.70145 0.63282 -15.2036 1.92831 -18.108999999999998 0.33830000000000005 -0.7562 6.66053 -8.158999999999999 9.641549999999999 -11.75891 2.53725 -3.05863 4.87749 -3.4029 -1.43678 6.69237"/><path id="Vector_57" stroke="#120071" stroke-linecap="round" stroke-linejoin="round" stroke-width="2" d="M75.819 245.5063c1.004154 -2.07159 1.14624 -4.45561 0.395015 -6.63267 -0.751225 -2.17507 -2.334668 -3.96408 -4.402875 -4.975l-13.95189 -6.766c-2.0713909999999998 -1.00495 -4.456207 -1.14624 -6.632073 -0.39601000000000003 -2.1758659999999996 0.75222 -3.965274 2.33626 -4.9755970000000005 4.40387l-19.6612 40.381080000000004c-1.004154 2.07159 -1.14624 4.45561 -0.395015 6.63267 0.751225 2.17507 2.334668 3.96408 4.402875 4.975l13.989700000000001 6.8058c2.0713909999999998 1.00495 4.456207 1.14624 6.632073 0.39601000000000003 2.1758659999999996 -0.75222 3.965274 -2.33626 4.9755970000000005 -4.40387L75.819 245.5063Z"/><path id="Vector_58" stroke="#120071" stroke-linejoin="round" stroke-width="2" d="m240.37409 9.95 -0.41591 37.961240000000004 23.8203 41.288520000000005 0.41591 -37.961240000000004L240.37409 9.95Z"/><path id="Vector_59" stroke="#120071" stroke-linejoin="round" stroke-width="2" d="m249.83455 65.175883 -12.4773 12.40168 -3.44071 41.70443 29.907709999999998 -29.907709999999998 -13.989700000000001 -24.1984Z"/></g></g></svg>