<svg xmlns="http://www.w3.org/2000/svg" id="We-Got-A-Problem--Streamline-Bangalore" width="400" height="400" fill="none" viewBox="-1 -1 400 400"><desc>We Got A Problem Streamline Illustration: https://streamlinehq.com</desc><g id="Product-We-got-a-problem-01"><g id="color 2"><path id="Subtract" fill="#fecfc4" fill-rule="evenodd" stroke-width="2" d="M99.897801 13.494249700000001 141.369401 85.371c0.620084 1.075993 0.946245 2.296062 0.9460459999999999 3.5378220000000002 -0.000199 1.24176 -0.326957 2.46163 -0.947439 3.5372250000000003 -0.6204820000000001 1.075794 -1.512997 1.9693040000000002 -2.587796 2.591378 -1.074799 0.621875 -2.294271 0.950225 -3.536031 0.9522149999999999l-82.98698 0.0059700000000000005c-1.242556 -0.001393 -2.463023 -0.329544 -3.538618 -0.951817s-1.968707 -1.516579 -2.589388 -2.593169c-0.620681 -1.0765900000000002 -0.947041 -2.2974550000000002 -0.946643 -3.5402099999999996 0.000597 -1.242556 0.327952 -2.463222 0.9494290000000001 -3.539414l41.47956 -71.8767503c0.6232679999999999 -1.0776248 1.518967 -1.9723487 2.597149 -2.5944028 1.078381 -0.6220342000000001 2.3012360000000003 -0.9494887 3.5459810000000003 -0.9494887 1.244944 0 2.467799 0.3274545 3.54618 0.9494887 1.078182 0.6220540999999999 1.973881 1.516778 2.5969499999999996 2.5944028ZM93.74889999999999 77.662735c1.4505109999999999 0 2.626402 -1.175891 2.626402 -2.626402 0 -1.4505109999999999 -1.175891 -2.6262030000000003 -2.626402 -2.6262030000000003 -1.450312 0 -2.6262030000000003 1.175692 -2.6262030000000003 2.6262030000000003 0 1.4505109999999999 1.175891 2.626402 2.6262030000000003 2.626402Z" clip-rule="evenodd"/><path id="Vector" fill="#fecfc4" stroke-width="2" d="M316.86969 76.670919c-14.97077 -2.83575 -29.253 5.97 -31.84 19.659209999999998 -0.87958 4.7959000000000005 -0.2587 9.746821 1.77906 14.17676l-6.46551 10.5868 12.25044 -2.49546c4.11333 3.94418 9.29131 6.599039 14.895150000000001 7.63762 14.97077 2.83575 29.253 -5.97 31.84 -19.659209999999998 2.6069 -13.68722 -7.44857 -27.069969999999998 -22.459139999999998 -29.905720000000002Z"/><path id="Vector_2" fill="#fecfc4" stroke-width="2" d="M128.703449 167.9361c1.378274 0 2.49546 -1.117186 2.49546 -2.49546 0 -1.378075 -1.117186 -2.49546 -2.49546 -2.49546 -1.378075 0 -2.49546 1.117385 -2.49546 2.49546 0 1.378274 1.117385 2.49546 2.49546 2.49546Z"/><path id="Vector_3" fill="#fecfc4" stroke-width="2" d="M151.162589 186.99233999999998c0 0.49371899999999996 -0.14626499999999998 0.9760949999999999 -0.420487 1.386433 -0.274222 0.410338 -0.664063 0.73033 -1.119972 0.9191809999999999 -0.455909 0.188851 -0.957787 0.238203 -1.4417550000000001 0.141887 -0.48416699999999996 -0.09611700000000001 -0.928733 -0.333922 -1.277779 -0.6827690000000001 -0.349046 -0.349046 -0.5866520000000001 -0.7938109999999999 -0.682968 -1.277779 -0.096316 -0.48416699999999996 -0.046765 -0.985846 0.14208600000000002 -1.4417550000000001 0.188851 -0.45610799999999996 0.508644 -0.84575 0.918982 -1.119972 0.41053700000000004 -0.274222 0.892913 -0.420686 1.386433 -0.420686 0.6602819999999999 0.005373 1.291908 0.269844 1.7587620000000002 0.736698 0.467053 0.466854 0.731524 1.098679 0.736698 1.7587620000000002Z"/><path id="Vector_4" fill="#fecfc4" stroke-width="2" d="M174.48917 168.84354000000002c0 0.49371899999999996 -0.14626499999999998 0.9760949999999999 -0.420487 1.386433 -0.274222 0.410338 -0.663864 0.73033 -1.119972 0.9191809999999999 -0.455909 0.188851 -0.957588 0.238203 -1.4417550000000001 0.141887 -0.483968 -0.09611700000000001 -0.928733 -0.333922 -1.277779 -0.682968 -0.348847 -0.348847 -0.5866520000000001 -0.793612 -0.682968 -1.27758 -0.09611700000000001 -0.48416699999999996 -0.046765 -0.985846 0.14208600000000002 -1.441954 0.188851 -0.455909 0.508644 -0.8455509999999999 0.9191809999999999 -1.119773 0.410338 -0.274222 0.892714 -0.420686 1.386234 -0.420686 0.660083 0.005770999999999999 1.29151 0.27064 1.758364 0.737295 0.466655 0.466854 0.731524 1.098082 0.737096 1.758165Z"/><path id="Vector_5" fill="#fecfc4" stroke-width="2" d="M200.12236 190.16639c0 0.49371899999999996 -0.14526999999999998 0.976493 -0.41989 1.38703 -0.27263000000000004 0.410736 -0.66267 0.730728 -1.118977 0.9199769999999999 -0.455909 0.189249 -0.957787 0.23879999999999998 -1.441954 0.142882 -0.48416699999999996 -0.09611700000000001 -0.928932 -0.333723 -1.278177 -0.68257 -0.34924499999999997 -0.348847 -0.58705 -0.793612 -0.6835650000000001 -1.27758 -0.096316 -0.48416699999999996 -0.047163 -0.986045 0.141688 -1.442153 0.188851 -0.45610799999999996 0.508644 -0.845949 0.9191809999999999 -1.1201709999999998 0.410338 -0.27442099999999997 0.892913 -0.420885 1.386433 -0.420885 0.659884 0.005770999999999999 1.2909130000000002 0.270242 1.756971 0.736698 0.46764999999999995 0.46625700000000003 0.73232 1.097087 0.73829 1.756772Z"/><path id="Vector_6" fill="#fecfc4" stroke-width="2" d="M221.89893 168.84354000000002c0 0.49371899999999996 -0.14726 0.9760949999999999 -0.41989 1.386433 -0.27462000000000003 0.410338 -0.66466 0.73033 -1.1203699999999999 0.9191809999999999 -0.45571 0.188851 -0.95719 0.238203 -1.44275 0.141887 -0.48357 -0.09611700000000001 -0.92734 -0.333922 -1.27758 -0.682968 -0.34825 -0.348847 -0.5850599999999999 -0.793612 -0.68257 -1.27758 -0.09552000000000001 -0.48416699999999996 -0.04577 -0.985846 0.14129 -1.441954 0.18905 -0.455909 0.50944 -0.8455509999999999 0.9193800000000001 -1.119773 0.41192999999999996 -0.274222 0.89351 -0.420686 1.38703 -0.420686 0.66068 0.005770999999999999 1.29151 0.27064 1.75916 0.737295 0.46566 0.466854 0.73033 1.098082 0.7363 1.758165Z"/><path id="Vector_7" fill="#fecfc4" stroke-width="2" d="M249.12014000000002 170.28032c0 0.49352 -0.14726 0.9760949999999999 -0.41989 1.386433 -0.27462000000000003 0.410338 -0.66466 0.73033 -1.1203699999999999 0.9191809999999999 -0.45571 0.188851 -0.95719 0.238203 -1.44275 0.141887 -0.48357 -0.096316 -0.92734 -0.333922 -1.27758 -0.682968 -0.34825 -0.348847 -0.58705 -0.793612 -0.68257 -1.27758 -0.09552000000000001 -0.48416699999999996 -0.04577 -0.985846 0.14129 -1.441954 0.18905 -0.455909 0.50944 -0.8455509999999999 0.9193800000000001 -1.119773 0.41192999999999996 -0.274222 0.89351 -0.420686 1.38703 -0.420686 0.66068 0.005770999999999999 1.29151 0.270441 1.75916 0.737295 0.46566 0.466655 0.73033 1.098082 0.7363 1.758165Z"/><path id="Vector_8" fill="#fecfc4" stroke-width="2" d="M276.75726000000003 168.84354000000002c1.3790699999999998 0 2.49546 -1.117186 2.49546 -2.49546 0 -1.378075 -1.11639 -2.49546 -2.49546 -2.49546 -1.3770799999999999 0 -2.49546 1.117385 -2.49546 2.49546 0 1.378274 1.1183800000000002 2.49546 2.49546 2.49546Z"/><path id="Vector_9" fill="#fecfc4" stroke-width="2" d="M265.90579 193.22899999999998c0 0.49352 -0.14726 0.9760949999999999 -0.41989 1.386433 -0.27462000000000003 0.410338 -0.66466 0.730131 -1.1203699999999999 0.9191809999999999 -0.45571 0.188851 -0.95719 0.238203 -1.44275 0.141887 -0.48357 -0.096316 -0.92734 -0.333922 -1.27758 -0.682968 -0.34825 -0.348847 -0.5850599999999999 -0.793612 -0.68257 -1.27758 -0.09552000000000001 -0.48416699999999996 -0.04577 -0.985846 0.14129 -1.441954 0.18905 -0.455909 0.50944 -0.84575 0.9193800000000001 -1.119773 0.41192999999999996 -0.274222 0.89351 -0.420686 1.38703 -0.420686 0.32835000000000003 -0.0033829999999999997 0.65471 0.05870499999999999 0.9591799999999999 0.182881 0.30447 0.124176 0.5810799999999999 0.307853 0.8139099999999999 0.540285 0.23084000000000002 0.232432 0.41591 0.5090420000000001 0.53929 0.8133130000000001 0.12537 0.304271 0.18706 0.6304320000000001 0.18308 0.958981Z"/></g><g id="color 1"><path id="Vector_10" fill="#0077b6" stroke-width="2" d="M90.973049 156.85976v12.24845c1.73926 -0.71839 3.582 -1.47459 5.52026 -2.2685999999999997v-6.25656c-2.058058 -0.882764 -3.930847 -2.145817 -5.52026 -3.72329Z"/><path id="Vector_11" fill="#0077b6" stroke-width="2" d="M90.973049 183.51382v204.49837000000002h5.52026V180.07311c-1.73926 1.0964900000000002 -3.74319 2.3820300000000003 -5.52026 3.44071Z"/><path id="Vector_12" fill="#0077b6" stroke-width="2" d="m205.90529999999998 141.5089 -3.0228099999999998 4.31034 0.07561999999999999 -3.66757 2.94719 -0.6427700000000001Z"/><path id="Vector_13" fill="#0077b6" stroke-width="2" d="m282.27752000000004 153.827 0.90744 -0.5671499999999999c0.199 -0.10347999999999999 8.02965 -2.8257999999999996 8.158999999999999 -2.87356 -5.13619 -2.56312 -9.63359 -1.42882 -9.06644 3.44071Z"/><path id="Vector_14" fill="#0077b6" stroke-width="2" d="m298.68507 164.98692 -5.174 1.81488c3.47852 1.43678 6.965 1.24176 7.90428 -1.66961l-2.73028 -0.14526999999999998Z"/><path id="Vector_15" fill="#0077b6" stroke-width="2" d="M189.08203899999998 382.37850000000003c-0.4378 -4.41183 -1.402552 -8.75401 -2.87356 -12.935 -8.067659 2.30641 -16.620281000000002 2.30641 -24.68794 0 -10.69824 3.10042 -22.91087 12.58874 -29.30076 18.56272 21.47409 0 35.69065 -0.18905 52.02258 -0.22686 0.684759 0.00199 1.361757 -0.14129 1.987214 -0.42188 0.625258 -0.2786 1.184647 -0.68456 1.641551 -1.1959899999999999 0.456904 -0.50944 0.800975 -1.1104200000000002 1.009726 -1.76115 0.20855200000000002 -0.6527200000000001 0.27720700000000004 -1.3412600000000001 0.20118899999999998 -2.02184Z"/><path id="Vector_16" fill="#0077b6" stroke-width="2" d="m308.93158 350.09075 -7.03266 -3.7809999999999997c-2.7979399999999996 9.18783 -6.12522 11.91015 -14.783710000000001 17.581650000000003 4.34815 6.5033199999999995 3.32728 9.71717 2.83575 11.60568 -4.577 4.31034 -6.879429999999999 4.29243 -10.05547 12.536999999999999h15.92c2.13726 0.047760000000000004 4.24467 -0.5174 6.07348 -1.6258299999999999 1.82881 -1.10843 3.30141 -2.71635 4.24865 -4.63272 2.388 -5.174 4.378 -15.65135 6.6147599999999995 -21.81438 0.6965 -1.82682 0.69053 -3.84667 -0.01393 -5.669510000000001 -0.7064499999999999 -1.82284 -2.06164 -3.31932 -3.80687 -4.20089Z"/><path id="Vector_17" fill="#0077b6" stroke-width="2" d="M313.80708 110.27983c-0.01592 0.346061 -0.16716 0.671824 -0.42188 0.905848 -0.25472 0.23402399999999998 -0.59302 0.357006 -0.9392799999999999 0.341882 -0.34625999999999996 -0.014924999999999999 -0.67262 -0.166762 -0.90545 -0.42207900000000004 -0.23481999999999997 -0.255317 -0.35819999999999996 -0.59302 -0.34228 -0.9390809999999999 0.00796 -0.17114 0.047760000000000004 -0.339295 0.12139 -0.494714 0.07164 -0.155419 0.17512 -0.29511699999999996 0.30049 -0.410935 0.12736 -0.115818 0.27462000000000003 -0.205766 0.43581 -0.26447099999999996 0.16119 -0.05870499999999999 0.33233 -0.084973 0.50347 -0.07761 0.17114 0.007562 0.34029000000000004 0.048556 0.49551 0.120992 0.15522 0.072436 0.29452 0.17492100000000002 0.40993999999999997 0.301286 0.11542000000000001 0.126365 0.20695999999999998 0.27442099999999997 0.26467 0.43541199999999997 0.057710000000000004 0.16119 0.08557 0.33233 0.07761 0.50347Z"/><path id="Vector_18" fill="#0077b6" stroke-width="2" d="M91.010859 155.99013V95.99561l5.52026 -0.0059700000000000005v60.340779999999995c-3.36509 -0.6049599999999999 -4.99092 -0.6427700000000001 -5.52026 -0.34029000000000004Z"/><path id="Vector_19" fill="#0077b6" stroke-width="2" d="M242.88149 114.82300000000001c1.18405 -0.34029000000000004 2.20691 -1.090321 2.88749 -2.115967 0.68257 -1.0256459999999998 0.9751 -2.260242 0.82983 -3.4826989999999998 -0.14526999999999998 -1.222656 -0.72038 -2.3535730000000004 -1.62384 -3.190965 -0.90147 -0.8371930000000001 -2.07358 -1.326136 -3.3034 -1.379269 0.86565 -0.779682 1.44474 -1.828014 1.64374 -2.976244 0.199 -1.148429 0.00398 -2.330091 -0.5492400000000001 -3.355339 -0.55322 -1.025248 -1.43678 -1.834382 -2.50541 -2.2974550000000002 -1.0706200000000001 -0.463272 -2.26462 -0.553419 -3.3909599999999998 -0.256312 0.48755 -1.0361930000000001 0.6188899999999999 -2.203925 0.37412 -3.3227029999999997 -0.24278 -1.118579 -0.8477399999999999 -2.125917 -1.72135 -2.8661969999999997 -0.87361 -0.740081 -1.9661199999999999 -1.17211 -3.11037 -1.228825 -1.1422599999999998 -0.056914 -2.2725799999999996 0.26447099999999996 -3.21584 0.914405 0.13333 -1.187632 -0.14726 -2.384617 -0.79401 -3.389965 -0.64476 -1.005348 -1.61787 -1.7577669999999999 -2.75217 -2.13129 -1.1362899999999998 -0.373324 -2.3641199999999998 -0.34486700000000003 -3.48051 0.08079399999999999 -1.1183800000000002 0.42546199999999995 -2.05368 1.2222579999999998 -2.65267 2.256461 -0.22885 -1.238178 -0.8855500000000001 -2.357155 -1.8526900000000002 -3.1641000000000004 -0.96515 -0.806746 -2.18502 -1.2507149999999998 -3.4427 -1.255093 -1.25967 -0.0045769999999999995 -2.4815300000000002 0.430636 -3.45464 1.230616 -0.97311 0.79998 -1.6357799999999998 1.91438 -1.87458 3.1507669999999997 -0.5910299999999999 -1.038581 -1.52036 -1.842342 -2.63476 -2.276958 -1.1124100000000001 -0.434616 -2.3402399999999997 -0.47362 -3.47852 -0.110246 -1.13828 0.36337400000000003 -2.11736 1.1066390000000002 -2.77406 2.105818 -0.65471 0.99898 -0.94724 2.1929800000000004 -0.8278399999999999 3.381806 -0.936494 -0.65869 -2.064028 -0.9908210000000001 -3.208278 -0.9452499999999999 -1.14425 0.045571 -2.2417350000000003 0.46625700000000003 -3.123106 1.197184 -0.88157 0.731126 -1.498072 1.731698 -1.754583 2.847889 -0.256511 1.1159919999999999 -0.138703 2.285515 0.33511599999999997 3.327877 -1.1227580000000001 -0.298102 -2.312977 -0.213129 -3.3822039999999998 0.241586 -1.069028 0.454516 -1.955971 1.252904 -2.520136 2.268401 -0.5641649999999999 1.015696 -0.773513 2.190393 -0.594612 3.338424 0.178702 1.147832 0.735305 2.203328 1.5816519999999998 2.9991290000000004 -1.22982 0.04378 -2.4041189999999997 0.522375 -3.314146 1.350812 -0.9100269999999999 0.828437 -1.4966789999999999 1.9527869999999998 -1.655481 3.173055 -0.158802 1.220268 0.120395 2.4574510000000003 0.788239 3.491057 0.667645 1.033606 1.680356 1.79697 2.8580379999999996 2.153976 -1.179473 0.348051 -2.197358 1.103256 -2.872366 2.13129 -0.675008 1.028034 -0.96316 2.262232 -0.813512 3.482898 0.149847 1.2206659999999998 0.727942 2.348598 1.631203 3.1830049999999996 0.90346 0.834407 2.073779 1.321161 3.302405 1.373697 -0.855302 0.788836 -1.421656 1.841546 -1.6083180000000001 2.9901739999999997 -0.18646300000000002 1.148628 0.017313 2.326509 0.57909 3.345389 0.561777 1.019079 1.4489189999999998 1.820253 2.519738 2.2757639999999997 1.070819 0.455312 2.263426 0.538494 3.38698 0.236213 -0.385065 0.8180890000000001 -0.5488419999999999 1.722942 -0.47541100000000003 2.624014 0.07343100000000001 0.901271 0.38188099999999997 1.767518 0.894505 2.512375 0.512624 0.744857 1.211313 1.342454 2.026815 1.733091 0.815502 0.390637 1.718962 0.560782 2.620631 0.49352 -2.30641 -1.8526900000000002 -3.13823 -5.97 0.6427700000000001 -14.7061 6.7299809999999995 -15.53792 12.891021 -4.68844 12.815401 1.6258299999999999 0.11343 1.1342999999999999 0.7562 1.3611600000000001 2.45765 -0.037809999999999996 3.55414 -2.94918 6.65456 3.2516599999999998 -0.11343 6.80381 -1.2855400000000001 0.68257 -2.15517 2.189 -1.05868 10.546999999999999 0.06766 0.597796 0.16716 1.1910150000000002 0.30247999999999997 1.77707 0.73829 0.37750300000000003 1.55419 0.575707 2.3820300000000003 0.578692 0.8278399999999999 0.0029850000000000002 1.64573 -0.189249 2.38601 -0.5611799999999999 0.7402799999999999 -0.371931 1.38305 -0.913211 1.87458 -1.579662 0.49152999999999997 -0.6666500000000001 0.8198799999999999 -1.4395660000000001 0.95719 -2.2566599999999997 0.58307 1.0443520000000002 1.50842 1.85667 2.61884 2.300639 1.1104200000000002 0.443969 2.3402399999999997 0.492923 3.4825 0.138504 1.1422599999999998 -0.35441900000000004 2.1293 -1.0905200000000002 2.7939599999999998 -2.085321 0.66267 -0.994602 0.96515 -2.187408 0.8557 -3.378622 0.9293300000000001 0.667446 2.05169 1.010124 3.1959400000000002 0.9751 1.1422599999999998 -0.035024 2.24273 -0.44576 3.12828 -1.168528 0.88754 -0.722967 1.51041 -1.717768 1.77508 -2.830576 0.26467 -1.112808 0.15522 -2.281734 -0.31243 -3.326086 1.1203699999999999 0.301883 2.3084 0.222084 3.37703 -0.22686 1.06863 -0.448745 1.95816 -1.241163 2.5253099999999997 -2.251884 0.56914 -1.0105220000000001 0.78406 -2.1816370000000003 0.61093 -3.328275 -0.17114 -1.146638 -0.72038 -2.203129 -1.56016 -3.0027109999999997 1.21788 -0.055918999999999996 2.37805 -0.537698 3.27753 -1.361359 0.8994800000000001 -0.823462 1.4805599999999999 -1.9366679999999998 1.64374 -3.145195 0.16119 -1.208527 -0.10547 -2.435959 -0.75421 -3.467774 -0.65073 -1.031815 -1.6417499999999998 -1.80294 -2.80192 -2.178652Z"/></g><g id="outlines"><path id="Vector_20" stroke="#120071" stroke-width="2" d="M128.703449 167.9361c1.378274 0 2.49546 -1.117186 2.49546 -2.49546 0 -1.378075 -1.117186 -2.49546 -2.49546 -2.49546 -1.378075 0 -2.49546 1.117385 -2.49546 2.49546 0 1.378274 1.117385 2.49546 2.49546 2.49546Z"/><path id="Vector_21" stroke="#120071" stroke-width="2" d="M151.162589 186.99233999999998c0 0.49371899999999996 -0.14626499999999998 0.9760949999999999 -0.420487 1.386433 -0.274222 0.410338 -0.664063 0.73033 -1.119972 0.9191809999999999 -0.455909 0.188851 -0.957787 0.238203 -1.4417550000000001 0.141887 -0.48416699999999996 -0.09611700000000001 -0.928733 -0.333922 -1.277779 -0.6827690000000001 -0.349046 -0.349046 -0.5866520000000001 -0.7938109999999999 -0.682968 -1.277779 -0.096316 -0.48416699999999996 -0.046765 -0.985846 0.14208600000000002 -1.4417550000000001 0.188851 -0.45610799999999996 0.508644 -0.84575 0.918982 -1.119972 0.41053700000000004 -0.274222 0.892913 -0.420686 1.386433 -0.420686 0.6602819999999999 0.005373 1.291908 0.269844 1.7587620000000002 0.736698 0.467053 0.466854 0.731524 1.098679 0.736698 1.7587620000000002Z"/><path id="Vector_22" stroke="#120071" stroke-width="2" d="M174.48917 168.84354000000002c0 0.49371899999999996 -0.14626499999999998 0.9760949999999999 -0.420487 1.386433 -0.274222 0.410338 -0.663864 0.73033 -1.119972 0.9191809999999999 -0.455909 0.188851 -0.957588 0.238203 -1.4417550000000001 0.141887 -0.483968 -0.09611700000000001 -0.928733 -0.333922 -1.277779 -0.682968 -0.348847 -0.348847 -0.5866520000000001 -0.793612 -0.682968 -1.27758 -0.09611700000000001 -0.48416699999999996 -0.046765 -0.985846 0.14208600000000002 -1.441954 0.188851 -0.455909 0.508644 -0.8455509999999999 0.9191809999999999 -1.119773 0.410338 -0.274222 0.892714 -0.420686 1.386234 -0.420686 0.660083 0.005770999999999999 1.29151 0.27064 1.758364 0.737295 0.466655 0.466854 0.731524 1.098082 0.737096 1.758165Z"/><path id="Vector_23" stroke="#120071" stroke-width="2" d="M200.12236 190.16639c0 0.49371899999999996 -0.14526999999999998 0.976493 -0.41989 1.38703 -0.27263000000000004 0.410736 -0.66267 0.730728 -1.118977 0.9199769999999999 -0.455909 0.189249 -0.957787 0.23879999999999998 -1.441954 0.142882 -0.48416699999999996 -0.09611700000000001 -0.928932 -0.333723 -1.278177 -0.68257 -0.34924499999999997 -0.348847 -0.58705 -0.793612 -0.6835650000000001 -1.27758 -0.096316 -0.48416699999999996 -0.047163 -0.986045 0.141688 -1.442153 0.188851 -0.45610799999999996 0.508644 -0.845949 0.9191809999999999 -1.1201709999999998 0.410338 -0.27442099999999997 0.892913 -0.420885 1.386433 -0.420885 0.659884 0.005770999999999999 1.2909130000000002 0.270242 1.756971 0.736698 0.46764999999999995 0.46625700000000003 0.73232 1.097087 0.73829 1.756772Z"/><path id="Vector_24" stroke="#120071" stroke-width="2" d="M221.89893 168.84354000000002c0 0.49371899999999996 -0.14726 0.9760949999999999 -0.41989 1.386433 -0.27462000000000003 0.410338 -0.66466 0.73033 -1.1203699999999999 0.9191809999999999 -0.45571 0.188851 -0.95719 0.238203 -1.44275 0.141887 -0.48357 -0.09611700000000001 -0.92734 -0.333922 -1.27758 -0.682968 -0.34825 -0.348847 -0.5850599999999999 -0.793612 -0.68257 -1.27758 -0.09552000000000001 -0.48416699999999996 -0.04577 -0.985846 0.14129 -1.441954 0.18905 -0.455909 0.50944 -0.8455509999999999 0.9193800000000001 -1.119773 0.41192999999999996 -0.274222 0.89351 -0.420686 1.38703 -0.420686 0.66068 0.005770999999999999 1.29151 0.27064 1.75916 0.737295 0.46566 0.466854 0.73033 1.098082 0.7363 1.758165Z"/><path id="Vector_25" stroke="#120071" stroke-width="2" d="M249.12014000000002 170.28032c0 0.49352 -0.14726 0.9760949999999999 -0.41989 1.386433 -0.27462000000000003 0.410338 -0.66466 0.73033 -1.1203699999999999 0.9191809999999999 -0.45571 0.188851 -0.95719 0.238203 -1.44275 0.141887 -0.48357 -0.096316 -0.92734 -0.333922 -1.27758 -0.682968 -0.34825 -0.348847 -0.58705 -0.793612 -0.68257 -1.27758 -0.09552000000000001 -0.48416699999999996 -0.04577 -0.985846 0.14129 -1.441954 0.18905 -0.455909 0.50944 -0.8455509999999999 0.9193800000000001 -1.119773 0.41192999999999996 -0.274222 0.89351 -0.420686 1.38703 -0.420686 0.66068 0.005770999999999999 1.29151 0.270441 1.75916 0.737295 0.46566 0.466655 0.73033 1.098082 0.7363 1.758165Z"/><path id="Vector_26" stroke="#120071" stroke-width="2" d="M276.75726000000003 168.84354000000002c1.3790699999999998 0 2.49546 -1.117186 2.49546 -2.49546 0 -1.378075 -1.11639 -2.49546 -2.49546 -2.49546 -1.3770799999999999 0 -2.49546 1.117385 -2.49546 2.49546 0 1.378274 1.1183800000000002 2.49546 2.49546 2.49546Z"/><path id="Vector_27" stroke="#120071" stroke-width="2" d="M265.90579 193.22899999999998c0 0.49352 -0.14726 0.9760949999999999 -0.41989 1.386433 -0.27462000000000003 0.410338 -0.66466 0.730131 -1.1203699999999999 0.9191809999999999 -0.45571 0.188851 -0.95719 0.238203 -1.44275 0.141887 -0.48357 -0.096316 -0.92734 -0.333922 -1.27758 -0.682968 -0.34825 -0.348847 -0.5850599999999999 -0.793612 -0.68257 -1.27758 -0.09552000000000001 -0.48416699999999996 -0.04577 -0.985846 0.14129 -1.441954 0.18905 -0.455909 0.50944 -0.84575 0.9193800000000001 -1.119773 0.41192999999999996 -0.274222 0.89351 -0.420686 1.38703 -0.420686 0.32835000000000003 -0.0033829999999999997 0.65471 0.05870499999999999 0.9591799999999999 0.182881 0.30447 0.124176 0.5810799999999999 0.307853 0.8139099999999999 0.540285 0.23084000000000002 0.232432 0.41591 0.5090420000000001 0.53929 0.8133130000000001 0.12537 0.304271 0.18706 0.6304320000000001 0.18308 0.958981Z"/><path id="Vector_28" stroke="#120071" stroke-width="2" d="M313.80708 110.27983c-0.01592 0.346061 -0.16716 0.671824 -0.42188 0.905848 -0.25472 0.23402399999999998 -0.59302 0.357006 -0.9392799999999999 0.341882 -0.34625999999999996 -0.014924999999999999 -0.67262 -0.166762 -0.90545 -0.42207900000000004 -0.23481999999999997 -0.255317 -0.35819999999999996 -0.59302 -0.34228 -0.9390809999999999 0.00796 -0.17114 0.047760000000000004 -0.339295 0.12139 -0.494714 0.07164 -0.155419 0.17512 -0.29511699999999996 0.30049 -0.410935 0.12736 -0.115818 0.27462000000000003 -0.205766 0.43581 -0.26447099999999996 0.16119 -0.05870499999999999 0.33233 -0.084973 0.50347 -0.07761 0.17114 0.007562 0.34029000000000004 0.048556 0.49551 0.120992 0.15522 0.072436 0.29452 0.17492100000000002 0.40993999999999997 0.301286 0.11542000000000001 0.126365 0.20695999999999998 0.27442099999999997 0.26467 0.43541199999999997 0.057710000000000004 0.16119 0.08557 0.33233 0.07761 0.50347Z"/><path id="Vector_29" stroke="#120071" stroke-linecap="round" stroke-linejoin="round" stroke-width="2" d="M90.97245199999999 155.99013V95.98964"/><path id="Vector_30" stroke="#120071" stroke-linecap="round" stroke-linejoin="round" stroke-width="2" d="M90.97245199999999 169.10820999999999v-12.21064"/><path id="Vector_31" stroke="#120071" stroke-linecap="round" stroke-linejoin="round" stroke-width="2" d="M90.97245199999999 388.05V183.62725"/><path id="Vector_32" stroke="#120071" stroke-linecap="round" stroke-linejoin="round" stroke-width="2" d="M96.530522 180.22435V388.05"/><path id="Vector_33" stroke="#120071" stroke-linecap="round" stroke-linejoin="round" stroke-width="2" d="M96.530522 160.60295v6.27447"/><path id="Vector_34" stroke="#120071" stroke-linecap="round" stroke-linejoin="round" stroke-width="2" d="M96.530522 95.98964v60.340779999999995"/><path id="Vector_35" stroke="#120071" stroke-linecap="round" stroke-linejoin="round" stroke-width="2" d="M297.2861 169.902419c9.46245 21.474687 10.6266 45.696171 3.26559 67.978201 -7.35902 22.28402 -22.721819999999997 41.04574 -43.11335 52.65938"/><path id="Vector_36" stroke="#120071" stroke-linecap="round" stroke-linejoin="round" stroke-width="2" d="M129.79934200000002 158.63683c7.970348 -12.990322 18.955546 -23.867064999999997 32.024075 -31.708063 6.227705 -3.736424 12.840873 -6.730976 19.704184 -8.941666999999999m103.29313900000001 31.28479c-9.476379999999999 -11.936418 -21.691 -21.411604 -35.60906 -27.622394 -0.9154 -0.408746 -1.83677 -0.802567 -2.76411 -1.181463"/><path id="Vector_37" stroke="#120071" stroke-linecap="round" stroke-linejoin="round" stroke-width="2" d="M173.95983 295.57271c-17.224643999999998 -7.22171 -31.932136999999997 -19.37066 -42.276157 -34.920519999999996 -10.34402 -15.55185 -15.863484 -33.81209 -15.865673 -52.488240000000005 -0.000398 -9.322155 1.360563 -18.594559999999998 4.0395010000000005 -27.52369"/><path id="Vector_38" stroke="#120071" stroke-linecap="round" stroke-linejoin="round" stroke-width="2" d="M226.51175 301.58450000000005c-5.23171 1.10246 -10.57884 1.54623 -15.92 1.32335 -2.587 0 -5.187930000000001 -0.10347999999999999 -7.74906 -0.30845"/><path id="Vector_39" stroke="#120071" stroke-linecap="round" stroke-linejoin="round" stroke-width="2" d="M300.65119 166.49932c-7.410760000000001 7.410760000000001 -17.211509999999997 18.14084 -27.33464 30.35944 -2.5253099999999997 3.05863 -6.12124 5.03868 -10.053479999999999 5.53618 -3.9342300000000003 0.49949 -7.9102500000000004 -0.5213800000000001 -11.118129999999999 -2.85167 -8.885349999999999 -6.463520000000001 -14.89714 -11.11415 -24.65013 -18.26024"/><path id="Vector_40" stroke="#120071" stroke-linecap="round" stroke-linejoin="round" stroke-width="2" d="m202.83671999999999 145.88292 3.06858 -4.37402"/><path id="Vector_41" stroke="#120071" stroke-linecap="round" stroke-linejoin="round" stroke-width="2" d="M283.1173 150.33057000000002c-8.328149999999999 7.226685 -15.79065 15.392849 -22.24024 24.33571 0 0 -18.86719 -15.79861 -31.79423 -23.667070000000002 -13.34892 -8.12517 -16.48914 5.2934 -17.95975 -5.86055 -1.10047 -8.358 -0.22686 -9.8704 1.05868 -10.546999999999999 6.766 -3.56608 3.65563 -9.770900000000001 0.11343 -6.8058 -2.10741 1.76513 -2.34422 0.995 -2.43377 -0.65471 -0.35024 -6.368 -6.3142700000000005 -15.92 -12.80167 -0.93331 -9.154 21.133799999999997 8.845550000000001 15.31106 8.845550000000001 15.31106"/><path id="Vector_42" stroke="#120071" stroke-linecap="round" stroke-linejoin="round" stroke-width="2" d="M202.95612 142.1258c0.22487000000000001 3.2397199999999997 -0.30447 8.45949 -3.51434 7.7013 -8.2386 -1.94622 -11.76488 -0.6527200000000001 -16.44735 2.985 -9.3132 7.2396199999999995 -28.242279 17.957759999999997 -28.242279 17.957759999999997 -11.227580000000001 -6.766 -19.356531 -9.677370000000002 -29.827910999999997 -14.17676 -5.547125 6.129797 -8.769333 14.010197 -9.10624 22.27009 14.925 6.389889999999999 20.644260000000003 10.053479999999999 32.325559999999996 15.76478 2.6164519999999998 1.2871320000000002 5.514489 1.896072 8.427849 1.7705030000000002 2.913161 -0.12556900000000001 5.748115 -0.981468 8.244172 -2.488893 7.3411100000000005 -4.4496400000000005 14.25238 -8.54307 21.77657 -12.51312"/><path id="Vector_43" stroke="#120071" stroke-linecap="round" stroke-linejoin="round" stroke-width="2" d="M291.34993000000003 150.39425c-4.507350000000001 -2.25467 -8.52118 -1.65966 -9.06047 1.80692 -0.46367 2.985 1.5621500000000001 6.5073 3.48847 8.81769 2.68849 3.380811 6.47546 5.7150810000000005 10.70421 6.59884 0.9830599999999999 0.274819 2.03378 0.172334 2.9452 -0.287555 0.91142 -0.459889 1.61787 -1.24375 1.98204 -2.197955"/><path id="Vector_44" stroke="#120071" stroke-linecap="round" stroke-linejoin="round" stroke-width="2" d="M184.24216 165.55407c0.818686 12.487648 4.014029 24.704058999999997 9.41469 35.99313 11.542 3.06261 20.90694 2.34422 32.59023 -1.2099199999999999 -0.9193800000000001 -8.749632 0.23481999999999997 -17.592595 3.36509 -25.81428"/><path id="Vector_45" stroke="#120071" stroke-linecap="round" stroke-linejoin="round" stroke-width="2" d="M293.5051 166.801999c5.36106 -2.066217 10.87137 -3.721499 16.48516 -4.9511199999999995 5.03072 -0.861073 10.145019999999999 -1.114997 15.235439999999999 -0.7562 7.48837 0.44178 8.68436 -1.25171 0.9452499999999999 -3.8944300000000003 -2.83973 -0.97112 -17.352800000000002 -3.0267899999999996 -20.566650000000003 -3.47852 -5.1421600000000005 -0.72237 -12.736 -1.47459 -17.770699999999998 -1.6258299999999999 -0.38208000000000003 0.000796 -0.7641600000000001 0.024676 -1.1422599999999998 0.07164"/><path id="Vector_46" stroke="#120071" stroke-linecap="round" stroke-linejoin="round" stroke-width="2" d="M282.27752000000004 153.827199c0.10746 -0.06766 17.55578 -6.566999999999999 24.49889 -9.751000000000001 8.05751 -3.7033899999999997 5.88841 -0.83978 3.81881 1.6258299999999999 -1.52036 1.80891 -9.03659 6.8058 -4.99092 8.01572"/><path id="Vector_47" stroke="#120071" stroke-linecap="round" stroke-linejoin="round" stroke-width="2" d="M298.64726 164.971c4.577 -1.0964900000000002 13.6116 -0.14526999999999998 17.61747 0.08358 3.2516599999999998 0.18706 7.9779100000000005 1.2537 11.60767 1.592 0.83182 0.07761 1.73926 -1.1342999999999999 -3.10042 -3.10042 -1.81687 -0.73431 -5.01878 -2.06164 -6.53118 -2.5273"/><path id="Vector_48" stroke="#120071" stroke-linecap="round" stroke-linejoin="round" stroke-width="2" d="M298.45423 165.05458c3.7650799999999998 0.01393 7.51623 0.42207900000000004 11.19574 1.21788 2.985 0.6805800000000001 7.98786 2.5690899999999997 11.189770000000001 3.44071 0.796 0.21691 1.8904999999999998 -0.83182 -2.53327 -3.5919499999999998 -0.33432 -0.22288 -0.96117 -0.597 -1.70145 -1.0348"/><path id="Vector_49" stroke="#120071" stroke-linecap="round" stroke-linejoin="round" stroke-width="2" d="M116.15232 175.4981c-6.105917 -0.905251 -12.279295 -1.2722069999999999 -18.44929 -1.0964900000000002 -5.0957930000000005 0.38944300000000004 -10.131289 1.353399 -15.01057 2.87356 -7.18191 2.23278 -8.756 0.8198799999999999 -1.8526900000000002 -3.582 11.656623999999999 -5.556677 23.713238 -10.232381 36.06875 -13.98771 1.7527920000000001 -0.478794 3.608268 -0.426059 5.33121 0.15123999999999999"/><path id="Vector_50" stroke="#120071" stroke-linecap="round" stroke-linejoin="round" stroke-width="2" d="M100.158491 165.44064c3.62976 -2.15517 -4.94913 -5.174 -6.841620000000001 -6.566999999999999 -2.5690899999999997 -1.89448 -5.40285 -4.1392 3.32728 -2.49546 7.312454 1.488918 14.714457999999999 2.498047 22.158649999999998 3.02082"/><path id="Vector_51" stroke="#120071" stroke-linecap="round" stroke-linejoin="round" stroke-width="2" d="M89.422242 175.57371999999998c-1.592 0.9830599999999999 -4.760079999999999 3.2954399999999997 -5.6715 3.98 -4.179 3.09047 -3.06062 4.05164 -2.2685999999999997 3.7809999999999997 3.14619 -1.0746 7.9779100000000005 -3.36509 10.889280000000001 -4.27253 4.72625 -1.47459 13.79866 -4.61282 18.108999999999998 -4.1591"/><path id="Vector_52" stroke="#120071" stroke-linecap="round" stroke-linejoin="round" stroke-width="2" d="M92.106752 179.12786c-0.6427700000000001 0.6427700000000001 -1.1342999999999999 1.17211 -1.43678 1.43678 -3.62976 3.7053800000000003 -2.35019 4.489439999999999 -1.6258299999999999 4.08348 2.88948 -1.6258299999999999 7.299320000000001 -4.60486 10.05746 -5.97 3.370065 -1.5912039999999998 6.874256 -2.8819179999999998 10.47138 -3.85662"/><path id="Vector_53" stroke="#120071" stroke-linecap="round" stroke-linejoin="round" stroke-width="2" d="M189.081641 382.37850000000003c-0.4378 -4.41183 -1.402552 -8.75401 -2.87356 -12.935 -8.067659 2.30641 -16.620281000000002 2.30641 -24.68794 0 -10.69824 3.10042 -22.91087 12.58874 -29.30076 18.56272 21.47409 0 35.69065 -0.18905 52.02258 -0.22686 0.68456 0.00199 1.361757 -0.14129 1.9870150000000002 -0.42188 0.625457 -0.2786 1.184846 -0.68456 1.6417499999999998 -1.1959899999999999 0.456904 -0.50944 0.8007759999999999 -1.1104200000000002 1.0095269999999998 -1.76115 0.208751 -0.6527200000000001 0.277406 -1.3412600000000001 0.20138799999999998 -2.02184v0Z"/><path id="Vector_54" stroke="#120071" stroke-linecap="round" stroke-linejoin="round" stroke-width="2" d="M199.1393 310.27284c0.24875 10.556949999999999 -8.171338 31.48976 -12.935398000000001 59.21444"/><path id="Vector_55" stroke="#120071" stroke-linecap="round" stroke-linejoin="round" stroke-width="2" d="m161.52034 369.44946999999996 12.29024 -63.490950000000005"/><path id="Vector_56" stroke="#120071" stroke-linecap="round" stroke-linejoin="round" stroke-width="2" d="m215.318 263.55161999999996 -14.85734 46.50232c-9.790203 1.7233399999999999 -19.874329 -0.07164 -28.46894 -5.06654l21.66513 -103.4004"/><path id="Vector_57" stroke="#120071" stroke-linecap="round" stroke-linejoin="round" stroke-width="2" d="m308.96939 350.12856 -7.03266 -3.7809999999999997c-2.7979399999999996 9.185839999999999 -6.1690000000000005 11.90816 -14.821520000000001 17.57966 4.34815 6.5033199999999995 3.32728 9.71717 2.83575 11.60568 -4.577 4.31034 -6.879429999999999 4.25462 -10.05547 12.497200000000001h15.92c2.13726 0.047760000000000004 4.24467 -0.5174 6.07348 -1.6258299999999999 1.82682 -1.10843 3.30141 -2.71635 4.24865 -4.63272 2.388 -5.174 4.378 -15.65135 6.6147599999999995 -21.81438 0.6965 -1.81687 0.69451 -3.8247799999999996 -0.00398 -5.64165 -0.6984899999999999 -1.81488 -2.04572 -3.30539 -3.77901 -4.18696v0Z"/><path id="Vector_58" stroke="#120071" stroke-linecap="round" stroke-linejoin="round" stroke-width="2" d="M287.15302 363.92920999999996 241.59595 314.818"/><path id="Vector_59" stroke="#120071" stroke-linecap="round" stroke-linejoin="round" stroke-width="2" d="M261.4064 299.27808999999996c6.4078 5.27151 12.202679999999999 11.24549 17.27917 17.80851 6.95107 9.530109999999999 23.25116 29.253 23.25116 29.253"/><path id="Vector_60" stroke="#120071" stroke-linecap="round" stroke-linejoin="round" stroke-width="2" d="m205.90529999999998 227.70973 17.3926 66.35257c1.32136 5.03669 4.01781 9.603739999999998 7.788860000000001 13.1937l8.666450000000001 8.250539999999999c9.23559 -2.97704 17.13788 -9.09231 22.33377 -17.287129999999998l-7.82468 -12.935 -4.95311 -50.434560000000005c-1.8188600000000001 -18.7856 -13.03251 -31.738509999999998 -23.06211 -34.51854"/><path id="Vector_61" stroke="#120071" stroke-linecap="round" stroke-linejoin="round" stroke-width="2" d="M219.40347 148.27688999999998c-6.37198 8.013133 -11.43852 16.983257 -15.00858 26.57844 -5.02873 -8.280389999999999 -9.950199 -25.87 -9.950199 -25.87"/><path id="Vector_62" stroke="#120071" stroke-linecap="round" stroke-linejoin="round" stroke-width="2" d="M52.105762000000006 388.05H352.82501"/><path id="Vector_63" stroke="#120071" stroke-linecap="round" stroke-linejoin="round" stroke-width="2" d="M316.86969 76.670919c-14.97077 -2.83575 -29.253 5.97 -31.84 19.659209999999998 -0.87958 4.7959000000000005 -0.2587 9.746821 1.77906 14.17676l-6.46551 10.5868 12.25044 -2.49546c4.11333 3.94418 9.29131 6.599039 14.895150000000001 7.63762 14.97077 2.83575 29.253 -5.97 31.84 -19.659209999999998 2.6069 -13.68722 -7.44857 -27.069969999999998 -22.459139999999998 -29.905720000000002Z"/><path id="Vector_64" stroke="#120071" stroke-linecap="round" stroke-linejoin="round" stroke-width="2" d="M312.48373 104.5347c0.037809999999999996 -1.70145 0.69053 -2.94321 2.7979399999999996 -5.74712 4.54715 -6.047610000000001 1.791 -10.21467 -2.07955 -10.397749999999998 -0.6925199999999999 -0.030845 -1.38305 0.091142 -2.02184 0.357603 -0.63879 0.266262 -1.21191 0.670431 -1.67757 1.183453 -0.46566 0.513022 -0.8139099999999999 1.122559 -1.01689 1.784831 -0.20298 0.662272 -0.25671 1.361359 -0.1592 2.047113"/><path id="Vector_65" stroke="#120071" stroke-linecap="round" stroke-linejoin="round" stroke-width="2" d="M296.07618 287.78584h8.16696"/><path id="Vector_66" stroke="#120071" stroke-linecap="round" stroke-linejoin="round" stroke-width="2" d="M318.72238 287.74803h8.16696"/><path id="Vector_67" stroke="#120071" stroke-linecap="round" stroke-linejoin="round" stroke-width="2" d="M311.48276 272.35936v8.16696"/><path id="Vector_68" stroke="#120071" stroke-linecap="round" stroke-linejoin="round" stroke-width="2" d="M311.52057 295.00755v8.16497"/><path id="Vector_69" stroke="#120071" stroke-linecap="round" stroke-linejoin="round" stroke-width="2" d="m300.57557 276.89656 5.78493 5.74712"/><path id="Vector_70" stroke="#120071" stroke-linecap="round" stroke-linejoin="round" stroke-width="2" d="m316.64283 292.89019 5.78493 5.74513"/><path id="Vector_71" stroke="#120071" stroke-linecap="round" stroke-linejoin="round" stroke-width="2" d="m322.38995 276.85875 -5.78493 5.78493"/><path id="Vector_72" stroke="#120071" stroke-linecap="round" stroke-linejoin="round" stroke-width="2" d="m306.39831 292.89019 -5.78493 5.78294"/><path id="Vector_73" stroke="#120071" stroke-linecap="round" stroke-linejoin="round" stroke-width="2" d="M52.257200999999995 95.98964c-1.241561 -0.002587 -2.460635 -0.331335 -3.535036 -0.9534090000000001s-1.966518 -1.515584 -2.587 -2.591179c-0.6202829999999999 -1.075396 -0.947041 -2.294868 -0.947638 -3.5364289999999996 -0.000597 -1.241561 0.32516599999999996 -2.46163 0.944454 -3.537623l41.47558 -71.8767503c0.6232679999999999 -1.0776248 1.518967 -1.9723487 2.597149 -2.5944028 1.078182 -0.6220342000000001 2.3012360000000003 -0.9494887 3.5459810000000003 -0.9494887 1.244944 0 2.467799 0.3274545 3.5459810000000003 0.9494887 1.078381 0.6220540999999999 1.97408 1.516778 2.597149 2.5944028L141.369401 85.371c0.6214770000000001 1.0761919999999998 0.949031 2.296858 0.9494290000000001 3.539414 0.000597 1.242755 -0.325962 2.46362 -0.946643 3.5402099999999996 -0.620681 1.0765900000000002 -1.513594 1.970896 -2.5891889999999997 2.593169 -1.0755949999999999 0.622273 -2.296062 0.950424 -3.538817 0.951817l-82.98698 -0.0059700000000000005Z"/><path id="Vector_74" stroke="#120071" stroke-linecap="round" stroke-linejoin="round" stroke-width="2" d="M152.74841999999998 54.44043c0.067063 0.747643 -0.08895299999999999 1.4982710000000001 -0.448546 2.1569610000000004 -0.359593 0.6588890000000001 -0.9064450000000001 1.196388 -1.571304 1.54424 -0.665058 0.348051 -1.418273 0.49113199999999996 -2.164523 0.411134 -0.74625 -0.079998 -1.452103 -0.379493 -2.028009 -0.860675 -0.576105 -0.481182 -0.996592 -1.1223599999999998 -1.208129 -1.842342 -0.21173599999999998 -0.720181 -0.205169 -1.486729 0.018904999999999998 -2.203129 0.22407400000000002 -0.7163999999999999 0.655506 -1.350215 1.23977 -1.821248 0.584264 -0.47123200000000004 1.2950920000000001 -0.758389 2.042536 -0.825651 1.001965 -0.08736100000000001 1.9977610000000001 0.225666 2.769682 0.870426 0.7719210000000001 0.644561 1.257282 1.568916 1.349618 2.570284v0Z"/><path id="Vector_75" stroke="#120071" stroke-linecap="round" stroke-linejoin="round" stroke-width="2" d="M121.99297 329.75096v15.27524"/><path id="Vector_76" stroke="#120071" stroke-linecap="round" stroke-linejoin="round" stroke-width="2" d="M129.648102 337.38858h-15.31106"/><path id="Vector_77" stroke="#120071" stroke-linecap="round" stroke-linejoin="round" stroke-width="2" d="M211.42556 146.91573c0.73033 0.39242799999999994 1.5422500000000001 0.6049599999999999 2.37208 0.6196860000000001 0.8278399999999999 0.014726000000000001 1.6477199999999999 -0.16855299999999998 2.3919799999999998 -0.534713 0.74227 -0.36616 1.38902 -0.904654 1.88055 -1.570508 0.49352 -0.6658540000000001 0.82187 -1.439765 0.9551999999999999 -2.257655 0.58307 1.0443520000000002 1.50842 1.85667 2.61884 2.300639 1.1104200000000002 0.444168 2.3402399999999997 0.492923 3.4825 0.138504 1.1422599999999998 -0.35441900000000004 2.1293 -1.0905200000000002 2.79197 -2.085321 0.66466 -0.994602 0.96714 -2.187408 0.85769 -3.378622 0.9293300000000001 0.667446 2.05169 1.010124 3.1959400000000002 0.9751 1.1422599999999998 -0.035024 2.24273 -0.445561 3.12828 -1.168528 0.88754 -0.722967 1.51041 -1.717768 1.77508 -2.830576 0.26467 -1.112808 0.15522 -2.281734 -0.31243 -3.326086 0.78008 0.21750699999999998 1.5979700000000001 0.249745 2.39397 0.093928 0.79401 -0.156016 1.54026 -0.49551 2.17905 -0.9916170000000001 0.63879 -0.49610699999999996 1.1542 -1.134897 1.50245 -1.865227 0.34825 -0.730529 0.5213800000000001 -1.5323 0.50347 -2.341434 -0.011940000000000001 -0.69451 -0.16318000000000002 -1.379667 -0.44178 -2.0156709999999998 -0.2786 -0.636203 -0.6805800000000001 -1.2105169999999998 -1.18405 -1.689709 1.3611600000000001 -0.038009 2.65267 -0.6111289999999999 3.59394 -1.5949849999999999 0.9412699999999999 -0.983856 1.45668 -2.299047 1.43479 -3.660605 -0.0199 -1.100271 -0.38407 -2.166712 -1.0427600000000001 -3.048481 -0.6567000000000001 -0.881968 -1.5760800000000001 -1.535086 -2.62481 -1.866819 1.09251 -0.321584 2.05368 -0.989428 2.7342600000000004 -1.903037 0.68257 -0.91341 1.04873 -2.023631 1.04674 -3.163503 -0.01791 -1.328524 -0.5452600000000001 -2.599537 -1.47459 -3.549563 -0.9293300000000001 -0.949827 -2.189 -1.505833 -3.51633 -1.552797 0.78406 -0.709833 1.3333000000000002 -1.641352 1.57409 -2.670779 0.24278 -1.0294269999999999 0.16517 -2.1082059999999996 -0.22089 -3.092858 -0.38407 -0.9844529999999999 -1.06067 -1.828611 -1.9382599999999999 -2.4198399999999998 -0.8756 -0.5914280000000001 -1.9123899999999998 -0.902067 -2.96908 -0.890923 -0.42188 0.009353 -0.84177 0.072834 -1.24773 0.18905 0.48556 -1.0361930000000001 0.6188899999999999 -2.203925 0.37412 -3.3227029999999997 -0.24278 -1.118579 -0.8477399999999999 -2.125917 -1.72135 -2.8661969999999997 -0.87361 -0.740081 -1.9661199999999999 -1.17211 -3.11037 -1.228825 -1.1422599999999998 -0.056914 -2.2725799999999996 0.26447099999999996 -3.21584 0.914405 0.13134 -1.187632 -0.14726 -2.384617 -0.79401 -3.389965 -0.64675 -1.005348 -1.61787 -1.7577669999999999 -2.7541599999999997 -2.13129 -1.1342999999999999 -0.373324 -2.3641199999999998 -0.34486700000000003 -3.48051 0.08079399999999999 -1.11639 0.42546199999999995 -2.05169 1.2222579999999998 -2.65068 2.256461 -0.84376 -5.81279 -9.71518 -5.94811 -10.62461 -0.037809999999999996 -0.5910299999999999 -1.0383820000000001 -1.52036 -1.842342 -2.63476 -2.276958 -1.1124100000000001 -0.434616 -2.3402399999999997 -0.47362 -3.47852 -0.110246 -1.14027 0.36337400000000003 -2.11736 1.1066390000000002 -2.77406 2.105818 -0.65471 0.99898 -0.94724 2.1929800000000004 -0.8278399999999999 3.381806 -0.936892 -0.65869 -2.064426 -0.9908210000000001 -3.208676 -0.9452499999999999 -1.14425 0.045571 -2.2417350000000003 0.46625700000000003 -3.123106 1.197184 -0.88157 0.731126 -1.498072 1.731698 -1.754583 2.847889 -0.256511 1.1159919999999999 -0.138703 2.285515 0.33531500000000003 3.327877 -1.124748 -0.305863 -2.3193449999999998 -0.22606400000000001 -3.393149 0.226661 -1.0740029999999998 0.452924 -1.965125 1.252506 -2.531081 2.271386 -0.565956 1.018681 -0.7741100000000001 2.197756 -0.5912289999999999 3.3487720000000003 0.182881 1.151016 0.74625 2.207507 1.600159 3.000721 -1.233402 0.038208 -2.412676 0.514017 -3.3270809999999997 1.342454s-1.503843 1.955175 -1.6632419999999999 3.178826c-0.1592 1.223452 0.122385 2.46362 0.794209 3.49842 0.672023 1.034999 1.690306 1.7967710000000001 2.872764 2.1492 -1.184448 0.343275 -2.207706 1.097087 -2.886893 2.126315 -0.679187 1.029228 -0.969727 2.266411 -0.819482 3.49046 0.15004599999999998 1.2238499999999999 0.731126 2.354369 1.638765 3.1887760000000003 0.907838 0.834407 2.083132 1.318574 3.31534 1.365339 -0.855501 0.788836 -1.421855 1.841745 -1.6083180000000001 2.9901739999999997 -0.186662 1.148628 0.017313 2.326509 0.57909 3.345389 0.561578 1.019079 1.4489189999999998 1.820253 2.519738 2.2757639999999997 1.0706200000000001 0.455312 2.263227 0.538494 3.38698 0.236213 -0.39342299999999997 0.829631 -0.558991 1.749011 -0.47958999999999996 2.663814 0.07920200000000001 0.914803 0.400587 1.791995 0.930922 2.541429 0.530335 0.749633 1.2507149999999998 1.344444 2.086913 1.723738 0.836198 0.379095 1.758165 0.5289419999999999 2.6715750000000003 0.434019"/><path id="Vector_78" stroke="#120071" stroke-linecap="round" stroke-linejoin="round" stroke-width="2" d="m254.03544000000002 307.55848 -9.868409999999999 -11.75891"/><path id="Vector_79" stroke="#120071" stroke-linecap="round" stroke-linejoin="round" stroke-width="2" d="m189.61118 310.24299 4.045669999999999 -14.67028"/><path id="Vector_80" stroke="#120071" stroke-linecap="round" stroke-linejoin="round" stroke-width="2" d="M219.40347 213.49516c5.40683 6.53914 11.41862 9.29927 17.88214 9.22365"/><path id="Ellipse 1" stroke="#120071" stroke-width="2" d="M91.1221 75.03693a2.6268000000000002 2.6268000000000002 0 1 0 5.2536000000000005 0 2.6268000000000002 2.6268000000000002 0 1 0 -5.2536000000000005 0"/><path id="Vector 1" stroke="#120071" stroke-linecap="round" stroke-width="2" d="M93.711289 37.599059999999994v25.443941"/></g></g></svg>