<svg xmlns="http://www.w3.org/2000/svg" fill="none" viewBox="-1 -1 400 400" id="Page-Under-Construction--Streamline-Bangalore" height="400" width="400"><desc>Page Under Construction Streamline Illustration: https://streamlinehq.com</desc><g id="Product-Page-under-construction-01"><g id="color 2"><path id="Vector" fill="#fecfc4" d="M210.65344 263.89788H174.09315999999998l-81.51438 -40.45471h36.522470000000006l81.55219 40.45471Z" stroke-width="2"></path><path id="Vector_2" fill="#fecfc4" d="M277.87564 263.89788h-36.522470000000006l-81.55219 -40.45471h36.56028l81.51438 40.45471Z" stroke-width="2"></path><path id="Vector_3" fill="#fecfc4" d="M345.13764000000003 263.89788h-36.522470000000006l-81.55219 -40.45471h36.56028l81.51438 40.45471Z" stroke-width="2"></path><path id="Vector_4" fill="#fecfc4" d="M361.28251 238.52936v18.14681l-66.95952000000001 -33.233h36.56028l30.39924 15.08619Z" stroke-width="2"></path><path id="Vector_5" fill="#fecfc4" d="m300.14573 169.98182 -2.9352500000000004 5.02873 -6.366009999999999 -11.04052 -11.947959999999998 20.71988h29.71866l-8.46944 -14.70809Z" stroke-width="2"></path><path id="Vector_6" fill="#fecfc4" d="M143.393231 263.89788h-36.562270000000005l-32.13651 -15.955820000000001v-18.108999999999998l68.69878 34.06482Z" stroke-width="2"></path></g><g id="color 1"><path id="Vector_7" fill="#0077b6" d="M308.84203 340.08105h-29.907709999999998v-6.767989999999999h29.907709999999998v6.767989999999999Z" stroke-width="2"></path><path id="Vector_8" fill="#0077b6" d="m304.68293 331.12207 -19.58558 -9.679359999999999 2.15517 -9.8306 14.14094 7.03266 3.28947 12.4773Z" stroke-width="2"></path><path id="Vector_9" fill="#0077b6" d="m298.17960999999997 306.24309 -8.809729999999998 -4.385960000000001 1.47459 -6.88142h4.385960000000001l2.94918 11.26738Z" stroke-width="2"></path><path id="Vector_10" fill="#0077b6" d="M306.34657000000004 169.03656999999998c1.3989699999999998 0 2.53327 -1.134101 2.53327 -2.53327 0 -1.3989699999999998 -1.1342999999999999 -2.53327 -2.53327 -2.53327s-2.53327 1.1342999999999999 -2.53327 2.53327c0 1.3991689999999999 1.1342999999999999 2.53327 2.53327 2.53327Z" stroke-width="2"></path><path id="Vector_11" fill="#0077b6" d="m128.30724 138.072369 2.49546 4.31034c0.22686 -1.17211 0.49152999999999997 -2.2685999999999997 0.597 -2.6088899999999997 -1.067038 -0.49909200000000004 -2.100047 -1.067436 -3.09246 -1.70145Z" stroke-width="2"></path><path id="Vector_12" fill="#0077b6" d="m140.02834 117.12741999999999 -3.85662 1.43479c-0.505062 -1.258874 -1.293301 -2.384617 -2.303823 -3.28947 -1.0105220000000001 -0.905052 -2.216064 -1.564737 -3.522897 -1.92831 0.24576499999999998 -0.155419 0.43998899999999996 -0.379891 0.5583940000000001 -0.645357 0.118604 -0.265466 0.15581699999999998 -0.5601849999999999 0.10746 -0.8469439999999999 -0.048556 -0.28656 -0.18069200000000002 -0.552424 -0.379891 -0.764359 -0.199199 -0.21173599999999998 -0.45650599999999997 -0.359792 -0.739683 -0.42586 -2.112186 -0.426258 -4.299196 -0.290938 -6.342727 0.39242799999999994s-3.871943 1.8908980000000002 -5.302753 3.502002c-0.186264 0.209945 -0.308848 0.468645 -0.35322499999999996 0.7456529999999999 -0.044576 0.277008 -0.009153999999999999 0.560981 0.101888 0.818686s0.29332600000000003 0.478396 0.52536 0.6364019999999999c0.232034 0.157807 0.504067 0.24616300000000002 0.7846569999999999 0.254919 -1.151812 1.417278 -1.879754 3.130867 -2.100445 4.943558 -0.22089 1.812691 0.074824 3.650854 0.852715 5.302952l2.20094 -0.8377899999999999c0.88157 3.28151 3.13624 7.587870000000001 4.26457 10.78182 0.26069000000000003 -2.655854 0.016915 -5.336981000000001 -0.71839 -7.90229 -0.382876 -0.043183 -0.753215 -0.16278199999999998 -1.0889280000000001 -0.351633 -0.335713 -0.188851 -0.6302329999999999 -0.44317300000000004 -0.8660479999999999 -0.747842s-0.408149 -0.6535160000000001 -0.506853 -1.025845c-0.09850500000000001 -0.37232899999999997 -0.121589 -0.7607769999999999 -0.067461 -1.1422599999999998l2.64073 -0.995c0.425064 0.244173 0.884555 0.422676 1.36315 0.52934 0.597 0.14129 0.6766000000000001 -0.85172 0.71441 -1.32136l14.598640000000001 -5.56006c1.28156 -0.64874 0.07561999999999999 -2.00791 -0.56317 -1.55817Z" stroke-width="2"></path><path id="Vector_13" fill="#0077b6" d="M136.4742 223.44317h3.06261l1.77707 -12.06139 -4.8396799999999995 12.06139Z" stroke-width="2"></path><path id="Vector_14" fill="#0077b6" d="M183.88595 337.6234c-5.34912 -4.722270000000001 -13.532 -10.348 -20.795499999999997 -12.47531 -6.484017000000001 1.8705999999999998 -13.364243 1.8705999999999998 -19.84826 0 -1.355986 3.8267700000000002 -2.1828309999999997 7.8207 -2.45765 11.87035 -0.024875 0.36815 0.026466999999999997 0.73829 0.150643 1.08654 0.124375 0.34825 0.318798 0.6666500000000001 0.571528 0.93729 0.25273 0.26865 0.5583940000000001 0.48357 0.897689 0.62884 0.339295 0.14726 0.705057 0.22288 1.0746 0.22089 12.736 0.037809999999999996 23.704880000000003 0.15123999999999999 39.50946 0.18905 0.285366 0 0.563966 -0.08756 0.7977909999999999 -0.25074 0.23402399999999998 -0.16517 0.41192999999999996 -0.39601000000000003 0.509838 -0.66466 0.097908 -0.26865 0.111042 -0.5591900000000001 0.037809999999999996 -0.8358 -0.07343100000000001 -0.27462000000000003 -0.22984500000000002 -0.5213800000000001 -0.447949 -0.7064499999999999Z" stroke-width="2"></path><path id="Vector_15" fill="#0077b6" d="M49.930891 214.55782c-0.43382 -0.17909999999999998 -0.917987 -0.19104000000000002 -1.3611600000000001 -0.037809999999999996 -9.33708 3.29942 -22.58849 6.03368 -37.6109204 13.91408 -0.3323897 0.17711 -0.6041441000000001 0.44974000000000003 -0.7802591 0.78207 -0.176115 0.33233 -0.2484913 0.71043 -0.2077958 1.0845500000000001 0.0406756 0.37412 0.1925723 0.72834 0.4360687 1.0149 0.2434964 0.28855 0.5674485 0.49551 0.9300862000000001 0.597 11.1516814 2.91734 22.6146784 4.47949 34.1403604 4.6506300000000005 3.9322399999999997 -9.301260000000001 6.80381 -13.68722 11.56986 -16.517000000000003 -1.891296 -2.3800399999999997 -4.333623 -4.26457 -7.11624 -5.48842Z" stroke-width="2"></path><path id="Vector_16" fill="#0077b6" d="M363.1352 208.96194c0 0.50148 -0.199 0.9830599999999999 -0.55322 1.33728 -0.35422 0.35422 -0.8358 0.55322 -1.33728 0.55322 -0.50148 0 -0.9830599999999999 -0.199 -1.33728 -0.55322 -0.35422 -0.35422 -0.55322 -0.8358 -0.55322 -1.33728 0 -0.50148 0.199 -0.9830599999999999 0.55322 -1.33728 0.35422 -0.35422 0.8358 -0.55322 1.33728 -0.55322 0.50148 0 0.9830599999999999 0.199 1.33728 0.55322 0.35422 0.35422 0.55322 0.8358 0.55322 1.33728Z" stroke-width="2"></path><path id="Vector_17" fill="#0077b6" d="M76.50953 208.96194c0 0.50148 -0.199199 0.9830599999999999 -0.553817 1.33728 -0.35441900000000004 0.35422 -0.835203 0.55322 -1.3366829999999998 0.55322 -0.50148 0 -0.9822639999999999 -0.199 -1.336882 -0.55322 -0.35441900000000004 -0.35422 -0.553618 -0.8358 -0.553618 -1.33728 0 -0.50148 0.199199 -0.9830599999999999 0.553618 -1.33728 0.354618 -0.35422 0.835402 -0.55322 1.336882 -0.55322 0.50148 0 0.9822639999999999 0.199 1.3366829999999998 0.55322 0.354618 0.35422 0.553817 0.8358 0.553817 1.33728Z" stroke-width="2"></path><path id="Vector_18" fill="#0077b6" d="M74.69465 226.54359v30.88878l-18.37765 -10.01766c1.2188750000000002 -9.2336 5.829505999999999 -17.68513 12.935 -23.706870000000002l5.4426499999999995 2.83575Z" stroke-width="2"></path><path id="Vector_19" fill="#0077b6" d="m147.739789 263.87399999999997 -4.91331 44.936189999999996c8.00378 4.776 16.76177 5.34713 25.70881 3.32728l8.053529999999999 -48.26347h-28.84903Z" stroke-width="2"></path><path id="Vector_20" fill="#0077b6" d="m86.30232000000001 263.89788 8.771920000000001 4.9153c3.101813 1.74523 6.631078 2.58501 10.186412 2.4258100000000002 3.555533 -0.16119 6.994651 -1.31539 9.926518 -3.33325 1.634586 -1.09251 3.078132 -2.44571 4.27253 -4.00786H86.30232000000001Z" stroke-width="2"></path><path id="Vector_21" fill="#0077b6" d="m137.31 194.36927 -2.68451 -8.091339999999999h-15.05236c-3.28947 3.98 -11.00271 14.527 -12.40168 25.33071 -0.45372 3.4029 -1.5124 8.24258 -2.30641 11.83453h55.88119l-11.191759999999999 -20.7557c-2.672371 0.15721 -5.322255 -0.57312 -7.536727 -2.07756S138.148188 196.911893 137.31 194.36927Z" stroke-width="2"></path><path id="Subtract" fill="#0077b6" fill-rule="evenodd" d="M185.587201 176.222261c3.301211 -0.959578 6.37198 -2.618641 8.996789999999999 -4.879281000000001 6.680629 -5.83866 8.009949 -4.130643 1.24375 4.426356999999999 4.5791889999999995 -0.7327180000000001 8.895499000000001 -2.052486 13.122259 -3.9726369999999998 2.87953 -1.194 3.74319 0.41591 0.83182 2.45765 -1.8586600000000002 1.251511 -3.95811 2.4648139999999996 -5.97199 3.44071 2.99694 -0.609537 5.95209 -1.4071289999999999 8.847539999999999 -2.388 2.91734 -1.1203699999999999 3.51036 0.8238599999999999 0.49152999999999997 2.6467 -2.29447 1.21191 -4.75411 2.4110840000000002 -7.14609 3.4088700000000003 2.15915 -0.255118 4.30437 -0.6210789999999999 6.4277 -1.0964900000000002 3.01684 -0.75023 3.39892 1.31539 0.18905 2.68451 -2.2845199999999997 0.8829629999999999 -4.8556 1.723738 -7.22171 2.34422 1.48852 0.013531999999999999 2.9790300000000003 -0.049551 4.46158 -0.18905 3.0228099999999998 -0.398 3.0228099999999998 1.16614 -0.18905 2.34422 -2.7700799999999997 1.0141040000000001 -5.669510000000001 1.781448 -8.5172 2.5350610000000002 -0.42586 0.112833 -0.85172 0.225467 -1.27559 0.338499 -4.056814 1.081764 -9.785625999999999 2.237954 -14.290389 3.032959v1.390811h64.84036900000001V153.83894H185.587201v22.383321Z" clip-rule="evenodd" stroke-width="2"></path></g><g id="outlines"><path id="Vector_22" stroke="#120071" stroke-linecap="round" stroke-linejoin="round" d="M308.84203 340.08105h-29.907709999999998v-6.767989999999999h29.907709999999998v6.767989999999999Z" stroke-width="2"></path><path id="Vector_23" stroke="#120071" stroke-linecap="round" stroke-linejoin="round" d="m304.68293 331.12207 -19.58558 -9.679359999999999 2.15517 -9.8306 14.14094 7.03266 3.28947 12.4773Z" stroke-width="2"></path><path id="Vector_24" stroke="#120071" stroke-linecap="round" stroke-linejoin="round" d="m298.17960999999997 306.24309 -8.809729999999998 -4.385960000000001 1.47459 -6.88142h4.385960000000001l2.94918 11.26738Z" stroke-width="2"></path><path id="Vector_25" stroke="#120071" stroke-linecap="round" stroke-linejoin="round" d="m301.39346 318.64477 -14.14094 -7.03266 2.11736 -9.75498 8.809729999999998 4.385960000000001 3.21385 12.40168Z" stroke-width="2"></path><path id="Vector_26" stroke="#120071" stroke-linecap="round" stroke-linejoin="round" d="M305.25007999999997 333.23744h-22.72381l2.5710800000000003 -11.79473 19.58558 9.679359999999999 0.5671499999999999 2.11537Z" stroke-width="2"></path><path id="Vector_27" stroke="#120071" stroke-linecap="round" stroke-linejoin="round" d="M138.251071 119.56915000000001c0.858884 0.329345 1.597373 0.9122159999999999 2.11736 1.671003 0.519987 0.758787 0.796995 1.6578689999999998 0.79401 2.577647 -0.002587 0.956792 -0.302281 1.888908 -0.85769 2.667794 -0.555409 0.779085 -1.3390710000000001 1.366135 -2.24273 1.680356" stroke-width="2"></path><path id="Vector_28" stroke="#120071" stroke-linecap="round" stroke-linejoin="round" d="M124.52604099999999 137.20254c-1.1362899999999998 -3.2198200000000003 -3.383 -7.50031 -4.2387 -10.79177" stroke-width="2"></path><path id="Vector_29" stroke="#120071" stroke-linecap="round" stroke-linejoin="round" d="M123.996701 125.02772c0.352429 0.216114 0.7337130000000001 0.38088599999999995 1.13231 0.48954 0.796 0.199 0.72436 -0.42188 0.796 -1.20793" stroke-width="2"></path><path id="Vector_30" stroke="#120071" stroke-linecap="round" stroke-linejoin="round" d="M146.265 153.83894h25.521749999999997v15.197629999999998" stroke-width="2"></path><path id="Vector_31" stroke="#120071" stroke-linecap="round" stroke-linejoin="round" d="m144.94164999999998 151.83501 13.30912 19.545779999999997 27.33663 -4.72625" stroke-width="2"></path><path id="Vector_32" stroke="#120071" stroke-linecap="round" stroke-linejoin="round" d="M337.55773 223.44317V133.42154000000002c0.00398 -7.869654000000001 -3.11634 -15.418719 -8.676400000000001 -20.987932999999998 -5.56006 -5.569214 -13.10415 -8.70227 -20.9746 -8.710827H128.117991c-3.89642 -0.0017909999999999998 -7.75503 0.763961 -11.355537 2.2536750000000003s-6.872266 3.6743360000000003 -9.628217000000001 6.428695c-2.75615 2.754359 -4.942563 6.024725 -6.4344660000000005 9.624236999999999 -1.491903 3.599711 -2.260043 7.457923 -2.26064 11.354343v90.05944" stroke-width="2"></path><path id="Vector_33" stroke="#120071" stroke-linecap="round" stroke-linejoin="round" d="M108.34356000000001 270.85492c5.438272 4.85958 12.480683 7.54011 19.77463 7.52419h17.84433" stroke-width="2"></path><path id="Vector_34" stroke="#120071" stroke-linecap="round" stroke-linejoin="round" d="M333.37872999999996 263.89788c-2.63078 4.40984 -6.36203 8.063479999999998 -10.825600000000001 10.60073 -4.46556 2.53725 -9.510209999999999 3.87453 -14.6464 3.8805H174.28221" stroke-width="2"></path><path id="Vector_35" stroke="#120071" stroke-linecap="round" stroke-linejoin="round" d="M135.793421 139.77362H337.53783" stroke-width="2"></path><path id="Vector_36" stroke="#120071" stroke-linecap="round" stroke-linejoin="round" d="M98.439131 139.77362h25.481949999999998" stroke-width="2"></path><path id="Vector_37" stroke="#120071" stroke-linecap="round" stroke-linejoin="round" d="M155.45283 123.81779999999999c-0.000796 0.9122159999999999 -0.27223200000000003 1.803736 -0.779483 2.561926 -0.50745 0.7579910000000001 -1.228427 1.348623 -2.0713909999999998 1.697072 -0.843163 0.348648 -1.7705030000000002 0.439193 -2.6652069999999997 0.26069000000000003 -0.894505 -0.178702 -1.7159769999999999 -0.618492 -2.360737 -1.264048 -0.644561 -0.645357 -1.083356 -1.4674260000000001 -1.2608640000000002 -2.362329 -0.177309 -0.894903 -0.08557 -1.8222429999999998 0.264073 -2.664809 0.34944400000000003 -0.842566 0.941071 -1.5627469999999999 1.6998579999999999 -2.069003 0.758787 -0.506455 1.650506 -0.776697 2.5629210000000002 -0.776299 0.606154 -0.000398 1.206338 0.118604 1.7663239999999998 0.350439 0.5601849999999999 0.232034 1.068829 0.572125 1.4972759999999998 1.00097 0.428248 0.42904400000000004 0.7677419999999999 0.938086 0.99898 1.49847 0.231039 0.560384 0.34944400000000003 1.160767 0.34825 1.766921v0Z" stroke-width="2"></path><path id="Vector_38" stroke="#120071" stroke-linecap="round" stroke-linejoin="round" d="M185.587201 176.25828V153.83894h64.84036900000001v40.908429999999996H185.587201v-1.47459" stroke-width="2"></path><path id="Vector_39" stroke="#120071" stroke-linecap="round" stroke-linejoin="round" d="M323.54812999999996 194.74737h-59.31991V153.83894h59.31991v40.908429999999996Z" stroke-width="2"></path><path id="Vector_40" stroke="#120071" stroke-linecap="round" stroke-linejoin="round" d="M113.44791 194.74737h-1.02087V153.83894h7.48638" stroke-width="2"></path><path id="Vector_41" stroke="#120071" stroke-linecap="round" stroke-linejoin="round" d="M185.587201 223.44317v-14.59466h64.84036900000001v14.59466" stroke-width="2"></path><path id="Vector_42" stroke="#120071" stroke-linecap="round" stroke-linejoin="round" d="M264.22821999999996 223.44317v-14.59466h59.31991v14.59466" stroke-width="2"></path><path id="Vector_43" stroke="#120071" stroke-linecap="round" stroke-linejoin="round" d="M152.88175 208.84851h18.905v14.59466" stroke-width="2"></path><path id="Vector_44" stroke="#120071" stroke-linecap="round" stroke-linejoin="round" d="m250.42757 153.83894 -35.425979999999996 22.34372" stroke-width="2"></path><path id="Vector_45" stroke="#120071" stroke-linecap="round" stroke-linejoin="round" d="m185.587201 153.83894 64.84036900000001 40.908429999999996" stroke-width="2"></path><path id="Vector_46" stroke="#120071" stroke-linecap="round" stroke-linejoin="round" d="m290.84447 163.97003 -11.947959999999998 20.71988h23.895919999999997l-11.947959999999998 -20.71988Z" stroke-width="2"></path><path id="Vector_47" stroke="#120071" stroke-linecap="round" stroke-linejoin="round" d="m300.14573 169.98182 -2.9113700000000002 5.02873 5.55807 9.679359999999999h5.8227400000000005l-8.46944 -14.70809Z" stroke-width="2"></path><path id="Vector_48" stroke="#120071" stroke-linecap="round" stroke-linejoin="round" d="M306.34657000000004 169.03656999999998c1.3989699999999998 0 2.53327 -1.1342999999999999 2.53327 -2.53327 0 -1.3991689999999999 -1.1342999999999999 -2.53327 -2.53327 -2.53327s-2.53327 1.134101 -2.53327 2.53327c0 1.3989699999999998 1.1342999999999999 2.53327 2.53327 2.53327Z" stroke-width="2"></path><path id="Vector_49" stroke="#120071" stroke-linecap="round" stroke-linejoin="round" d="M193.71455999999998 176.06923c5.266933 -0.637397 10.405710000000001 -2.078157 15.235439999999999 -4.27253 2.87953 -1.194 3.74319 0.41591 0.83182 2.45765 -2.69645 1.815278 -5.572 3.348971 -8.58287 4.577" stroke-width="2"></path><path id="Vector_50" stroke="#120071" stroke-linecap="round" stroke-linejoin="round" d="M203.80983 177.69505999999998c2.99694 -0.609537 5.95209 -1.4071289999999999 8.847539999999999 -2.388 2.91734 -1.1203699999999999 3.51036 0.8238599999999999 0.49152999999999997 2.6467 -3.66757 1.937862 -7.47046 3.60588 -11.38081 4.99092" stroke-width="2"></path><path id="Vector_51" stroke="#120071" stroke-linecap="round" stroke-linejoin="round" d="M206.00281 181.36263c2.15915 -0.255118 4.30437 -0.6210789999999999 6.4277 -1.0964900000000002 3.01684 -0.75023 3.39892 1.31539 0.18905 2.68451 -3.38698 1.30942 -6.87744 2.333872 -10.435559999999999 3.06261" stroke-width="2"></path><path id="Vector_52" stroke="#120071" stroke-linecap="round" stroke-linejoin="round" d="M205.39785 185.29487c1.48852 0.013531999999999999 2.9790300000000003 -0.049551 4.46158 -0.18905 3.0228099999999998 -0.398 3.0228099999999998 1.16614 -0.18905 2.34422 -3.184 1.16614 -6.54113 2.00592 -9.79279 2.87356 -4.1193 1.0984800000000001 -9.679359999999999 2.189 -14.21457 2.985" stroke-width="2"></path><path id="Vector_53" stroke="#120071" stroke-linecap="round" stroke-linejoin="round" d="M196.134201 175.74287c6.766199 -8.557 5.130419 -10.238549999999998 -1.55021 -4.39989 -3.488868 3.004701 -7.765776 4.9467419999999995 -12.324069999999999 5.595879999999999" stroke-width="2"></path><path id="Vector_54" stroke="#120071" stroke-linecap="round" stroke-linejoin="round" d="m130.7828 142.31087000000002 -2.4755599999999998 -4.2387c1.0117159999999998 0.6169 2.05965 1.1725079999999999 3.13823 1.66364" stroke-width="2"></path><path id="Vector_55" stroke="#120071" stroke-linecap="round" stroke-linejoin="round" d="M135.49313 120.61986999999999c4.232729999999999 7.20579 4.21283 20.895 -2.3084 19.60747l-1.73926 -0.49152999999999997 -0.6805800000000001 2.6467c-0.287953 1.162359 -0.23561600000000002 2.383025 0.15123999999999999 3.51633l-8.3182 -1.43678c0.804557 -2.3738710000000003 1.4489189999999998 -4.799283 1.92831 -7.25952 0.27402299999999996 -2.653466 0.043183 -5.334792 -0.6805800000000001 -7.90229 -2.17507 -0.53332 -2.8098799999999997 -2.10741 -2.5253099999999997 -3.28151" stroke-width="2"></path><path id="Vector_56" stroke="#120071" stroke-linecap="round" stroke-linejoin="round" d="M140.02834 117.12741999999999c-0.21094 0.07363 -3.85662 1.43479 -3.85662 1.43479 -0.505062 -1.258874 -1.293301 -2.384617 -2.303823 -3.28947 -1.0105220000000001 -0.905052 -2.216064 -1.564737 -3.522897 -1.92831 0.24576499999999998 -0.155419 0.43998899999999996 -0.379891 0.5583940000000001 -0.645357 0.118604 -0.26566500000000004 0.15581699999999998 -0.5601849999999999 0.10746 -0.8469439999999999 -0.048556 -0.28656 -0.18069200000000002 -0.552623 -0.379891 -0.764359 -0.199199 -0.21173599999999998 -0.45650599999999997 -0.359792 -0.739683 -0.42586 -2.112186 -0.433223 -4.301186 -0.301286 -6.34611 0.38247800000000004 -2.044725 0.683764 -3.872938 1.895276 -5.29937 3.511952 -0.186264 0.209945 -0.308848 0.468645 -0.35322499999999996 0.7456529999999999 -0.044576 0.277008 -0.009153999999999999 0.560981 0.101888 0.818686s0.29332600000000003 0.478396 0.52536 0.636203c0.232034 0.158006 0.504067 0.246362 0.7846569999999999 0.255118 -1.151812 1.417278 -1.879754 3.130867 -2.100445 4.943558 -0.22089 1.812691 0.074824 3.650854 0.852715 5.302952l22.53476 -8.58287c0.10347999999999999 -0.035621 0.198801 -0.091341 0.280391 -0.16417500000000002 0.08159000000000001 -0.072834 0.14785700000000002 -0.16119 0.19502 -0.259894 0.047163 -0.098903 0.074227 -0.20596499999999998 0.079401 -0.31521600000000005 0.005373 -0.109251 -0.011343 -0.218502 -0.048556 -0.32138500000000003 -0.037412 -0.102684 -0.094923 -0.197209 -0.169349 -0.277406 -0.074227 -0.080396 -0.163578 -0.14526999999999998 -0.263277 -0.19064199999999998 -0.0995 -0.045372 -0.20715899999999998 -0.070446 -0.31641 -0.073829 -0.10945 -0.0033829999999999997 -0.218303 0.015124 -0.32039 0.054327v0Z" stroke-width="2"></path><path id="Vector_57" stroke="#120071" stroke-linecap="round" stroke-linejoin="round" d="m141.31388 211.38178 -1.77707 12.06139H136.4742l4.8396799999999995 -12.06139Z" stroke-width="2"></path><path id="Vector_58" stroke="#120071" stroke-linecap="round" stroke-linejoin="round" d="M119.421691 263.89788c-2.802915 3.60389 -6.805601 6.08144 -11.280713 6.9829099999999995 -4.474913 0.90147 -9.124946 0.16915000000000002 -13.104747 -2.0676099999999997l-8.771920000000001 -4.9153" stroke-width="2"></path><path id="Vector_59" stroke="#120071" stroke-linecap="round" stroke-linejoin="round" d="m74.694451 226.54359 -5.4426499999999995 -2.83575c-6.98689 5.47648 -11.032559999999998 13.58971 -12.935 23.706870000000002l18.371679999999998 9.979849999999999" stroke-width="2"></path><path id="Vector_60" stroke="#120071" stroke-linecap="round" stroke-linejoin="round" d="M105.091701 223.44317c0.83182 -3.85662 1.55817 -7.9401 2.07955 -11.83453 1.8387600000000002 -13.683240000000001 12.36387 -25.33071 12.36387 -25.33071h15.08619" stroke-width="2"></path><path id="Vector_61" stroke="#120071" stroke-linecap="round" stroke-linejoin="round" d="m147.70177999999999 263.93569 -4.875500000000001 44.878479999999996c7.257529999999999 4.5371999999999995 15.92 5.40683 25.70881 3.32728l7.59981 -44.727239999999995c0.18905 -1.17211 0.34029000000000004 -2.34422 0.41591 -3.51633" stroke-width="2"></path><path id="Vector_62" stroke="#120071" stroke-linecap="round" stroke-linejoin="round" d="m149.59208099999998 202.7611 11.15395 20.644260000000003" stroke-width="2"></path><path id="Vector_63" stroke="#120071" stroke-linecap="round" stroke-linejoin="round" d="M182.978311 340.091c-15.80259 -0.25074 -26.76948 -0.16915000000000002 -39.50946 -0.18905 -0.368349 -0.00199 -0.7327180000000001 -0.07761 -1.070421 -0.22487000000000001 -0.337703 -0.14726 -0.641775 -0.36218 -0.8931119999999999 -0.63083 -0.25153600000000004 -0.27064 -0.445362 -0.58705 -0.569339 -0.9352999999999999 -0.123977 -0.34625999999999996 -0.175518 -0.71441 -0.151638 -1.08256 0.282978 -4.049650000000001 1.109624 -8.041590000000001 2.45765 -11.87035 6.483619 1.87259 13.364641 1.87259 19.84826 0 7.25952 2.11736 15.44638 7.761 20.795499999999997 12.47531 0.2189 0.18506999999999998 0.375513 0.43183 0.448546 0.70844 0.073033 0.27661 0.059103 0.56914 -0.039999 0.8377899999999999 -0.099301 0.26865 -0.278799 0.50148 -0.514216 0.66466 -0.23541700000000002 0.16318000000000002 -0.51541 0.24875 -0.801771 0.24676v0Z" stroke-width="2"></path><path id="Vector_64" stroke="#120071" stroke-linecap="round" stroke-linejoin="round" d="m143.204181 325.1859 2.3800399999999997 -14.85933" stroke-width="2"></path><path id="Vector_65" stroke="#120071" stroke-linecap="round" stroke-linejoin="round" d="m164.716081 312.82203 -1.77707 12.36387" stroke-width="2"></path><path id="Vector_66" stroke="#120071" stroke-linecap="round" stroke-linejoin="round" d="M49.930891 214.55782c-0.43382 -0.17909999999999998 -0.917987 -0.19104000000000002 -1.3611600000000001 -0.037809999999999996 -9.33708 3.29942 -22.58849 6.03368 -37.6109204 13.91408 -0.3323897 0.17711 -0.6041441000000001 0.44974000000000003 -0.7802591 0.78207 -0.176115 0.33233 -0.2484913 0.71043 -0.2077958 1.0845500000000001 0.0406756 0.37412 0.1925723 0.72834 0.4360687 1.0149 0.2434964 0.28855 0.5674485 0.49551 0.9300862000000001 0.597 11.1516814 2.91734 22.6146784 4.47949 34.1403604 4.6506300000000005 3.9322399999999997 -9.301260000000001 6.80381 -13.68722 11.56986 -16.517000000000003 -1.891296 -2.3800399999999997 -4.333623 -4.26457 -7.11624 -5.48842v0Z" stroke-width="2"></path><path id="Vector_67" stroke="#120071" stroke-linecap="round" stroke-linejoin="round" d="m57.03738 219.88903 10.01965 5.595879999999999" stroke-width="2"></path><path id="Vector_68" stroke="#120071" stroke-linecap="round" stroke-linejoin="round" d="m45.46951 236.56324 11.83254 6.46551" stroke-width="2"></path><path id="Vector_69" stroke="#120071" stroke-linecap="round" stroke-linejoin="round" d="M74.694451 209.37785v130.74101" stroke-width="2"></path><path id="Vector_70" stroke="#120071" stroke-linecap="round" stroke-linejoin="round" d="M361.28251 340.11886v-130.743" stroke-width="2"></path><path id="Vector_71" stroke="#120071" stroke-linecap="round" stroke-linejoin="round" d="M45.091211 340.08105H388.05" stroke-width="2"></path><path id="Vector_72" stroke="#120071" stroke-linecap="round" stroke-linejoin="round" d="M361.28251 223.44317H74.694451" stroke-width="2"></path><path id="Vector_73" stroke="#120071" stroke-linecap="round" stroke-linejoin="round" d="M361.28251 263.89788H74.694451" stroke-width="2"></path><path id="Vector_74" stroke="#120071" stroke-linecap="round" stroke-linejoin="round" d="M70.7246 178.9607h-17.12594" stroke-width="2"></path><path id="Vector_75" stroke="#120071" stroke-linecap="round" stroke-linejoin="round" d="M62.161431 187.52566v-17.16574" stroke-width="2"></path><path id="Vector_76" stroke="#120071" stroke-linecap="round" stroke-linejoin="round" d="M375.45927 144.00834c0.08557 0.9834579999999999 -0.12139 1.9701 -0.597 2.835551 -0.47362 0.865451 -1.1959899999999999 1.570508 -2.07159 2.026417 -0.8756 0.45571 -1.86662 0.641576 -2.84769 0.534116 -0.98107 -0.10746 -1.90841 -0.503669 -2.66461 -1.138081 -0.7562 -0.634611 -1.30743 -1.479167 -1.5820500000000002 -2.426805 -0.27661 -0.947638 -0.26666 -1.955971 0.03184 -2.89744 0.29651 -0.9412699999999999 0.86565 -1.773488 1.6357799999999998 -2.391383 0.77013 -0.617895 1.70543 -0.993607 2.68849 -1.079575 0.6527200000000001 -0.059302 1.31141 0.011343 1.9382599999999999 0.20755700000000002 0.62486 0.196413 1.20594 0.5144150000000001 1.7094099999999999 0.936295 0.50148 0.42168100000000003 0.9154 0.938484 1.21788 1.520957 0.30247999999999997 0.5822740000000001 0.48556 1.218676 0.54128 1.872391v0Z" stroke-width="2"></path><path id="Vector_77" stroke="#120071" stroke-linecap="round" stroke-linejoin="round" d="m249.44451 57.881139999999995 -4.23472 9.470410000000001h7.71324l-4.23472 9.4326" stroke-width="2"></path><path id="Vector_78" stroke="#120071" stroke-linecap="round" stroke-linejoin="round" d="M117.984911 207.07144c6.011392 -1.56613 11.266783 -5.22574 14.821520000000001 -10.32014" stroke-width="2"></path><path id="Vector_79" stroke="#120071" stroke-linecap="round" stroke-linejoin="round" d="M144.300671 296.8284c8.410536 3.0665899999999997 17.420858000000003 4.129250000000001 26.31377 3.10042" stroke-width="2"></path><path id="Vector_80" stroke="#120071" stroke-linecap="round" stroke-linejoin="round" d="m129.214481 169.98182 8.09532 24.38745c0.927738 2.816845 2.856048 5.19589 5.419963999999999 6.6864 2.563717 1.49051 5.585134 1.99 8.492126 1.40295l33.9892 -6.79585c1.44076 -6.5809299999999995 -0.94326 -15.50807 -3.7411999999999996 -20.1985l-26.924699999999998 4.6506300000000005c-3.7053800000000003 -11.30519 -5.05659 -18.795550000000002 -7.10828 -23.85811 -2.55914 -6.31825 -6.1232299999999995 -8.845550000000001 -16.517000000000003 -10.348l-8.3182 -1.43678c-0.3781 1.17211 -0.76217 2.41785 -1.17211 3.74319 -3.800502 12.333820999999999 -4.450436000000001 25.423046 -1.8904999999999998 38.072680000000005" stroke-width="2"></path><path id="Vector_81" stroke="#120071" stroke-linecap="round" stroke-linejoin="round" d="M210.65344 263.89788H174.09315999999998l-81.51438 -40.45471h36.522470000000006l81.55219 40.45471Z" stroke-width="2"></path><path id="Vector_82" stroke="#120071" stroke-linecap="round" stroke-linejoin="round" d="M277.87564 263.89788h-36.522470000000006l-81.55219 -40.45471h36.56028l81.51438 40.45471Z" stroke-width="2"></path><path id="Vector_83" stroke="#120071" stroke-linecap="round" stroke-linejoin="round" d="M345.13764000000003 263.89788h-36.522470000000006l-81.55219 -40.45471h36.56028l81.51438 40.45471Z" stroke-width="2"></path><path id="Vector_84" stroke="#120071" stroke-linecap="round" stroke-linejoin="round" d="M361.28251 238.52936v18.14681l-66.95952000000001 -33.233h36.56028l30.39924 15.08619Z" stroke-width="2"></path><path id="Vector_85" stroke="#120071" stroke-linecap="round" stroke-linejoin="round" d="M143.393231 263.89788h-36.562270000000005l-32.13651 -15.955820000000001v-18.108999999999998l68.69878 34.06482Z" stroke-width="2"></path></g></g></svg>