<svg xmlns="http://www.w3.org/2000/svg" id="Welcome--Streamline-Bangalore" width="400" height="400" fill="none" viewBox="-1 -1 400 400"><desc>Welcome Streamline Illustration: https://streamlinehq.com</desc><g id="Interface-Welcome-01"><g id="color 2"><path id="Vector" fill="#fecfc4" stroke-width="2" d="m265.25705 275.615 -4.68844 41.32633 3.0248 0.15123999999999999 -0.796 10.322130000000001 -7.48439 0.22686a55.55284 55.55284 0 0 0 -0.72038 11.87234l24.00736 -0.76814 -13.34295 -63.13076Z"/><path id="Vector_2" fill="#fecfc4" stroke-width="2" d="M223.59242 312.84790000000004c-0.11343 -0.037809999999999996 3.4029 0.83182 3.4029 0.83182l5.8227400000000005 -55.80756 -17.657269999999997 -24.61431 -3.06261 29.98333c0.14726 11.343 -14.22452 22.40541 -26.467000000000002 16.107059999999997l-55.42747 -25.257080000000002 -1.0547 4.01184 -9.751000000000001 -4.503369999999999 2.985 -9.565930000000002a34.53247 34.53247 0 0 0 -9.412700000000001 -3.55414l21.50593 102.57654 93.46433 -2.6825200000000002 1.73926 -15.27524 -7.10828 -1.70145s1.1342999999999999 -10.51118 1.02087 -10.54899Z"/><path id="Vector_3" fill="#fecfc4" stroke-width="2" d="m183.09791 184.18246 -5.5123 -26.43118 -84.01978999999999 -10.546999999999999 13.91408 67.49085 5.93617 -1.6258299999999999 18.82938 8.734110000000001 4.72625 -7.82667 10.01766 4.1591c-0.48954 0.52934 -2.53327 3.85662 -2.53327 3.85662l29.567420000000002 13.30912c-7.14609 -37.77219 9.074399999999999 -51.119119999999995 9.074399999999999 -51.119119999999995Z"/><path id="Vector_4" fill="#fecfc4" stroke-width="2" d="M195.57521 118.61992c-1.43678 -5.55608 -13.30912 -14.81953 -13.30912 -14.81953 -4.577 -4.6506300000000005 1.393 -5.52026 1.393 -5.52026a2.71237 2.71237 0 0 1 2.87356 -4.045669999999999c0.7562 0.34029000000000004 1.1342999999999999 -0.796 1.1342999999999999 -0.796l-104.9526 3.21584L88.157 122.62977s63.97253 4.91331 91.0823 6.4257100000000005c0.199 0 10.91714 -1.13032 11.11614 -1.1701199999999998 6.505310000000001 -1.24773 5.2197700000000005 -9.26544 5.2197700000000005 -9.26544Z"/><path id="Vector_5" fill="#fecfc4" stroke-width="2" d="m226.76845999999998 92.336 -23.282999999999998 0.71839s11.79672 14.55685 6.9948500000000005 20.98455a7.77493 7.77493 0 0 1 -6.0496 2.6088899999999997 7.51225 7.51225 0 0 0 6.9948500000000005 7.1441l19.62339 -11.07634 -4.2804899999999995 -20.37959Z"/><path id="Vector_6" fill="#fecfc4" stroke-width="2" d="m237.27964 141.72182999999998 -8.39382 4.8396799999999995v35.654830000000004l26.767490000000002 47.33812 -18.37367 -87.83263Z"/><path id="Vector_7" fill="#fecfc4" stroke-width="2" d="m355.88761999999997 145.99436 -4.65262 -7.33514 -44.377 28.055020000000003 4.5371999999999995 -20.07711 -8.46944 -1.92831 -6.85356 30.285809999999998a4.32228 4.32228 0 0 0 1.74125 4.49342c0.46566 0.32636000000000004 0.99301 0.5572 1.5482200000000002 0.6805800000000001l30.285809999999998 6.84361 1.92831 -8.46944 -20.07711 -4.5371999999999995 44.388940000000005 -28.01124Z"/></g><g id="color 1"><path id="Vector_8" fill="#0077b6" stroke-width="2" d="M77.08066000000001 50.82858a7.739109999999999 7.739109999999999 0 1 0 -15.27524 2.49546 7.739109999999999 7.739109999999999 0 0 0 15.27524 -2.49546Z"/><path id="Vector_9" fill="#0077b6" stroke-width="2" d="M174.09913 235.30158c-0.18905 -0.796 -10.24651 -4.61481 -10.24651 -4.61481l13.12007 17.0145s-1.8526900000000002 -6.69237 -2.87356 -12.39969Z"/><path id="Vector_10" fill="#0077b6" stroke-width="2" d="M197.35227999999998 83.34518a2.7103800000000002 2.7103800000000002 0 1 0 -4.46158 3.06261 2.6785400000000004 2.6785400000000004 0 0 0 -3.51633 3.7809999999999997 2.69048 2.69048 0 0 0 -2.83575 4.045669999999999 2.68849 2.68849 0 0 0 -2.87356 4.045669999999999 2.69048 2.69048 0 0 0 -2.388 4.61282l7.410760000000001 6.5033199999999995c3.28947 3.21186 6.3142700000000005 6.65257 6.88142 9.185839999999999 -0.45372 -4.30835 -2.388 -8.54506 -3.13823 -8.845550000000001 -7.71324 -2.9113700000000002 -5.174 -9.95 -1.02087 -7.25952 2.00393 1.2855400000000001 2.6467 0.9830599999999999 2.6088899999999997 -0.26467 -0.8079400000000001 -5.99985 3.10241 -16.586650000000002 10.83953 -7.26947 -1.12435 -1.50046 -4.16507 -5.92821 -7.506279999999999 -11.59772Z"/><path id="Vector_11" fill="#0077b6" stroke-width="2" d="m217.20253000000002 214.39265 -2.00393 19.39653 9.4525 12.550930000000001 -7.44857 -31.947459999999996Z"/><path id="Vector_12" fill="#0077b6" stroke-width="2" d="M204.38494 116.614a9.26146 9.26146 0 0 1 -4.27253 -0.30247999999999997l6.5033199999999995 5.21579a10.503219999999999 10.503219999999999 0 0 1 -2.23079 -4.91331Z"/><path id="Vector_13" fill="#0077b6" stroke-width="2" d="M255.61748999999998 352.09269a85.38493 85.38493 0 0 1 -0.30247999999999997 -24.46108 140.35072000000002 140.35072000000002 0 0 1 -25.559559999999998 -2.49546l-1.47459 12.891219999999999c7.44857 10.62461 15.76677 25.521749999999997 30.51068 40.72137 -0.49152999999999997 -8.94306 -1.5522 -17.84632 -3.17405 -26.65605Z"/><path id="Vector_14" fill="#0077b6" stroke-width="2" d="m176.48116 152.42206 -13.04445 3.55414 14.178749999999999 1.70145 -1.1342999999999999 -5.25559Z"/><path id="Vector_15" fill="#0077b6" stroke-width="2" d="M120.52435 216.28315c-12.439490000000001 3.7033899999999997 -29.18932 6.88142 -48.283370000000005 16.10507a208.3331 208.3331 0 0 0 26.267999999999997 5.40683 84.86355 84.86355 0 0 1 23.328770000000002 7.410760000000001 141.71586 141.71586 0 0 1 10.435559999999999 -23.44021l-11.74896 -5.48245Z"/><path id="Vector_16" fill="#0077b6" stroke-width="2" d="m195.53740000000002 157.14830999999998 23.4422 -1.8526900000000002 1.66364 21.1736 -8.809729999999998 10.397749999999998 -14.63247 -8.35601 -1.66364 -21.36265Z"/></g><g id="outlines"><path id="Vector_17" stroke="#120071" stroke-linecap="round" stroke-linejoin="round" stroke-width="2" d="m254.59463 339.50395 24.047159999999998 -0.75819 -13.34693 -63.32976"/><path id="Vector_18" stroke="#120071" stroke-linecap="round" stroke-linejoin="round" stroke-width="2" d="m113.22702000000001 241.61386 21.36265 101.48004999999999 93.46433 -2.7979399999999996"/><path id="Vector_19" stroke="#120071" stroke-linecap="round" stroke-linejoin="round" stroke-width="2" d="m93.33896 147.24209 14.21656 67.41523000000001"/><path id="Vector_20" stroke="#120071" stroke-linecap="round" stroke-linejoin="round" stroke-width="2" d="M186.42519 93.55388 82.71435 96.6543l5.444640000000001 25.97547"/><path id="Vector_21" stroke="#120071" stroke-linecap="round" stroke-linejoin="round" stroke-width="2" d="m231.06486999999998 112.84295 -4.29641 -20.49899 -23.290960000000002 0.6805800000000001"/><path id="Vector_22" stroke="#120071" stroke-linecap="round" stroke-linejoin="round" stroke-width="2" d="m255.65330999999998 229.55446 -18.487099999999998 -87.7192"/><path id="Vector_23" stroke="#120071" stroke-linecap="round" stroke-linejoin="round" stroke-width="2" d="m266.50279 67.0829 -39.92338 25.298869999999997"/><path id="Vector_24" stroke="#120071" stroke-linecap="round" stroke-linejoin="round" stroke-width="2" d="m278.64178999999996 338.74575999999996 84.99489 -53.80164 -26.7655 -126.87643M295.05133 49.0137l16.598589999999998 -10.51118 23.30489 110.47286000000001"/><path id="Vector_25" stroke="#120071" stroke-linecap="round" stroke-linejoin="round" stroke-width="2" d="m227.07093999999998 313.71752999999995 5.8227400000000005 -55.845369999999996 -17.35479 -23.706870000000002"/><path id="Vector_26" stroke="#120071" stroke-linecap="round" stroke-linejoin="round" stroke-width="2" d="m174.06132 235.29959 -29.567420000000002 -13.344940000000001"/><path id="Vector_27" stroke="#120071" stroke-linecap="round" stroke-linejoin="round" stroke-width="2" d="m224.99139000000002 247.0585 -7.761 -32.66585 -5.174 49.718160000000005a18.81147 18.81147 0 0 1 -17.74284 16.84734 18.83336 18.83336 0 0 1 -8.64655 -1.6099100000000002l-55.46329 -25.14365"/><path id="Vector_28" stroke="#120071" stroke-linecap="round" stroke-linejoin="round" stroke-width="2" d="m195.53740000000002 157.14830999999998 23.4422 -1.8526900000000002 1.66364 21.1736 -8.809729999999998 10.397749999999998 -14.63247 -8.35601 -1.66364 -21.36265Z"/><path id="Vector_29" stroke="#120071" stroke-linecap="round" stroke-linejoin="round" stroke-width="2" d="m200.03679 116.39112 6.616750000000001 5.1421600000000005"/><path id="Vector_30" stroke="#120071" stroke-linecap="round" stroke-linejoin="round" stroke-width="2" d="M179.2791 129.05548000000002s13.19569 48.88833 1.05868 41.666619999999995"/><path id="Vector_31" stroke="#120071" stroke-linecap="round" stroke-linejoin="round" stroke-width="2" d="M219.18656000000001 119.45373000000001v24.23422l-26.33367 2.2685999999999997 -4.08348 -17.92194"/><path id="Vector_32" stroke="#120071" stroke-linecap="round" stroke-linejoin="round" stroke-width="2" d="M228.88582 114.16032999999999v68.058l32.96833 58.26322a38.522420000000004 38.522420000000004 0 0 1 4.764060000000001 23.282999999999998l-6.0496 53.16086"/><path id="Vector_33" stroke="#120071" stroke-linecap="round" stroke-linejoin="round" stroke-width="2" d="m223.67600000000002 312.88571 -1.02087 10.66242a135.92496 135.92496 0 0 0 40.152229999999996 3.85662l1.02087 -10.66242a124.30734 124.30734 0 0 1 -40.152229999999996 -3.85662v0Z"/><path id="Vector_34" stroke="#120071" stroke-linecap="round" stroke-linejoin="round" stroke-width="2" d="M137.01149999999998 213.93893a147.95252 147.95252 0 0 0 -17.65926 39.81194L129.151 258.10299999999995a131.77580999999998 131.77580999999998 0 0 1 17.65528 -39.81393l-9.79677 -4.35014Z"/><path id="Vector_35" stroke="#120071" stroke-linecap="round" stroke-linejoin="round" stroke-width="2" d="M190.77334 191.32854999999998a18.108999999999998 18.108999999999998 0 0 1 -11.343 12.51511"/><path id="Vector_36" stroke="#120071" stroke-linecap="round" stroke-linejoin="round" stroke-width="2" d="M227.48685 188.453s3.32728 7.1838999999999995 9.751000000000001 8.734110000000001"/><path id="Vector_37" stroke="#120071" stroke-linecap="round" stroke-linejoin="round" stroke-width="2" d="M94.66231 58.69306a13.69717 13.69717 0 1 1 -27.03415 4.42576 13.69717 13.69717 0 0 1 27.03415 -4.42576v0Z"/><path id="Vector_38" stroke="#120071" stroke-linecap="round" stroke-linejoin="round" stroke-width="2" d="M195.53740000000002 118.62191c-0.5671499999999999 -2.53327 -3.5919499999999998 -5.97 -6.88142 -9.18783l-7.410760000000001 -6.5033199999999995a2.69048 2.69048 0 0 1 2.388 -4.61282 2.6865 2.6865 0 0 1 2.87356 -4.045669999999999 2.68849 2.68849 0 0 1 2.83575 -4.045669999999999 2.6785400000000004 2.6785400000000004 0 0 1 3.51633 -3.7809999999999997 2.7103800000000002 2.7103800000000002 0 1 1 4.46158 -3.0665899999999997c1.6337899999999999 2.6944600000000003 5.3869299999999996 8.650530000000002 7.0844000000000005 11.0445"/><path id="Vector_39" stroke="#120071" stroke-linecap="round" stroke-linejoin="round" stroke-width="2" d="M290.66537 31.9594c0.7363 -2.17905 1.2935 -4.41581 1.66563 -6.6864 1.73528 -8.053529999999999 3.72926 -6.6147599999999995 4.12129 0.86963 0.2189 4.1989 -0.43183 11.7211 -0.71839 15.92 -0.17512 2.57307 -0.94326 10.01965 -1.92831 17.3926 -1.54623 11.56986 -3.69742 31.155440000000002 -4.99092 42.87654a19.55772 19.55772 0 0 1 -9.528120000000001 14.7061l-50.57187 29.7107"/><path id="Vector_40" stroke="#120071" stroke-linecap="round" stroke-linejoin="round" stroke-width="2" d="M290.70318 35.364290000000004c0.15123999999999999 -0.9830599999999999 -0.36616 -8.58088 -0.83182 -15.31305 -0.5213800000000001 -7.561999999999999 -2.80192 -8.58287 -4.34815 0.11343 -1.36514 7.67543 -2.34422 9.33907 -2.34422 9.33907"/><path id="Vector_41" stroke="#120071" stroke-linecap="round" stroke-linejoin="round" stroke-width="2" d="M275.50356 30.18432s0.29452 -12.935 0.30247999999999997 -14.17676c0.057710000000000004 -7.86647 2.47357 -7.94408 4.423769999999999 -0.9830599999999999 1.791 6.38591 3.55414 18.67615 3.55414 18.67615"/><path id="Vector_42" stroke="#120071" stroke-linecap="round" stroke-linejoin="round" stroke-width="2" d="M276.82691 33.54941s-2.41785 -5.8227400000000005 -4.6506300000000005 -11.91015c-2.3422300000000003 -6.389889999999999 -5.645630000000001 -6.22671 -4.00786 1.55021 0.18308 0.87162 1.75717 9.49429 2.23079 12.023579999999999 0.29053999999999996 1.5522 0.45372 5.48245 -0.86963 5.97 -3.85662 1.43479 -13.532 -2.2288 -14.934949999999999 0.9830599999999999 -0.90545 2.07955 5.81876 4.02179 10.284320000000001 5.78493 2.6069 1.0288300000000001 3.95214 5.24564 3.47852 8.158999999999999 -0.04179 0.26467 -6.73018 39.7005 -6.73018 39.7005l-50.17188 27.9396a7.63165 7.63165 0 0 1 -6.88142 -6.841620000000001"/><path id="Vector_43" stroke="#120071" stroke-linecap="round" stroke-linejoin="round" stroke-width="2" d="M273.22700000000003 34.040940000000006c5.96204 -1.3532000000000002 12.20467 -0.7163999999999999 17.770699999999998 1.81488"/><path id="Vector_44" stroke="#120071" stroke-linecap="round" stroke-linejoin="round" stroke-width="2" d="M275.615 38.57814c6.65456 2.07955 10.70023 6.0117899999999995 10.435559999999999 12.25044"/><path id="Vector_45" stroke="#120071" stroke-linecap="round" stroke-linejoin="round" stroke-width="2" d="M58.251279999999994 133.74392c-4.8357 0.2587 -9.68533 0.0199 -14.47128 -0.71839 -8.809729999999998 -1.393 -8.212729999999999 1.24176 -0.6427700000000001 3.51633 2.0397499999999997 0.61292 3.81881 1.0984800000000001 5.33121 1.47459 4.423769999999999 1.10246 8.809729999999998 2.189 13.15788 3.4029 16.59461 4.58695 33.432 6.0456199999999995 115.96924 16.33193"/><path id="Vector_46" stroke="#120071" stroke-linecap="round" stroke-linejoin="round" stroke-width="2" d="m56.516 122.93225 -10.05746 -5.70931c-6.43367 -3.65563 -5.9302 -6.3879 2.04174 -3.184 0.86764 0.34825 9.67339 3.87453 12.28825 4.87749 1.50842 0.5771 5.6774700000000005 1.74125 6.35208 0.6805800000000001 1.94224 -3.0546499999999996 -0.82983 -12.51113 2.6467 -12.96883 2.2685999999999997 -0.30049 3.54817 6.127210000000001 4.9153 10.51118 0.796 2.53327 5.02873 4.8396799999999995 8.12915 5.06654 0.26467 0.037809999999999996 96.45132000000001 6.841620000000001 96.45132000000001 6.841620000000001l11.683290000000001 -1.2855400000000001c8.6963 -2.30641 2.9511700000000003 -17.39459 1.47459 -17.957759999999997 -7.667470000000001 -2.92928 -5.18395 -9.93806 -1.02087 -7.25952 2.41188 1.5522 2.6765499999999998 0.796 2.55118 -0.8278399999999999 -0.52735 -6.823709999999999 4.577 -18.13288 13.51807 -2.83973 12.50118 21.370610000000003 -7.44857 17.512 -7.44857 17.512"/><path id="Vector_47" stroke="#120071" stroke-linecap="round" stroke-linejoin="round" stroke-width="2" d="M58.478139999999996 123.38s-16.36775 -3.98 -17.468220000000002 -4.27054c-8.48735 -2.26462 -8.501280000000001 0.6666500000000001 -1.43678 3.36509a1095.4353 1095.4353 0 0 1 14.821520000000001 5.820749999999999"/><path id="Vector_48" stroke="#120071" stroke-linecap="round" stroke-linejoin="round" stroke-width="2" d="M57.26822 128.67738a161.59596 161.59596 0 0 1 -16.40954 -2.53327c-8.6565 -1.74722 -8.27641 0.8616699999999999 -1.1342999999999999 3.44071a104.78544 104.78544 0 0 0 13.46036 4.1591"/><path id="Vector_49" stroke="#120071" stroke-linecap="round" stroke-linejoin="round" stroke-width="2" d="M59.302 121.15518a21.84622 21.84622 0 0 0 0 16.14288"/><path id="Vector_50" stroke="#120071" stroke-linecap="round" stroke-linejoin="round" stroke-width="2" d="M63.77154 124.375c1.47459 6.4277 5.10435 10.92709 11.645480000000001 12.212629999999999"/><path id="Vector_51" stroke="#120071" stroke-linecap="round" stroke-linejoin="round" stroke-width="2" d="m229.75545 325.13615 -2.34422 20.60446c7.363 10.35994 15.19962 26.39138 31.418120000000002 42.30939a172.83946 172.83946 0 0 0 -3.184 -35.99512 79.89452 79.89452 0 0 1 -0.28058999999999995 -24.46108"/><path id="Vector_52" stroke="#120071" stroke-linecap="round" stroke-linejoin="round" stroke-width="2" d="M310.0619 342.2999c18.640330000000002 5.70931 17.0145 -20.79351 35.654830000000004 -15.084200000000001"/><path id="Vector_53" stroke="#120071" stroke-linecap="round" stroke-linejoin="round" stroke-width="2" d="m78.25277 273.79017 6.91923 -1.55021"/><path id="Vector_54" stroke="#120071" stroke-linecap="round" stroke-linejoin="round" stroke-width="2" d="m97.42244000000001 269.44202 6.91923 -1.55021"/><path id="Vector_55" stroke="#120071" stroke-linecap="round" stroke-linejoin="round" stroke-width="2" d="m88.34804 257.79654 1.58802 6.91923"/><path id="Vector_56" stroke="#120071" stroke-linecap="round" stroke-linejoin="round" stroke-width="2" d="m92.69619 276.96621 1.5522 6.91923"/><path id="Vector_57" stroke="#120071" stroke-linecap="round" stroke-linejoin="round" stroke-width="2" d="m79.99203 263.69489999999996 6.0117899999999995 3.7809999999999997"/><path id="Vector_58" stroke="#120071" stroke-linecap="round" stroke-linejoin="round" stroke-width="2" d="m96.62843000000001 274.20608 5.973979999999999 3.7809999999999997"/><path id="Vector_59" stroke="#120071" stroke-linecap="round" stroke-linejoin="round" stroke-width="2" d="m98.44331 259.5358 -3.7809999999999997 6.0117899999999995"/><path id="Vector_60" stroke="#120071" stroke-linecap="round" stroke-linejoin="round" stroke-width="2" d="m87.93213 276.13439 -3.7809999999999997 6.0117899999999995"/><path id="Vector_61" stroke="#120071" stroke-linecap="round" stroke-linejoin="round" stroke-width="2" d="M299.36167 180.21241a4.32427 4.32427 0 0 1 -3.32927 -3.4825 4.32228 4.32228 0 0 1 0.0398 -1.6915l6.8058 -30.285809999999998 8.46944 1.92831 -4.489439999999999 20.03333 44.388940000000005 -28.058999999999997 4.6506300000000005 7.33514 -44.42675 28.058999999999997 20.07711 4.5371999999999995 -1.9382599999999999 8.47342 -30.247999999999998 -6.847589999999999Z"/><path id="Vector_62" stroke="#120071" stroke-linecap="round" stroke-linejoin="round" stroke-width="2" d="m342.65412 106.25804 7.14609 -10.13308 -10.05746 -6.95704 7.10828 -10.13308 -10.13308 -7.37295 7.14609 -10.095270000000001 -10.397749999999998 -7.33514"/><path id="Vector_63" stroke="#120071" stroke-linecap="round" stroke-linejoin="round" stroke-width="2" d="m350.82108 86.40778999999999 7.1441 -10.13308 -10.05547 -6.95704 7.10629 -10.13308 -10.13109 -7.37295 7.14609 -10.095270000000001 -10.397749999999998 -7.33514"/><path id="Vector_64" stroke="#120071" stroke-linecap="round" stroke-linejoin="round" stroke-width="2" d="m132.32107 221.7656 -18.82938 -8.734110000000001c-12.139 3.7053800000000003 -29.83209 6.08542 -50.06044 16.44735a169.35298 169.35298 0 0 0 35.12549 8.358c8.0794 1.2994700000000001 15.92597 3.7809999999999997 23.282999999999998 7.363"/><path id="Vector_65" stroke="#120071" stroke-linecap="round" stroke-linejoin="round" stroke-width="2" d="m163.43671 155.97619999999998 13.04445 -3.55414 6.65456 31.7604s-19.6612 14.97276 -6.1690000000000005 63.51881l-13.12007 -17.0145"/></g></g></svg>